<svg width="207" height="209" viewBox="0 0 207 209" fill="none" xmlns="http://www.w3.org/2000/svg">
<path d="M118.293 37.3996C123.933 40.9344 128.732 45.6126 133.011 50.6809C135.869 53.0619 137.921 53.7224 141.449 54.8059C151.022 57.7587 157.793 63.77 163.636 71.8684C165.292 75.1182 166.571 78.3828 167.636 81.8684C167.826 82.482 168.015 83.0956 168.211 83.7278C170.548 95.4786 168.304 106.334 162.027 116.466C156.228 124.433 149.373 129.721 139.636 131.868C134.053 132.318 128.486 132.316 122.886 132.302C121.262 132.307 119.637 132.312 118.012 132.318C114.62 132.327 111.228 132.324 107.836 132.314C103.508 132.303 99.1818 132.323 94.8546 132.352C91.5035 132.371 88.1526 132.37 84.8014 132.365C83.2068 132.365 81.6121 132.371 80.0175 132.383C68.0953 132.463 59.4917 131.156 50.4881 122.798C47.5285 119.714 45.0372 116.398 42.6365 112.868C42.059 112.064 41.4815 111.26 40.8865 110.431C35.7436 99.888 36.6238 87.7438 40.3123 76.9114C44.5582 67.1546 53.0013 59.1899 62.5701 54.677C64.7335 53.8304 66.8908 53.2702 69.1365 52.6809C74.1159 51.135 76.4375 48.0358 79.6638 44.0911C89.0175 33.552 105.807 31.573 118.293 37.3996ZM88.0896 59.1223C86.0823 61.5343 83.8864 63.6828 81.6365 65.8684C81.3065 66.1984 80.9765 66.5284 80.6365 66.8684C78.6378 67.0885 76.6374 67.2942 74.6365 67.4934C66.21 68.7329 61.5392 72.3703 56.199 78.8059C52.2263 86.5924 51.7924 94.0226 54.4177 102.345C55.8745 105.361 57.6612 107.554 59.8865 110.056C60.6341 110.916 61.3818 111.776 62.1521 112.661C66.6272 116.637 71.3443 117.119 77.1734 117.143C78.4517 117.153 79.73 117.162 81.047 117.172C82.4297 117.172 83.8124 117.171 85.1951 117.169C86.6271 117.173 88.059 117.177 89.491 117.182C92.4859 117.19 95.4807 117.189 98.4756 117.184C102.3 117.178 106.123 117.195 109.948 117.218C112.903 117.233 115.859 117.234 118.814 117.231C120.223 117.231 121.633 117.237 123.042 117.247C132.904 117.309 140.235 117.052 147.636 109.868C148.506 107.739 148.506 107.739 148.636 105.868C149.296 105.868 149.956 105.868 150.636 105.868C152.736 101.578 152.971 97.6223 152.949 92.9309C152.965 92.2406 152.981 91.5503 152.998 90.8391C153.004 84.1 150.561 79.2602 146.129 74.2512C141.522 69.9818 136.494 68.7417 130.386 67.9309C124.943 67.1445 124.943 67.1445 122.136 64.6184C121.641 63.7109 121.146 62.8034 120.636 61.8684C115.861 54.5119 115.861 54.5119 108.636 49.8684C99.0289 48.5049 94.0197 51.8658 88.0896 59.1223Z" fill="#05C7D0"/>
<path d="M176.637 29.8684C184.785 37.4096 190.346 46.2255 195.637 55.8684C196.142 56.7785 196.647 57.6886 197.168 58.6263C208.571 80.2498 209.405 109.609 202.343 132.825C199.823 140.111 196.647 147.824 190.637 152.868C187.035 153.469 185.358 153.324 182.262 151.368C179.954 147.819 179.837 144.908 180.637 140.868C181.742 138.084 183.014 135.423 184.328 132.732C191.968 116.014 192.36 91.7397 186.156 74.5716C177.406 51.9114 162.52 33.4685 140 23.2122C136.254 21.6401 132.49 20.1555 128.637 18.8684C127.427 18.4591 127.427 18.4591 126.193 18.0415C118.778 15.7591 111.859 15.4474 104.137 15.5559C102.991 15.5527 101.845 15.5495 100.664 15.5462C77.5051 15.6911 58.9787 24.9468 42.0388 40.2161C39.2602 42.1273 37.9387 42.3544 34.6365 41.8684C31.4566 39.7198 30.7455 38.3838 29.949 34.6184C31.2496 27.5243 36.563 23.4674 42.199 19.3684C86.3471 -9.90804 137.18 -5.66717 176.637 29.8684Z" fill="#06C8D0"/>
<path d="M51.6365 173.868C54.0935 175.224 54.0935 175.224 56.449 177.056C75.9216 191.372 97.145 193.05 120.637 190.868C128.2 189.511 134.737 186.591 141.336 182.697C145.181 180.567 147.308 180.215 151.637 180.868C154.703 182.913 155.469 184.166 156.324 187.743C155.507 191.459 154.05 193.076 151.051 195.365C145.868 198.593 140.364 200.828 134.637 202.868C133.951 203.115 133.265 203.362 132.558 203.617C107.977 212.112 82.4807 209.14 59.3738 197.959C52.3299 194.365 44.6973 189.883 40.6365 182.868C40.6365 179.592 41.3988 178.194 43.324 175.556C46.3532 173.345 47.9404 173.512 51.6365 173.868Z" fill="#08C8D1"/>
<path d="M17.6365 58.8685C19.949 59.8685 19.949 59.8685 21.6365 61.8685C22.5829 68.2565 20.6903 73.4978 18.6092 79.5247C12.5235 100.446 16.1879 125.482 26.5154 144.29C27.7487 146.493 29.002 148.684 30.281 150.861C31.7816 154.19 32.0594 156.259 31.6365 159.868C29.574 162.806 29.574 162.806 26.6365 164.868C23.2615 165.306 23.2615 165.306 19.6365 163.868C14.3955 158.758 11.4574 151.75 8.44901 145.181C8.12811 144.488 7.80722 143.795 7.4766 143.082C1.88134 130.286 -0.0491201 118.215 0.0600948 104.38C0.0739845 101.936 0.0397072 99.4946 0.00174522 97.0501C-0.0624598 84.1264 1.61721 71.5036 9.63651 60.8685C12.8941 58.6967 13.8609 58.408 17.6365 58.8685Z" fill="#06C8D0"/>
<path d="M87.449 143.556C90.8343 144.95 92.1138 146.233 94.574 148.868C97.3135 151.78 98.4123 152.796 102.324 154.056C108.502 153.706 111.527 150.2 115.637 145.868C116.297 145.208 116.957 144.548 117.637 143.868C120.632 144.06 122.888 144.444 125.512 145.931C127.368 149.128 127.235 152.332 126.637 155.868C123.277 162.458 117.906 167.047 110.898 169.357C103.233 171.091 96.8069 170.329 89.9373 166.505C85.677 163.475 81.9866 159.569 79.6365 154.868C79.0937 150.797 79.3176 149.309 81.7615 145.931C84.6365 143.868 84.6365 143.868 87.449 143.556Z" fill="#07C8D1"/>
<path d="M103.762 68.9309C106.637 69.8684 106.637 69.8684 108.637 72.8684C108.832 75.5676 108.832 75.5676 108.762 78.5559C108.744 79.5498 108.725 80.5436 108.707 81.5676C108.684 82.3269 108.66 83.0861 108.637 83.8684C109.384 83.822 110.132 83.7756 110.902 83.7278C118.928 83.4336 118.928 83.4336 122.387 85.5559C123.637 87.8684 123.637 87.8684 123.574 90.4309C122.551 93.0903 121.894 94.1603 119.637 95.8684C116.937 96.1614 116.937 96.1614 113.949 96.0559C112.458 96.0153 112.458 96.0153 110.937 95.9739C110.178 95.9391 109.419 95.9043 108.637 95.8684C108.683 96.6161 108.729 97.3637 108.777 98.134C109.072 106.175 109.072 106.175 106.949 109.556C104.167 111.135 102.778 111.513 99.6366 110.868C97.3964 108.586 96.6796 107.279 96.3436 104.072C96.3784 103.097 96.4132 102.122 96.4491 101.118C96.4761 100.134 96.5032 99.1487 96.5311 98.134C96.5659 97.3864 96.6007 96.6387 96.6366 95.8684C95.5151 95.9206 95.5151 95.9206 94.3709 95.9739C93.3861 96.001 92.4012 96.028 91.3866 96.0559C90.412 96.0907 89.4375 96.1255 88.4334 96.1614C85.2163 95.8244 83.903 95.1454 81.6366 92.8684C81.1852 89.7732 80.9811 87.8315 82.7772 85.1926C85.4721 83.2734 87.5599 83.5756 90.8241 83.6809C91.9107 83.708 92.9974 83.7351 94.117 83.7629C95.3642 83.8152 95.3642 83.8152 96.6366 83.8684C96.5901 83.1208 96.5437 82.3731 96.4959 81.6028C96.2027 73.6026 96.2027 73.6026 98.2616 70.1184C100.637 68.8684 100.637 68.8684 103.762 68.9309Z" fill="#0BC9D1"/>
</svg>
