<svg width="12" height="12" viewBox="0 0 12 12" fill="none" xmlns="http://www.w3.org/2000/svg">
<path d="M2.09796 7.97021L3.98747 9.85982C3.8642 9.98746 3.71675 10.0893 3.55372 10.1593C3.39068 10.2293 3.21534 10.2662 3.03791 10.2677C2.86048 10.2693 2.68451 10.2355 2.52029 10.1683C2.35607 10.1011 2.20687 10.0019 2.0814 9.87639C1.95593 9.75091 1.85671 9.60171 1.78952 9.43747C1.72233 9.27324 1.68852 9.09727 1.69006 8.91983C1.6916 8.74239 1.72847 8.56703 1.7985 8.40399C1.86853 8.24095 1.97034 8.09349 2.09796 7.97021ZM8.02237 11.5283L7.55066 12L0 4.44891L0.471708 3.97718L1.208 4.08208C1.71178 4.15425 2.33649 4.00057 2.59573 3.74131L5.19146 1.14611C5.94478 0.406913 6.95946 -0.00496445 8.01483 4.51689e-05C9.07021 0.00505479 10.0809 0.426546 10.8272 1.17286C11.5735 1.91917 11.9949 2.92995 12 3.98539C12.005 5.04082 11.5931 6.05556 10.854 6.80892L8.25823 9.40479C7.99899 9.66405 7.84532 10.2888 7.91747 10.7926L8.02237 11.5283Z" fill="#555555" fill-opacity="0.66"/>
</svg>
