<svg width="25" height="25" viewBox="0 0 25 25" fill="none" xmlns="http://www.w3.org/2000/svg">
<g clip-path="url(#clip0_222_202)">
<path d="M6.46483 1.04502C6.82747 1.35245 7.00751 1.72927 7.10936 2.1876C7.10936 2.35775 7.10936 2.52791 7.10936 2.70322C9.64623 2.70322 12.1831 2.70322 14.7969 2.70322C14.7969 2.53307 14.7969 2.36291 14.7969 2.1876C14.9111 1.67332 15.1454 1.21863 15.5937 0.921973C16.0612 0.667032 16.5508 0.571748 17.073 0.697486C17.5808 0.86158 17.9447 1.12926 18.2052 1.59525C18.3454 1.88214 18.4139 2.13996 18.4095 2.46024C18.4091 2.50596 18.4086 2.55167 18.4081 2.59877C18.4075 2.63324 18.4069 2.66771 18.4062 2.70322C18.4663 2.70224 18.5263 2.70126 18.5881 2.70025C18.8126 2.69683 19.0371 2.69469 19.2617 2.69292C19.3585 2.69199 19.4553 2.69071 19.5522 2.68908C19.692 2.68678 19.8319 2.68574 19.9718 2.68491C20.0358 2.68346 20.0358 2.68346 20.1012 2.68198C20.4893 2.68185 20.8284 2.7776 21.1191 3.04307C21.3978 3.348 21.508 3.67448 21.5024 4.08216C21.5021 4.11787 21.5018 4.15357 21.5014 4.19037C21.5008 4.26876 21.5 4.34715 21.4991 4.42554C21.4972 4.59777 21.4958 4.77001 21.4943 4.94225C21.4936 5.03503 21.4928 5.12781 21.4919 5.22059C21.4868 5.81617 21.4853 6.41176 21.4837 7.00735C21.4822 7.58732 21.4794 8.16722 21.4728 8.74716C21.4676 9.20776 21.465 9.66828 21.4656 10.1289C21.4658 10.3726 21.4647 10.6161 21.4603 10.8598C21.4563 11.0893 21.4558 11.3187 21.4579 11.5483C21.4581 11.6322 21.457 11.7161 21.4545 11.7999C21.4351 12.2457 21.4351 12.2457 21.6206 12.6351C21.8 12.8003 21.9984 12.9291 22.2074 13.0535C22.6053 13.3023 22.9058 13.679 23.1875 14.047C23.2199 14.0891 23.2523 14.1312 23.2856 14.1746C24.3351 15.5772 24.6876 17.2976 24.4696 19.024C24.2543 20.3717 23.5797 21.5711 22.625 22.5313C22.6031 22.5534 22.5813 22.5754 22.5587 22.5982C21.6074 23.544 20.304 24.1651 18.9687 24.3126C18.899 24.3203 18.899 24.3203 18.8279 24.3282C17.1073 24.493 15.4366 23.9942 14.0937 22.9063C14.0783 22.8909 14.0628 22.8754 14.0469 22.8595C13.9811 22.8548 13.9151 22.8535 13.8491 22.8534C13.8062 22.8532 13.7633 22.853 13.7191 22.8528C13.6714 22.8529 13.6237 22.8529 13.5746 22.853C13.5243 22.8529 13.4741 22.8527 13.4223 22.8526C13.2525 22.8522 13.0828 22.8521 12.913 22.8521C12.7918 22.8519 12.6707 22.8516 12.5495 22.8514C12.2878 22.8508 12.0261 22.8504 11.7644 22.8501C11.3506 22.8496 10.9368 22.8487 10.5229 22.8476C10.3814 22.8473 10.2399 22.8469 10.0983 22.8466C10.0629 22.8465 10.0276 22.8464 9.99112 22.8463C9.58804 22.8454 9.18497 22.8445 8.7819 22.8436C8.74504 22.8436 8.70818 22.8435 8.6702 22.8434C8.07368 22.8422 7.47716 22.8413 6.88064 22.8405C6.26821 22.8397 5.65577 22.8383 5.04334 22.8365C4.66564 22.8354 4.28795 22.8348 3.91026 22.8347C3.62042 22.8346 3.33058 22.8337 3.04074 22.8326C2.92203 22.8323 2.80333 22.8322 2.68462 22.8324C2.52231 22.8325 2.36002 22.8319 2.19771 22.831C2.15096 22.8312 2.10421 22.8315 2.05604 22.8318C1.60333 22.8275 1.17959 22.7384 0.847332 22.411C0.597617 22.1381 0.482481 21.8771 0.482154 21.5057C0.481936 21.4748 0.481717 21.444 0.481492 21.4121C0.480933 21.3091 0.481372 21.206 0.481809 21.1029C0.481613 21.0281 0.481356 20.9533 0.481044 20.8785C0.480366 20.6732 0.480565 20.4679 0.480911 20.2627C0.481133 20.0412 0.480547 19.8197 0.480066 19.5982C0.47926 19.1643 0.479222 18.7305 0.479467 18.2966C0.479657 17.944 0.479589 17.5914 0.479338 17.2388C0.479303 17.1886 0.479268 17.1384 0.479232 17.0867C0.47916 16.9848 0.479088 16.8828 0.479016 16.7809C0.478372 15.8248 0.478627 14.8687 0.479165 13.9126C0.47963 13.038 0.479024 12.1633 0.477902 11.2887C0.476759 10.3906 0.476309 9.49248 0.47662 8.59437C0.476784 8.09016 0.476679 7.58595 0.475859 7.08174C0.475169 6.6525 0.475138 6.22327 0.475956 5.79403C0.476355 5.57505 0.476454 5.35609 0.475738 5.13711C0.47509 4.93655 0.475311 4.73602 0.476218 4.53546C0.476394 4.46301 0.476256 4.39055 0.475767 4.3181C0.472815 3.84705 0.503366 3.41163 0.84335 3.05029C1.3532 2.62286 1.89825 2.66922 2.52733 2.68565C2.62187 2.68706 2.71641 2.68834 2.81096 2.68949C3.04068 2.69256 3.27031 2.6974 3.49998 2.70322C3.4994 2.6654 3.49883 2.62759 3.49823 2.58862C3.49778 2.53858 3.49733 2.48854 3.49687 2.43699C3.49629 2.38757 3.49571 2.33815 3.49512 2.28723C3.51062 1.82037 3.73319 1.45099 4.04985 1.1179C4.73812 0.491045 5.73053 0.503328 6.46483 1.04502ZM4.73045 1.84775C4.59349 1.98472 4.54202 2.09623 4.48436 2.28135C4.48436 2.42057 4.48436 2.55979 4.48436 2.70322C5.02576 2.70322 5.56717 2.70322 6.12498 2.70322C6.12498 2.33183 6.10825 2.15585 5.88182 1.87119C5.49499 1.56173 5.14585 1.58341 4.73045 1.84775ZM15.9848 1.89316C15.7719 2.18536 15.7812 2.32115 15.7812 2.70322C16.3226 2.70322 16.864 2.70322 17.4219 2.70322C17.4219 2.28331 17.4121 2.08414 17.123 1.79502C16.7436 1.56011 16.3094 1.55638 15.9848 1.89316ZM1.5549 3.77077C0.896144 4.74501 1.43748 6.12092 1.43748 7.29697C7.73326 7.29697 14.029 7.29697 20.5156 7.29697C20.5156 6.18322 20.5156 5.06947 20.5156 3.92197C20.3221 3.69087 20.3221 3.69087 20.1821 3.65876C20.1491 3.65897 20.1162 3.65919 20.0822 3.65941C20.044 3.65909 20.0058 3.65877 19.9665 3.65844C19.9046 3.6597 19.9046 3.6597 19.8415 3.66099C19.7976 3.66096 19.7537 3.66092 19.7084 3.66089C19.5636 3.66105 19.4188 3.66287 19.274 3.66471C19.1734 3.66515 19.0729 3.66548 18.9723 3.66571C18.7079 3.66661 18.4435 3.66891 18.1791 3.6715C17.9092 3.6739 17.6393 3.67497 17.3694 3.67615C16.84 3.67867 16.3106 3.68267 15.7812 3.6876C15.7771 3.83798 15.7746 3.98835 15.7724 4.13877C15.7713 4.18113 15.7701 4.22349 15.7689 4.26713C15.7657 4.5583 15.8033 4.75481 15.9876 4.99039C16.1996 5.18294 16.4033 5.2409 16.6827 5.29362C16.8223 5.33083 16.8979 5.36701 17 5.46885C17.0676 5.66606 17.0685 5.84121 16.9853 6.03135C16.8862 6.14887 16.8425 6.16884 16.6898 6.18479C16.2059 6.19988 15.8151 6.09426 15.4355 5.78525C14.8209 5.19361 14.8361 4.55134 14.7969 3.6876C11.3937 3.6876 7.99061 3.6876 4.48436 3.6876C4.41835 4.43801 4.41835 4.43801 4.69072 4.99039C4.90268 5.18294 5.10642 5.2409 5.38578 5.29362C5.5254 5.33083 5.60103 5.36701 5.70311 5.46885C5.77069 5.66606 5.77164 5.84121 5.68846 6.03135C5.58843 6.1499 5.5457 6.16927 5.39128 6.18314C4.89913 6.19426 4.48616 6.10201 4.09892 5.78525C3.94563 5.63432 3.83642 5.47003 3.73436 5.28135C3.71544 5.24709 3.69653 5.21283 3.67704 5.17753C3.46971 4.71902 3.5072 4.18156 3.49998 3.6876C3.24306 3.68296 2.98617 3.67956 2.72922 3.6773C2.64183 3.67636 2.55444 3.67508 2.46706 3.67345C2.34139 3.67118 2.21576 3.67011 2.09007 3.66929C2.03154 3.66784 2.03154 3.66784 1.97183 3.66636C1.74846 3.66621 1.74846 3.66621 1.5549 3.77077ZM1.43748 8.28135C1.43555 10.4499 1.43361 12.6184 1.43162 14.8526C1.43077 15.5382 1.42992 16.2237 1.42904 16.93C1.42872 17.5428 1.42872 17.5428 1.42853 18.1556C1.42845 18.4292 1.4281 18.7028 1.42758 18.9764C1.42699 19.2918 1.42672 19.6072 1.42685 19.9227C1.4269 20.0841 1.42681 20.2455 1.4263 20.4069C1.42584 20.5796 1.42595 20.7523 1.42621 20.925C1.42593 20.9755 1.42566 21.0261 1.42538 21.0782C1.42557 21.1245 1.42575 21.1709 1.42595 21.2187C1.42591 21.2586 1.42587 21.2985 1.42584 21.3397C1.4444 21.5207 1.48877 21.6499 1.62571 21.7715C1.82619 21.8528 2.00825 21.8472 2.22266 21.8451C2.269 21.8453 2.31533 21.8454 2.36306 21.8455C2.51846 21.8457 2.67384 21.845 2.82923 21.8442C2.94056 21.8441 3.0519 21.8442 3.16323 21.8442C3.43426 21.8443 3.70528 21.8437 3.97631 21.8428C4.2917 21.8418 4.6071 21.8416 4.9225 21.8414C5.48494 21.8411 6.04739 21.8402 6.60983 21.8388C7.15616 21.8375 7.70248 21.8365 8.24881 21.8359C8.28249 21.8359 8.31617 21.8359 8.35088 21.8358C8.51985 21.8357 8.68883 21.8355 8.8578 21.8353C10.2594 21.8338 11.6609 21.8314 13.0625 21.8282C13.0336 21.7772 13.0046 21.7262 12.9748 21.6736C12.9585 21.6449 12.9423 21.6162 12.9255 21.5866C12.8629 21.4793 12.7948 21.3756 12.7275 21.2712C12.3788 20.7208 12.1597 20.1098 11.9844 19.4845C11.9526 19.4844 11.9208 19.4843 11.8881 19.4843C11.5573 19.4833 11.2265 19.4808 10.8957 19.4773C10.7723 19.4762 10.6489 19.4756 10.5254 19.4753C10.3479 19.4749 10.1705 19.4729 9.99308 19.4707C9.9379 19.4709 9.88272 19.4711 9.82586 19.4713C9.77426 19.4704 9.72266 19.4695 9.6695 19.4685C9.62422 19.4682 9.57894 19.4679 9.53229 19.4676C9.35235 19.4248 9.28283 19.3492 9.17186 19.2032C9.14209 19.0556 9.14209 19.0556 9.14153 18.8877C9.14112 18.857 9.14071 18.8262 9.14029 18.7946C9.13926 18.6934 9.13993 18.5924 9.14073 18.4913C9.14057 18.4207 9.14034 18.3502 9.14005 18.2796C9.1397 18.1319 9.1402 17.9843 9.1413 17.8366C9.14264 17.6476 9.14187 17.4586 9.14046 17.2696C9.13962 17.124 9.13989 16.9783 9.14049 16.8327C9.14065 16.763 9.14046 16.6933 9.13991 16.6237C9.13931 16.5261 9.14023 16.4287 9.14153 16.3312C9.14172 16.2758 9.1419 16.2204 9.14209 16.1633C9.1814 15.9684 9.24809 15.8995 9.40623 15.7813C9.54119 15.7514 9.54119 15.7514 9.69102 15.7504C9.74731 15.7495 9.8036 15.7486 9.8616 15.7476C9.92191 15.7478 9.98222 15.748 10.0444 15.7482C10.1071 15.7476 10.1698 15.7469 10.2325 15.7461C10.397 15.7442 10.5616 15.7437 10.7261 15.7435C10.8942 15.7431 11.0623 15.7413 11.2304 15.7397C11.5599 15.7367 11.8893 15.7351 12.2187 15.7345C12.2401 15.6845 12.2615 15.6346 12.2835 15.5831C12.5931 14.8641 12.9514 14.2482 13.4844 13.672C13.5065 13.6477 13.5287 13.6235 13.5516 13.5985C13.8523 13.2733 14.1725 13.0009 14.5381 12.751C14.5624 12.734 14.5867 12.717 14.6118 12.6995C14.7031 12.6407 14.7031 12.6407 14.8099 12.5889C14.9829 12.497 15.1034 12.4295 15.1629 12.2363C15.1761 12.0815 15.1761 11.9316 15.1715 11.7763C15.1716 11.72 15.1717 11.6637 15.1718 11.6058C15.1719 11.4263 15.1691 11.247 15.166 11.0675C15.1644 10.8879 15.1634 10.7083 15.1632 10.5287C15.1629 10.417 15.1617 10.3054 15.1596 10.1938C15.1589 10.1177 15.1589 10.1177 15.1583 10.0402C15.1575 9.99572 15.1568 9.95129 15.156 9.90551C15.1756 9.75179 15.2167 9.66864 15.3125 9.54697C15.487 9.44851 15.6421 9.44118 15.8401 9.44035C15.9274 9.43968 15.9274 9.43968 16.0164 9.43899C16.0796 9.43901 16.1427 9.43905 16.2059 9.43912C16.2711 9.43894 16.3363 9.43874 16.4015 9.43851C16.5379 9.43817 16.6743 9.43818 16.8108 9.43843C16.9852 9.4387 17.1595 9.4379 17.3339 9.43682C17.4685 9.43612 17.6031 9.43608 17.7377 9.43623C17.802 9.43621 17.8662 9.43596 17.9305 9.43549C18.0206 9.43491 18.1106 9.43532 18.2007 9.43577C18.2518 9.43574 18.3029 9.43571 18.3556 9.43568C18.5237 9.4561 18.6366 9.50714 18.7812 9.59385C18.9072 9.79217 18.8912 10.0229 18.8944 10.251C18.8958 10.3114 18.8958 10.3114 18.8971 10.373C18.8999 10.501 18.9021 10.6289 18.9043 10.7569C18.9061 10.8439 18.9079 10.9309 18.9098 11.018C18.9143 11.2307 18.9182 11.4435 18.9219 11.6563C18.9509 11.6627 18.9799 11.6691 19.0098 11.6756C19.1436 11.7051 19.2774 11.7349 19.4111 11.7647C19.4568 11.7747 19.5024 11.7847 19.5494 11.795C19.8017 11.8516 20.0451 11.9163 20.288 12.005C20.3823 12.0381 20.3823 12.0381 20.5156 12.0313C20.5156 10.7938 20.5156 9.55635 20.5156 8.28135C14.2198 8.28135 7.92404 8.28135 1.43748 8.28135ZM16.1094 10.3907C16.1094 10.9012 16.1094 11.4117 16.1094 11.9376C16.2196 11.9096 16.3298 11.8815 16.4433 11.8526C16.9364 11.7322 17.4342 11.6728 17.9375 11.6095C17.9375 11.2073 17.9375 10.8051 17.9375 10.3907C17.3342 10.3907 16.7309 10.3907 16.1094 10.3907ZM14 14.5157C13.0492 15.6848 12.6984 17.0605 12.7812 18.547C12.8938 19.6183 13.3362 20.6442 14.0469 21.4532C14.0926 21.5091 14.0926 21.5091 14.1393 21.566C15.0964 22.6966 16.4465 23.2356 17.8906 23.3751C19.2886 23.4756 20.6596 22.9191 21.7104 22.0263C22.5362 21.2943 23.0762 20.4042 23.375 19.3438C23.39 19.2935 23.405 19.2432 23.4204 19.1913C23.6394 18.3162 23.6034 17.2959 23.3281 16.4376C23.3183 16.4061 23.3085 16.3746 23.2984 16.3421C23.0708 15.6283 22.7117 14.974 22.2031 14.422C22.1796 14.3962 22.1561 14.3705 22.1319 14.344C21.1679 13.2993 19.8596 12.6478 18.4302 12.5788C16.7138 12.5287 15.1253 13.2151 14 14.5157ZM10.1094 16.7188C10.1094 17.3067 10.1094 17.8945 10.1094 18.5001C10.6662 18.5001 11.2231 18.5001 11.7969 18.5001C11.8103 18.1243 11.8103 18.1243 11.8235 17.7486C11.8253 17.7005 11.8271 17.6524 11.8289 17.6029C11.8306 17.5548 11.8323 17.5067 11.8341 17.4571C11.8476 17.2107 11.8701 16.9648 11.8906 16.7188C11.3028 16.7188 10.715 16.7188 10.1094 16.7188Z" fill="#7890B0"/>
<path d="M20.8086 14.709C21.34 15.1151 21.6624 15.5803 21.7549 16.2471C21.8263 16.879 21.6786 17.452 21.283 17.9492C21.0344 18.2378 20.762 18.5046 20.4931 18.7743C20.4266 18.8412 20.3601 18.9081 20.2936 18.9751C20.1547 19.1148 20.0155 19.2543 19.8763 19.3937C19.699 19.5713 19.5224 19.7496 19.346 19.9281C19.2091 20.0665 19.0716 20.2043 18.934 20.3419C18.8687 20.4074 18.8036 20.4731 18.7387 20.5389C18.1585 21.1273 17.6016 21.5809 16.7334 21.6084C16.2207 21.5869 15.7739 21.4265 15.3594 21.125C15.3217 21.0999 15.284 21.0747 15.2451 21.0488C14.8532 20.6855 14.584 20.1652 14.5514 19.6294C14.5316 18.8196 14.7444 18.2823 15.3055 17.6913C15.4593 17.5322 15.6148 17.3748 15.7708 17.2179C15.839 17.1491 15.9071 17.0802 15.9753 17.0114C16.1178 16.8676 16.2606 16.7242 16.4035 16.5809C16.5852 16.3988 16.7656 16.2155 16.9457 16.0319C17.086 15.8893 17.2271 15.7477 17.3684 15.6062C17.4352 15.5391 17.5017 15.4716 17.5679 15.4038C18.4423 14.5097 19.633 13.9439 20.8086 14.709ZM18.5 15.9219C18.4489 15.9725 18.4489 15.9725 18.3967 16.0241C18.1486 16.27 17.902 16.5173 17.6563 16.7656C17.8491 16.9955 18.0493 17.212 18.2624 17.4232C18.2921 17.4529 18.3219 17.4826 18.3526 17.5132C18.4465 17.6069 18.5407 17.7004 18.6348 17.794C18.699 17.8579 18.7632 17.9219 18.8274 17.9859C18.9838 18.1418 19.1403 18.2975 19.2969 18.4531C19.5533 18.3453 19.7325 18.1305 19.9263 17.9375C19.9961 17.8681 20.0668 17.7997 20.1376 17.7313C20.5013 17.3738 20.7884 17.0109 20.7969 16.4844C20.7481 16.1004 20.5757 15.7991 20.2738 15.5604C19.6052 15.092 19.0039 15.4232 18.5 15.9219ZM16.6593 17.7453C16.635 17.7691 16.6107 17.793 16.5857 17.8176C16.5341 17.8684 16.4827 17.9194 16.4314 17.9705C16.3539 18.0475 16.2756 18.1235 16.1972 18.1995C15.8785 18.5132 15.6044 18.809 15.5174 19.2634C15.5271 19.6671 15.6077 19.9659 15.878 20.2725C16.147 20.5186 16.4762 20.6286 16.8389 20.6152C17.3926 20.5253 17.7581 20.1099 18.1309 19.7246C18.1806 19.6739 18.2304 19.6233 18.2803 19.5726C18.4009 19.45 18.521 19.3267 18.6406 19.2031C18.4483 18.9742 18.2491 18.7572 18.0379 18.5456C18.0083 18.5159 17.9788 18.4862 17.9483 18.4556C17.8865 18.3935 17.8245 18.3314 17.7625 18.2695C17.6674 18.1742 17.5725 18.0785 17.4777 17.9828C17.4174 17.9224 17.357 17.8619 17.2967 17.8015C17.2683 17.7728 17.2399 17.7441 17.2107 17.7145C16.9514 17.4566 16.8993 17.5078 16.6593 17.7453Z" fill="#7890B0"/>
<path d="M9.78333 9.39935C9.84169 9.39905 9.90004 9.39875 9.96017 9.39844C10.0239 9.39837 10.0877 9.39832 10.1515 9.39828C10.2169 9.39813 10.2824 9.39797 10.3478 9.39781C10.485 9.39753 10.6222 9.39744 10.7594 9.39747C10.935 9.39748 11.1105 9.39684 11.286 9.39603C11.4212 9.39551 11.5564 9.39541 11.6916 9.39544C11.7563 9.39538 11.821 9.39517 11.8857 9.39481C11.9764 9.39435 12.067 9.39455 12.1577 9.39477C12.2349 9.39467 12.2349 9.39467 12.3138 9.39457C12.525 9.41213 12.6413 9.45511 12.7943 9.60355C12.8925 9.7627 12.899 9.85853 12.9 10.0447C12.9006 10.09 12.9006 10.09 12.9012 10.1363C12.9023 10.2356 12.902 10.3349 12.9015 10.4343C12.9018 10.5037 12.9021 10.5731 12.9024 10.6425C12.9029 10.7878 12.9027 10.9331 12.902 11.0783C12.9012 11.2641 12.9023 11.4498 12.904 11.6355C12.905 11.7788 12.9049 11.922 12.9045 12.0653C12.9045 12.1338 12.9048 12.2023 12.9055 12.2707C12.9107 12.8718 12.9107 12.8718 12.7648 13.0567C12.5783 13.2061 12.441 13.2093 12.2088 13.2113C12.1187 13.2122 12.1187 13.2122 12.0267 13.2132C11.961 13.2135 11.8953 13.2139 11.8296 13.2142C11.7965 13.2144 11.7634 13.2146 11.7292 13.2148C11.5539 13.2158 11.3785 13.2164 11.2031 13.2169C11.0223 13.2174 10.8415 13.219 10.6607 13.2209C10.5214 13.2221 10.382 13.2225 10.2427 13.2226C10.1761 13.2229 10.1094 13.2234 10.0428 13.2243C9.9494 13.2254 9.85595 13.2253 9.76251 13.2251C9.70943 13.2253 9.65636 13.2256 9.60167 13.2259C9.41852 13.1977 9.31612 13.1296 9.17187 13.0155C9.10508 12.8819 9.11755 12.7673 9.11596 12.618C9.11557 12.5868 9.11519 12.5556 9.11479 12.5235C9.11363 12.4201 9.11286 12.3167 9.11218 12.2133C9.11193 12.178 9.11168 12.1427 9.11142 12.1064C9.11017 11.9195 9.10926 11.7326 9.10859 11.5457C9.10781 11.3528 9.10571 11.1599 9.10332 10.9669C9.10174 10.8185 9.1012 10.6701 9.10093 10.5216C9.10062 10.4505 9.09991 10.3794 9.09878 10.3083C9.0973 10.2087 9.0973 10.1091 9.09765 10.0094C9.09727 9.95278 9.09689 9.89612 9.0965 9.83775C9.13328 9.64373 9.20755 9.57519 9.35937 9.45303C9.51163 9.40228 9.62313 9.3999 9.78333 9.39935ZM10.1094 10.3905C10.1094 10.9938 10.1094 11.5971 10.1094 12.2187C10.6972 12.2187 11.285 12.2187 11.8906 12.2187C11.8906 11.6154 11.8906 11.0121 11.8906 10.3905C11.3028 10.3905 10.715 10.3905 10.1094 10.3905Z" fill="#7890B0"/>
<path d="M3.7879 9.39859C3.8461 9.39814 3.90431 9.39769 3.96427 9.39722C4.02765 9.397 4.09103 9.3968 4.15441 9.39662C4.21968 9.39635 4.28495 9.39608 4.35021 9.39581C4.48694 9.39532 4.62367 9.39504 4.7604 9.39488C4.93514 9.39462 5.10987 9.3935 5.28461 9.39216C5.41941 9.39129 5.55421 9.39105 5.68901 9.39097C5.75341 9.39083 5.81781 9.39046 5.8822 9.38984C5.97249 9.38904 6.06279 9.38922 6.15308 9.38943C6.20435 9.38926 6.25562 9.38909 6.30844 9.38892C6.47786 9.40909 6.58922 9.45807 6.73437 9.54677C6.84716 9.71596 6.8407 9.79516 6.84248 9.99654C6.84287 10.0277 6.84326 10.0589 6.84366 10.0911C6.84479 10.1942 6.8452 10.2973 6.84551 10.4004C6.84593 10.4722 6.84636 10.5439 6.84679 10.6157C6.84757 10.7661 6.84793 10.9166 6.84806 11.067C6.84832 11.2596 6.85008 11.4521 6.85222 11.6447C6.85362 11.7929 6.85396 11.9411 6.854 12.0894C6.8542 12.1603 6.85478 12.2313 6.85576 12.3023C6.85702 12.4017 6.8568 12.501 6.85621 12.6005C6.85645 12.657 6.85669 12.7135 6.85693 12.7717C6.81993 12.9644 6.74287 13.0331 6.59374 13.1561C6.46412 13.221 6.35843 13.2097 6.21337 13.2106C6.15314 13.211 6.0929 13.2115 6.03084 13.2119C5.96475 13.2122 5.89866 13.2124 5.83257 13.2125C5.76496 13.2128 5.69734 13.2131 5.62972 13.2133C5.48783 13.2138 5.34593 13.2141 5.20403 13.2143C5.02244 13.2145 4.84088 13.2157 4.6593 13.217C4.51956 13.2179 4.37982 13.2181 4.24007 13.2182C4.17315 13.2183 4.10622 13.2187 4.0393 13.2193C3.94551 13.2201 3.85172 13.2199 3.75793 13.2197C3.67794 13.22 3.67794 13.22 3.59634 13.2202C3.39337 13.1958 3.27816 13.1216 3.13501 12.9789C3.05783 12.8378 3.05959 12.7303 3.05843 12.5698C3.05784 12.5245 3.05784 12.5245 3.05723 12.4782C3.05614 12.3786 3.05609 12.2791 3.05614 12.1795C3.05581 12.11 3.05545 12.0405 3.05506 11.971C3.05443 11.8255 3.05436 11.6799 3.05463 11.5344C3.05491 11.3483 3.05348 11.1622 3.05158 10.9761C3.05037 10.8326 3.05023 10.6892 3.0504 10.5457C3.05032 10.4771 3.04987 10.4085 3.04904 10.3399C3.0425 9.73722 3.0425 9.73722 3.18532 9.55233C3.38248 9.39836 3.54158 9.40013 3.7879 9.39859ZM4.06249 10.3905C4.06249 10.9938 4.06249 11.5971 4.06249 12.2186C4.6503 12.2186 5.23812 12.2186 5.84374 12.2186C5.84374 11.6154 5.84374 11.0121 5.84374 10.3905C5.25593 10.3905 4.66812 10.3905 4.06249 10.3905Z" fill="#7890B0"/>
<path d="M6.54688 16.203C6.66909 16.3095 6.68707 16.389 6.73145 16.5458C6.73731 16.8918 6.47682 17.1417 6.25684 17.3866C6.20203 17.4487 6.14728 17.5108 6.09259 17.573C6.066 17.6032 6.0394 17.6334 6.012 17.6644C5.91233 17.7788 5.81623 17.8958 5.7207 18.0136C5.56361 18.2069 5.40578 18.3995 5.24609 18.5907C5.22509 18.6162 5.20408 18.6417 5.18244 18.668C5.03551 18.8431 4.88911 19.0144 4.67188 19.0988C4.43613 19.1177 4.3032 19.0478 4.12032 18.8989C4.01452 18.8071 3.91135 18.7129 3.80938 18.6169C3.73834 18.5505 3.66607 18.4859 3.59283 18.4219C3.22424 18.0981 3.22424 18.0981 3.2041 17.8524C3.20552 17.6968 3.21846 17.6566 3.30664 17.5185C3.45641 17.3731 3.58323 17.3432 3.79388 17.3421C4.06897 17.4126 4.28228 17.6522 4.48438 17.8436C4.67046 17.6624 4.84225 17.4721 5.01172 17.2753C5.03837 17.2445 5.06501 17.2137 5.09247 17.1819C5.2849 16.9586 5.47243 16.732 5.65625 16.5015C5.92835 16.1794 5.92835 16.1794 6.08087 16.116C6.24671 16.1037 6.393 16.1428 6.54688 16.203Z" fill="#7890B0"/>
</g>
<defs>
<clipPath id="clip0_222_202">
<rect width="24" height="24" fill="white" transform="translate(0.5 0.5)"/>
</clipPath>
</defs>
</svg>
