<svg width="21" height="20" viewBox="0 0 21 20" fill="none" xmlns="http://www.w3.org/2000/svg">
<g clip-path="url(#clip0_224_470)">
<path d="M10.3178 5.46404C11.5964 5.44126 12.7713 5.84669 13.7131 6.72442C14.5477 7.53749 14.9859 8.71665 15.0087 9.86844C15.0103 10.3026 14.9978 10.714 14.875 11.1328C14.8626 11.1787 14.8502 11.2246 14.8375 11.2718C14.6658 11.8471 14.3807 12.4059 13.9766 12.8516C13.9503 12.8829 13.924 12.9142 13.8969 12.9465C13.178 13.7857 12.176 14.2942 11.0859 14.4531C10.8981 14.4626 10.71 14.4627 10.522 14.4629C10.4956 14.4629 10.4691 14.463 10.4419 14.463C10.0568 14.4624 9.69952 14.4472 9.32812 14.336C9.28235 14.3236 9.23657 14.3112 9.18942 14.2984C8.5415 14.1055 7.95725 13.7681 7.45312 13.3203C7.41837 13.2895 7.38363 13.2587 7.34783 13.227C6.56212 12.4831 6.03149 11.3953 5.9985 10.3084C5.98964 9.7443 6.00965 9.21627 6.16406 8.6719C6.17222 8.64309 6.18038 8.61428 6.18879 8.5846C6.35726 8.01433 6.6334 7.4819 7.02343 7.03127C7.04846 7.00066 7.07348 6.97004 7.09927 6.9385C7.83027 6.07691 8.8928 5.61252 9.99951 5.47854C10.1056 5.47112 10.2115 5.4679 10.3178 5.46404ZM8.39062 7.92971C7.83472 8.50785 7.58241 9.23872 7.59106 10.0313C7.61458 10.7408 7.87211 11.423 8.35156 11.9531C8.37225 11.977 8.39295 12.0008 8.41427 12.0253C8.8946 12.5444 9.63545 12.8209 10.3303 12.8595C11.1738 12.8698 11.9332 12.6314 12.5554 12.0473C13.1687 11.4269 13.4023 10.6762 13.4001 9.81972C13.3916 9.17365 13.1459 8.57946 12.7266 8.08596C12.6976 8.04729 12.6685 8.00862 12.6387 7.96877C12.1596 7.41135 11.4329 7.11469 10.7173 7.03616C9.82987 6.99146 9.03115 7.3196 8.39062 7.92971Z" fill="white"/>
<path d="M5.67592 -0.0246179C5.81322 -0.0241599 5.95043 -0.025505 6.08772 -0.0273011C6.22074 -0.0287334 6.35375 -0.028438 6.48678 -0.0283372C6.53549 -0.0290568 6.5842 -0.0297763 6.63439 -0.0305176C6.94321 -0.0272463 7.14374 0.0239589 7.375 0.234419C7.55408 0.444079 7.55962 0.648144 7.55123 0.919844C7.52125 1.12222 7.44616 1.26664 7.29687 1.40629C7.06556 1.56902 6.88733 1.58506 6.60855 1.5836C6.54892 1.58429 6.54892 1.58429 6.4881 1.585C6.36136 1.58637 6.23465 1.58673 6.10791 1.58696C4.93743 1.59297 3.86153 1.66953 2.97755 2.52175C2.27003 3.23872 2.10165 4.15383 2.09744 5.12257C2.09686 5.20311 2.09627 5.28365 2.09568 5.36419C2.09479 5.48891 2.09424 5.61359 2.09472 5.73831C2.09507 5.86024 2.09394 5.98209 2.09256 6.10402C2.09303 6.14089 2.09351 6.17776 2.094 6.21576C2.08901 6.49103 2.00706 6.66628 1.82812 6.87504C1.61846 7.05413 1.4144 7.05966 1.1427 7.05128C0.883515 7.01287 0.729777 6.89441 0.57486 6.68901C0.4536 6.47096 0.477711 6.2273 0.479244 5.98454C0.479139 5.93153 0.478987 5.87853 0.478791 5.82552C0.478561 5.71441 0.478893 5.60331 0.479626 5.4922C0.480506 5.35207 0.479995 5.21198 0.479089 5.07185C0.474988 4.32638 0.503772 3.61626 0.800289 2.91997C0.813668 2.88776 0.827046 2.85556 0.84083 2.82238C1.06491 2.29896 1.36703 1.86415 1.75 1.44536C1.77799 1.41414 1.80599 1.38292 1.83483 1.35075C2.25239 0.908077 2.76068 0.59747 3.3125 0.351607C3.35369 0.332774 3.39488 0.313942 3.43731 0.294539C4.15491 -0.00828337 4.90903 -0.0273998 5.67592 -0.0246179Z" fill="white"/>
<path d="M1.66272 13.0119C1.85327 13.1295 1.97769 13.2668 2.0625 13.4765C2.08432 13.6117 2.08429 13.7447 2.08356 13.8815C2.08402 13.9203 2.08448 13.959 2.08495 13.999C2.08632 14.1227 2.08669 14.2464 2.08691 14.3701C2.09312 15.5466 2.16499 16.6337 3.0217 17.5224C3.7239 18.2153 4.63545 18.4046 5.58819 18.4025C5.67064 18.403 5.75309 18.4036 5.83554 18.4043C5.96352 18.4051 6.09145 18.4057 6.21943 18.4052C6.34434 18.4049 6.46916 18.406 6.59405 18.4074C6.6319 18.4069 6.66975 18.4064 6.70875 18.4059C6.98715 18.4109 7.16404 18.4901 7.375 18.6718C7.55408 18.8815 7.55962 19.0855 7.55124 19.3572C7.51281 19.6166 7.39434 19.7706 7.18834 19.9251C6.97285 20.0449 6.73445 20.0222 6.49441 20.0207C6.4429 20.0208 6.39138 20.021 6.3383 20.0211C6.22919 20.0214 6.1201 20.021 6.01099 20.0203C5.87357 20.0194 5.73621 20.0199 5.5988 20.0208C4.85066 20.025 4.11514 20.0002 3.41748 19.6996C3.38545 19.6863 3.35342 19.6729 3.32042 19.6591C2.79818 19.4343 2.36354 19.1324 1.94531 18.7499C1.91409 18.7219 1.88287 18.6939 1.85071 18.6651C1.40824 18.2477 1.09686 17.7393 0.851561 17.1874C0.832728 17.1458 0.813896 17.1042 0.794493 17.0612C0.494868 16.3449 0.472619 15.6137 0.475336 14.8493C0.475794 14.7094 0.474451 14.5695 0.472653 14.4295C0.471497 14.3202 0.471434 14.2109 0.471677 14.1016C0.471619 14.0252 0.470542 13.9489 0.469437 13.8725C0.472671 13.5611 0.521337 13.3578 0.734373 13.1249C0.987221 12.909 1.35609 12.8893 1.66272 13.0119Z" fill="white"/>
<path d="M20.1002 13.0119C20.2898 13.1289 20.4215 13.2647 20.5 13.4765C20.5231 13.6529 20.5219 13.8279 20.5208 14.0055C20.5209 14.057 20.5211 14.1086 20.5212 14.1616C20.5214 14.2707 20.5211 14.3798 20.5204 14.489C20.5195 14.6264 20.52 14.7637 20.5209 14.9011C20.5251 15.6493 20.5002 16.3848 20.1997 17.0825C20.1863 17.1145 20.173 17.1465 20.1592 17.1795C19.9344 17.7018 19.6324 18.1364 19.25 18.5546C19.222 18.5858 19.194 18.6171 19.1652 18.6492C18.7476 19.0919 18.2393 19.4025 17.6875 19.6484C17.6257 19.6766 17.6257 19.6766 17.5627 19.7054C16.8478 20.0071 16.1036 20.0255 15.3386 20.0203C15.2033 20.0194 15.0681 20.0199 14.9329 20.0209C14.8019 20.0216 14.6709 20.0211 14.5399 20.0207C14.4919 20.021 14.4438 20.0213 14.3943 20.0216C14.1195 20.0187 13.9362 19.9929 13.7031 19.8437C13.5248 19.6607 13.4574 19.4798 13.4541 19.226C13.4592 18.9518 13.5235 18.7707 13.7202 18.579C13.9521 18.432 14.1459 18.4255 14.4143 18.424C14.4533 18.4234 14.4923 18.4229 14.5325 18.4223C14.6572 18.4205 14.782 18.4191 14.9067 18.4179C16.0614 18.4064 17.1513 18.3311 18.0204 17.4823C18.7146 16.7548 18.8983 15.8535 18.9026 14.8774C18.9031 14.7969 18.9037 14.7163 18.9043 14.6358C18.9052 14.5111 18.9058 14.3864 18.9053 14.2617C18.9049 14.1397 18.9061 14.0179 18.9074 13.896C18.907 13.8591 18.9065 13.8222 18.906 13.7842C18.911 13.509 18.9929 13.3337 19.1719 13.1249C19.4247 12.909 19.7936 12.8893 20.1002 13.0119Z" fill="white"/>
<path d="M14.2441 -0.011243C14.2893 -0.0117414 14.3345 -0.0122399 14.381 -0.0127534C14.4297 -0.0128403 14.4783 -0.0129273 14.5285 -0.0130168C14.5792 -0.0132769 14.63 -0.0135369 14.6823 -0.0138048C14.79 -0.0142724 14.8978 -0.0144174 15.0055 -0.0143711C15.1144 -0.0143648 15.2233 -0.0148971 15.3322 -0.0159732C16.1047 -0.0234901 16.8614 -0.0102357 17.5825 0.300399C17.6145 0.313777 17.6466 0.327156 17.6796 0.340939C18.2018 0.565731 18.6365 0.867657 19.0547 1.25011C19.1015 1.2921 19.1015 1.2921 19.1493 1.33494C19.5918 1.75231 19.9031 2.26075 20.1484 2.81261C20.1767 2.87507 20.1767 2.87507 20.2055 2.9388C20.5037 3.65183 20.5254 4.37556 20.5204 5.13617C20.5195 5.27411 20.52 5.41201 20.5209 5.54995C20.5216 5.68339 20.5211 5.81682 20.5207 5.95027C20.5211 5.9993 20.5214 6.04834 20.5217 6.09886C20.5187 6.37597 20.4948 6.56221 20.3437 6.79698C20.1607 6.97531 19.9798 7.04268 19.7261 7.046C19.4518 7.04094 19.2708 6.97659 19.0791 6.77989C18.9339 6.55095 18.9256 6.36066 18.9241 6.09569C18.9235 6.05765 18.9229 6.01962 18.9223 5.98044C18.9205 5.85874 18.9192 5.73704 18.918 5.61534C18.9056 4.41511 18.8197 3.30795 17.9219 2.42198C17.2139 1.7768 16.3495 1.5989 15.419 1.5948C15.3381 1.5939 15.2573 1.59295 15.1764 1.59198C15.0509 1.5906 14.9255 1.58946 14.8 1.58894C14.6775 1.58833 14.5551 1.58676 14.4326 1.58504C14.3768 1.58515 14.3768 1.58515 14.3199 1.58526C14.0332 1.58004 13.8141 1.52021 13.6103 1.31114C13.4532 1.06334 13.4385 0.835001 13.4687 0.546981C13.5314 0.337459 13.634 0.196403 13.8203 0.0782307C13.9666 0.00913715 14.0828 -0.0100279 14.2441 -0.011243Z" fill="white"/>
</g>
<defs>
<clipPath id="clip0_224_470">
<rect width="20" height="20" fill="white" transform="translate(0.5)"/>
</clipPath>
</defs>
</svg>
