<svg width="192" height="226" viewBox="0 0 192 226" fill="none" xmlns="http://www.w3.org/2000/svg">
<path d="M95.7508 40.5353C101.864 44.3664 107.065 49.4369 111.704 54.9301C114.8 57.5107 117.025 58.2266 120.849 59.4009C131.225 62.6014 138.563 69.1167 144.896 77.894C146.691 81.4163 148.077 84.9546 149.232 88.7325C149.437 89.3975 149.642 90.0625 149.854 90.7477C152.387 103.484 149.956 115.249 143.152 126.231C136.867 134.866 129.437 140.597 118.884 142.925C112.832 143.412 106.798 143.41 100.73 143.395C98.9688 143.4 97.2079 143.405 95.447 143.412C91.7703 143.421 88.0938 143.419 84.417 143.408C79.7268 143.396 75.0375 143.418 70.3475 143.449C66.7154 143.469 63.0836 143.469 59.4514 143.463C57.7231 143.462 55.9947 143.469 54.2664 143.482C41.3446 143.569 32.0197 142.153 22.2611 133.094C19.0535 129.751 16.3532 126.157 13.7513 122.332C13.1254 121.46 12.4994 120.588 11.8545 119.69C6.2805 108.263 7.23447 95.1005 11.2322 83.3598C15.8341 72.785 24.9851 64.1525 35.3562 59.2612C37.701 58.3437 40.0391 57.7365 42.4731 57.0978C47.87 55.4223 50.3863 52.0632 53.8831 47.7877C64.021 36.365 82.2182 34.2201 95.7508 40.5353ZM63.0153 64.0793C60.8397 66.6935 58.4597 69.0221 56.0212 71.391C55.6635 71.7486 55.3058 72.1063 54.9373 72.4748C52.771 72.7134 50.603 72.9363 48.4343 73.1522C39.3013 74.4956 34.2388 78.438 28.4509 85.4132C24.1451 93.8525 23.6748 101.906 26.5203 110.926C28.0992 114.195 30.0357 116.572 32.4476 119.283C33.2579 120.215 34.0683 121.147 34.9032 122.107C39.7534 126.416 44.866 126.939 51.1838 126.965C52.5693 126.975 53.9548 126.985 55.3822 126.996C56.8809 126.996 58.3795 126.995 59.8781 126.993C61.4302 126.997 62.9822 127.002 64.5342 127.007C67.7802 127.015 71.0261 127.015 74.2721 127.009C78.4169 127.003 82.5612 127.021 86.706 127.046C89.9093 127.062 93.1125 127.063 96.3159 127.06C97.8434 127.06 99.3709 127.066 100.898 127.077C111.587 127.144 119.533 126.866 127.555 119.08C128.497 116.772 128.497 116.772 128.639 114.745C129.354 114.745 130.069 114.745 130.806 114.745C133.082 110.095 133.336 105.807 133.313 100.722C133.33 99.9743 133.348 99.2261 133.366 98.4553C133.373 91.1512 130.724 85.9056 125.921 80.4766C120.927 75.8493 115.478 74.5052 108.859 73.6264C102.959 72.7741 102.959 72.7741 99.9168 70.0362C99.3803 69.0526 98.8438 68.069 98.291 67.0556C93.1151 59.0824 93.1151 59.0824 85.2849 54.0495C74.8718 52.5717 69.4426 56.2143 63.0153 64.0793Z" fill="white" fill-opacity="0.3"/>
<path d="M158.986 32.3727C167.818 40.5461 173.845 50.1012 179.579 60.5526C180.127 61.539 180.675 62.5254 181.239 63.5417C193.598 86.9782 194.502 118.799 186.848 143.962C184.117 151.858 180.674 160.218 174.16 165.685C170.257 166.336 168.439 166.179 165.083 164.06C162.582 160.212 162.455 157.057 163.322 152.679C164.52 149.661 165.898 146.778 167.323 143.86C175.603 125.741 176.028 99.4314 169.304 80.8239C159.821 56.2638 143.686 36.2746 119.278 25.1584C115.218 23.4545 111.138 21.8454 106.962 20.4504C105.651 20.0068 105.651 20.0068 104.314 19.5542C96.2766 17.0803 88.7776 16.7425 80.4076 16.8602C79.1656 16.8567 77.9235 16.8532 76.6438 16.8496C51.5434 17.0067 31.4636 27.0384 13.1035 43.588C10.0918 45.6594 8.65962 45.9055 5.08052 45.3788C1.63396 43.0501 0.863298 41.602 0 37.521C1.40964 29.832 7.16852 25.4349 13.2771 20.9924C61.1268 -10.7388 116.222 -6.14233 158.986 32.3727Z" fill="white" fill-opacity="0.3"/>
<path d="M23.5059 188.446C26.1689 189.915 26.1689 189.915 28.7219 191.901C49.8271 207.418 72.83 209.235 98.2911 206.871C106.489 205.4 113.573 202.236 120.726 198.014C124.893 195.706 127.199 195.325 131.89 196.033C135.214 198.249 136.044 199.608 136.971 203.484C136.085 207.512 134.506 209.264 131.255 211.744C125.638 215.244 119.673 217.667 113.465 219.878C112.722 220.145 111.978 220.413 111.213 220.689C84.5696 229.896 56.9361 226.675 31.8919 214.556C24.2574 210.661 15.9849 205.803 11.5836 198.201C11.5836 194.65 12.4098 193.135 14.4964 190.275C17.7797 187.879 19.4999 188.059 23.5059 188.446Z" fill="white" fill-opacity="0.3"/>
<path d="M62.3211 155.592C65.9902 157.103 67.377 158.493 70.0434 161.35C73.0126 164.506 74.2035 165.607 78.4432 166.972C85.1393 166.593 88.4182 162.793 92.8719 158.098C93.5872 157.383 94.3026 156.668 95.0396 155.931C98.2858 156.138 100.731 156.555 103.575 158.166C105.587 161.631 105.443 165.104 104.794 168.937C101.153 176.079 95.3319 181.053 87.7363 183.556C79.4286 185.436 72.4636 184.61 65.018 180.465C60.4005 177.181 56.4007 172.947 53.8535 167.853C53.2652 163.44 53.5079 161.828 56.1567 158.166C59.2728 155.931 59.2728 155.931 62.3211 155.592Z" fill="white" fill-opacity="0.3"/>
<path d="M80.0013 74.7102C83.1174 75.7263 83.1174 75.7263 85.2851 78.9779C85.4968 81.9034 85.4968 81.9034 85.4206 85.1422C85.401 86.2194 85.3814 87.2966 85.3613 88.4065C85.3361 89.2294 85.311 90.0523 85.2851 90.9002C86.0954 90.8499 86.9058 90.7996 87.7407 90.7477C96.4394 90.4289 96.4394 90.4289 100.188 92.7291C101.543 95.2355 101.543 95.2355 101.475 98.0129C100.366 100.895 99.6545 102.055 97.2074 103.906C94.2818 104.224 94.2818 104.224 91.043 104.109C89.4272 104.065 89.4272 104.065 87.7788 104.021C86.9558 103.983 86.1329 103.945 85.2851 103.906C85.3354 104.717 85.3857 105.527 85.4375 106.362C85.7569 115.077 85.7569 115.077 83.4561 118.741C80.4411 120.453 78.9356 120.862 75.5305 120.164C73.1025 117.69 72.3256 116.274 71.9614 112.797C71.9991 111.741 72.0369 110.685 72.0757 109.596C72.1051 108.529 72.1344 107.462 72.1646 106.362C72.2024 105.552 72.2401 104.741 72.279 103.906C71.0634 103.963 71.0634 103.963 69.8234 104.021C68.756 104.05 67.6885 104.079 66.5888 104.109C65.5325 104.147 64.4763 104.185 63.388 104.224C59.9012 103.859 58.4777 103.123 56.0213 100.655C55.5321 97.3001 55.3108 95.1955 57.2576 92.3354C60.1784 90.2552 62.4413 90.5828 65.9791 90.6969C67.1569 90.7263 68.3347 90.7556 69.5482 90.7858C70.8999 90.8424 70.8999 90.8424 72.279 90.9002C72.2287 90.0898 72.1784 89.2795 72.1265 88.4446C71.8088 79.7736 71.8088 79.7736 74.0402 75.9973C76.6143 74.6425 76.6143 74.6425 80.0013 74.7102Z" fill="white" fill-opacity="0.3"/>
</svg>
