<svg width="21" height="20" viewBox="0 0 21 20" fill="none" xmlns="http://www.w3.org/2000/svg">
<g clip-path="url(#clip0_50_760)">
<path d="M9.1875 11.0938C9.36155 11.0938 9.52847 11.0279 9.65154 10.9107C9.77461 10.7935 9.84375 10.6345 9.84375 10.4688C9.84375 10.303 9.77461 10.144 9.65154 10.0268C9.52847 9.9096 9.36155 9.84375 9.1875 9.84375C8.54385 9.85238 7.90603 9.72661 7.31889 9.47529C7.98511 8.77815 8.46843 7.94059 8.72924 7.03125H9.1875C9.36155 7.03125 9.52847 6.9654 9.65154 6.84819C9.77461 6.73098 9.84375 6.57201 9.84375 6.40625C9.84375 6.24049 9.77461 6.08152 9.65154 5.96431C9.52847 5.8471 9.36155 5.78125 9.1875 5.78125H6.89062V5.15625C6.89062 4.99049 6.82148 4.83152 6.69841 4.71431C6.57534 4.5971 6.40842 4.53125 6.23438 4.53125C6.06033 4.53125 5.89341 4.5971 5.77034 4.71431C5.64727 4.83152 5.57812 4.99049 5.57812 5.15625V5.78125H3.28125C3.1072 5.78125 2.94028 5.8471 2.81721 5.96431C2.69414 6.08152 2.625 6.24049 2.625 6.40625C2.625 6.57201 2.69414 6.73098 2.81721 6.84819C2.94028 6.9654 3.1072 7.03125 3.28125 7.03125H7.34869C7.11572 7.67528 6.73644 8.26243 6.23788 8.75084C5.91018 8.43574 5.63496 8.07481 5.42175 7.68053C5.38211 7.60755 5.32774 7.54273 5.26175 7.48979C5.19577 7.43685 5.11948 7.39681 5.03724 7.37198C4.95499 7.34716 4.86841 7.33802 4.78246 7.34509C4.6965 7.35217 4.61285 7.37531 4.5363 7.41321C4.45975 7.45111 4.3918 7.50301 4.33633 7.56595C4.28086 7.62889 4.23898 7.70163 4.21306 7.78C4.18714 7.85838 4.17771 7.94085 4.1853 8.0227C4.19289 8.10455 4.21736 8.18417 4.25729 8.257C4.49586 8.69851 4.79307 9.10896 5.14159 9.47825C4.55705 9.72833 3.92198 9.8531 3.28125 9.84375C3.1072 9.84375 2.94028 9.9096 2.81721 10.0268C2.69414 10.144 2.625 10.303 2.625 10.4688C2.625 10.6345 2.69414 10.7935 2.81721 10.9107C2.94028 11.0279 3.1072 11.0938 3.28125 11.0938C4.31708 11.1125 5.33734 10.8518 6.22426 10.3419C7.11687 10.8557 8.14478 11.1165 9.1875 11.0938Z" fill="black"/>
<path d="M20.3438 6.40625H13.7812C13.6072 6.40625 13.4403 6.4721 13.3172 6.58931C13.1941 6.70652 13.125 6.86549 13.125 7.03125C13.125 7.19701 13.1941 7.35598 13.3172 7.47319C13.4403 7.5904 13.6072 7.65625 13.7812 7.65625H19.6875V16.7188H10.3183L12.3822 13.2788C12.4351 13.1829 12.4647 13.077 12.4688 12.9688V2.65625C12.4687 2.49049 12.3996 2.33153 12.2765 2.21432C12.1535 2.09711 11.9865 2.03126 11.8125 2.03125H0.65625C0.482204 2.03126 0.31529 2.09711 0.192221 2.21432C0.0691519 2.33153 8.70163e-06 2.49049 0 2.65625L0 12.9688C8.70163e-06 13.1345 0.0691519 13.2935 0.192221 13.4107C0.31529 13.5279 0.482204 13.5937 0.65625 13.5938H8.53125V17.3438C8.53398 17.5088 8.60407 17.6663 8.72668 17.783C8.84929 17.8997 9.01478 17.9663 9.18808 17.9688H20.3438C20.5178 17.9687 20.6847 17.9029 20.8078 17.7857C20.9308 17.6685 21 17.5095 21 17.3438V7.03125C21 6.86549 20.9308 6.70653 20.8078 6.58932C20.6847 6.47211 20.5178 6.40626 20.3438 6.40625ZM1.3125 3.28125H11.1562V12.3438H1.3125V3.28125ZM10.6817 13.5938L9.84375 14.9904V13.5938H10.6817Z" fill="black"/>
<path d="M13.7812 12.6562V14.8438C13.7812 15.0095 13.8504 15.1685 13.9735 15.2857C14.0965 15.4029 14.2635 15.4688 14.4375 15.4688C14.6115 15.4688 14.7785 15.4029 14.9015 15.2857C15.0246 15.1685 15.0938 15.0095 15.0938 14.8438V14.2188H17.0625V14.8438C17.0625 15.0095 17.1316 15.1685 17.2547 15.2857C17.3778 15.4029 17.5447 15.4688 17.7188 15.4688C17.8928 15.4688 18.0597 15.4029 18.1828 15.2857C18.3059 15.1685 18.375 15.0095 18.375 14.8438V12.6562C18.375 12.0761 18.133 11.5197 17.7023 11.1095C17.2715 10.6992 16.6873 10.4687 16.0781 10.4688C15.469 10.4687 14.8847 10.6992 14.454 11.1095C14.0232 11.5197 13.7812 12.0761 13.7812 12.6562ZM16.0781 11.7188C16.3391 11.719 16.5893 11.8179 16.7739 11.9936C16.9584 12.1694 17.0622 12.4077 17.0625 12.6562V12.9688H15.0938V12.6562C15.094 12.4077 15.1978 12.1694 15.3824 11.9936C15.5669 11.8179 15.8171 11.719 16.0781 11.7188Z" fill="black"/>
<path d="M16.0781 9.84375C16.4406 9.84375 16.7344 9.56393 16.7344 9.21875C16.7344 8.87357 16.4406 8.59375 16.0781 8.59375C15.7157 8.59375 15.4219 8.87357 15.4219 9.21875C15.4219 9.56393 15.7157 9.84375 16.0781 9.84375Z" fill="black"/>
</g>
<defs>
<clipPath id="clip0_50_760">
<rect width="21" height="20" fill="white"/>
</clipPath>
</defs>
</svg>
