<?xml version="1.0" standalone="no"?>
<!DOCTYPE svg PUBLIC "-//W3C//DTD SVG 20010904//EN"
 "http://www.w3.org/TR/2001/REC-SVG-20010904/DTD/svg10.dtd">
<svg version="1.0" xmlns="http://www.w3.org/2000/svg"
 width="512.000000pt" height="512.000000pt" viewBox="0 0 512.000000 512.000000"
 preserveAspectRatio="xMidYMid meet">

<g transform="translate(0.000000,512.000000) scale(0.100000,-0.100000)"
fill="#000000" stroke="none">
<path d="M1586 4949 c-62 -15 -153 -68 -197 -116 -22 -24 -55 -74 -72 -111
-30 -63 -32 -75 -35 -209 -4 -141 -4 -142 21 -167 34 -34 80 -34 112 -1 24 23
25 31 25 136 0 61 5 130 12 153 16 55 99 138 154 154 59 17 1529 17 1588 0 55
-16 138 -99 154 -154 9 -31 12 -266 12 -953 l0 -912 25 -24 c32 -33 78 -33
110 0 25 24 25 27 26 192 l0 168 446 -450 c396 -400 449 -457 477 -515 l31
-65 5 -938 5 -939 24 -19 c32 -26 77 -24 106 6 l25 24 0 922 c0 1013 2 975
-62 1103 -26 52 -104 135 -544 576 l-513 515 -3 666 -3 665 -37 76 c-45 91
-103 147 -196 191 l-67 32 -795 2 c-459 1 -811 -3 -834 -8z"/>
<path d="M2105 4615 c-16 -15 -25 -36 -25 -55 0 -19 9 -40 25 -55 l24 -25 271
0 271 0 24 25 c16 15 25 36 25 55 0 19 -9 40 -25 55 l-24 25 -271 0 -271 0
-24 -25z"/>
<path d="M1228 4150 c-88 -16 -163 -42 -253 -88 -123 -63 -262 -199 -322 -317
-102 -199 -117 -382 -52 -631 76 -290 306 -690 614 -1065 137 -168 151 -169
277 -17 321 388 545 778 630 1098 27 100 31 133 32 250 1 156 -16 227 -86 363
-44 84 -146 202 -226 261 -67 49 -176 102 -263 126 -83 24 -273 35 -351 20z
m337 -185 c171 -57 293 -162 369 -316 61 -122 76 -215 58 -355 -26 -209 -150
-489 -345 -780 -112 -169 -273 -384 -287 -384 -14 0 -176 216 -285 380 -243
364 -365 678 -352 905 16 281 212 504 502 571 93 21 242 12 340 -21z"/>
<path d="M1266 3750 c-63 -16 -153 -70 -197 -117 -22 -24 -55 -74 -72 -111
-29 -61 -32 -76 -32 -163 0 -90 2 -99 37 -171 45 -91 103 -147 196 -191 61
-29 76 -32 162 -32 86 0 101 3 162 32 93 44 151 100 196 191 35 72 37 81 37
172 0 91 -2 100 -37 172 -68 136 -188 217 -336 224 -42 2 -94 -1 -116 -6z
m168 -162 c86 -26 166 -136 166 -228 0 -92 -80 -202 -166 -228 -94 -28 -169
-8 -239 63 -102 101 -102 229 0 330 70 71 145 90 239 63z"/>
<path d="M3030 2878 c-18 -13 -57 -54 -86 -91 -123 -163 -168 -330 -129 -482
29 -109 59 -150 272 -365 l202 -205 -24 -77 c-33 -105 -41 -213 -21 -313 31
-155 142 -335 208 -335 41 0 63 14 78 49 14 34 10 44 -53 135 -98 143 -110
331 -33 484 14 28 26 61 26 73 0 15 -69 92 -224 248 -243 246 -274 288 -283
391 -6 68 15 152 58 225 60 102 21 124 361 -207 607 -590 583 -568 618 -568
41 0 80 39 80 80 0 38 22 14 -455 475 -192 186 -386 374 -430 416 -93 90 -116
100 -165 67z"/>
<path d="M1303 1734 c-25 -25 -25 -26 -22 -168 4 -141 5 -143 41 -218 45 -91
103 -147 196 -191 l67 -32 743 -3 742 -3 25 25 c33 33 33 79 0 111 l-24 25
-712 0 c-530 0 -722 3 -753 12 -55 16 -138 99 -154 154 -7 23 -12 92 -12 153
0 105 -1 113 -25 136 -32 33 -78 33 -112 -1z"/>
<path d="M2265 1575 c-16 -15 -25 -36 -25 -55 0 -19 9 -40 25 -55 23 -24 31
-25 135 -25 104 0 112 1 135 25 16 15 25 36 25 55 0 19 -9 40 -25 55 -23 24
-31 25 -135 25 -104 0 -112 -1 -135 -25z"/>
<path d="M2839 1011 c-17 -13 -23 -29 -23 -56 0 -34 7 -44 55 -87 29 -27 80
-65 112 -84 l57 -35 0 -270 0 -270 25 -24 c32 -33 78 -33 110 0 l25 24 0 306
c0 187 -4 314 -10 325 -6 11 -41 35 -78 55 -37 19 -93 58 -125 85 -65 56 -107
65 -148 31z"/>
</g>
</svg>
