<svg width="97" height="97" viewBox="0 0 97 97" fill="none" xmlns="http://www.w3.org/2000/svg">
<g clip-path="url(#clip0_113_405)">
<path d="M7.2817 -0.0253787C7.53394 -0.0266455 7.53394 -0.0266455 7.79127 -0.027938C7.97523 -0.027903 8.15919 -0.0278681 8.34872 -0.0278321C8.54477 -0.0285287 8.74083 -0.0292252 8.94282 -0.0299429C9.60191 -0.0320347 10.261 -0.0327623 10.9201 -0.0334837C11.3918 -0.0346705 11.8636 -0.0359298 12.3354 -0.0372562C13.7529 -0.0408998 15.1705 -0.0429077 16.588 -0.0445933C17.2564 -0.0454244 17.9247 -0.046441 18.5931 -0.047433C20.8163 -0.0506563 23.0396 -0.0534018 25.2629 -0.0547741C25.8397 -0.0551359 26.4165 -0.0554997 26.9933 -0.0558702C27.2084 -0.0560077 27.2084 -0.0560077 27.4277 -0.056148C29.7469 -0.0577184 32.066 -0.062515 34.3851 -0.0686736C36.7688 -0.0749517 39.1524 -0.0783525 41.5361 -0.0789567C42.8733 -0.0793658 44.2105 -0.081007 45.5477 -0.0858644C46.807 -0.090428 48.0662 -0.0910726 49.3255 -0.0891303C49.7863 -0.0890367 50.2471 -0.0902271 50.7079 -0.0928352C54.8154 -0.114772 58.0284 0.388462 61.1341 3.3399C64.4325 6.72186 64.8848 10.3946 64.8484 14.9121C64.8474 15.3033 64.8466 15.6946 64.846 16.0858C64.8439 17.1067 64.8383 18.1276 64.832 19.1486C64.8261 20.1939 64.8235 21.2392 64.8207 22.2845C64.8146 24.329 64.8049 26.3735 64.7929 28.418C64.6758 28.4187 64.5587 28.4194 64.4381 28.4201C63.2053 28.4281 61.9727 28.4413 60.74 28.4573C60.2816 28.4626 59.8232 28.4667 59.3648 28.4694C54.9518 28.4967 51.1627 28.937 47.8805 32.2026C45.6612 34.562 44.5913 37.802 44.6517 41.0056C44.9384 44.2698 46.2999 47.3459 48.8167 49.5021C52.3604 52.1748 55.9524 52.4049 60.2461 52.4312C60.6886 52.4365 61.1312 52.4422 61.5737 52.4482C62.6468 52.4621 63.7198 52.4719 64.7929 52.4786C64.8107 55.2422 64.824 58.0058 64.8322 60.7695C64.8361 62.053 64.8414 63.3365 64.8501 64.62C64.8585 65.8607 64.8629 67.1014 64.8648 68.3421C64.8662 68.8134 64.8689 69.2847 64.8731 69.7559C64.9093 74.0744 64.5366 78.0041 61.4049 81.2776C59.0272 83.6634 56.1585 84.9298 52.7867 84.941C52.3378 84.9394 51.889 84.935 51.4402 84.9305C51.1246 84.9295 50.809 84.9287 50.4934 84.9281C49.6696 84.926 48.8459 84.9204 48.0221 84.9141C47.1787 84.9082 46.3354 84.9057 45.492 84.9028C43.8423 84.8967 42.1926 84.8871 40.5429 84.875C40.5474 85.0911 40.5474 85.0911 40.552 85.3115C40.5639 85.9752 40.5712 86.6387 40.5785 87.3024C40.5832 87.5289 40.588 87.7554 40.5929 87.9888C40.614 90.5671 40.0011 92.8399 38.2421 94.7843C36.2586 96.5966 34.0864 97.1698 31.4747 97.09C29.8234 96.9775 28.3086 96.4085 26.761 95.8581C26.4083 95.7374 26.0555 95.6173 25.7024 95.4977C24.9619 95.2461 24.2224 94.9919 23.4835 94.7356C22.3688 94.3505 21.2499 93.9789 20.1293 93.6113C19.9452 93.5509 19.7611 93.4905 19.5714 93.4282C19.1991 93.3061 18.8268 93.1841 18.4546 93.062C17.3408 92.6961 16.2285 92.3258 15.116 91.9561C14.1726 91.6426 13.229 91.3297 12.285 91.0182C11.3453 90.708 10.406 90.3965 9.4671 90.084C9.11613 89.9674 8.76501 89.8513 8.41371 89.7358C5.09862 88.6444 2.45293 87.6837 0.646041 84.5013C0.1431 83.4216 -0.0473889 82.439 -0.0487648 81.2519C-0.049429 81.1221 -0.0500932 80.9922 -0.0507775 80.8585C-0.0525358 80.4249 -0.0516114 79.9913 -0.0506894 79.5576C-0.0513975 79.243 -0.0522691 78.9285 -0.0532904 78.6139C-0.055607 77.7504 -0.0555577 76.8869 -0.0551109 76.0234C-0.0550335 75.0918 -0.0571257 74.1601 -0.0589224 73.2284C-0.0620692 71.4035 -0.063111 69.5785 -0.0633223 67.7535C-0.0635023 66.27 -0.0642812 64.7865 -0.0654824 63.3029C-0.0688192 59.0963 -0.0705668 54.8897 -0.0702826 50.6831C-0.0702675 50.4564 -0.0702527 50.2296 -0.0702371 49.996C-0.0702216 49.7689 -0.0702061 49.5419 -0.0701901 49.308C-0.0700361 45.6286 -0.0736618 41.9493 -0.0790043 38.27C-0.0844472 34.4916 -0.0870631 30.7131 -0.0867358 26.9347C-0.08661 24.8136 -0.0876502 22.6925 -0.0917289 20.5714C-0.0951795 18.7655 -0.0960031 16.9595 -0.0934309 15.1536C-0.092194 14.2324 -0.0921707 13.3113 -0.0954588 12.3902C-0.0984407 11.5461 -0.0978953 10.7022 -0.0945938 9.85819C-0.0940125 9.55361 -0.0946986 9.24903 -0.0968139 8.94446C-0.115304 6.09222 0.453448 4.17636 2.43326 2.09588C3.73358 0.85951 5.46477 -0.0211336 7.2817 -0.0253787Z" fill="#63B4F6"/>
<path d="M9.09375 -3.7089e-05C14.8652 -0.0173502 20.6366 -0.0307489 26.4081 -0.038735C27.0905 -0.0396828 27.7729 -0.0406636 28.4553 -0.041665C28.6591 -0.0419631 28.6591 -0.0419631 28.867 -0.0422673C31.0624 -0.0455587 33.2579 -0.0515303 35.4533 -0.0585044C37.7085 -0.0656082 39.9636 -0.069804 42.2188 -0.0713385C43.4845 -0.0722822 44.7501 -0.0746339 46.0158 -0.0801606C47.2085 -0.0853263 48.4011 -0.0868866 49.5939 -0.0857515C50.0302 -0.085959 50.4666 -0.0874531 50.903 -0.0903725C54.9313 -0.115988 58.0941 0.450789 61.1342 3.33981C64.4325 6.72178 64.8849 10.3945 64.8485 14.912C64.8474 15.3032 64.8466 15.6945 64.846 16.0857C64.8439 17.1066 64.8383 18.1275 64.832 19.1485C64.8261 20.1938 64.8236 21.2391 64.8207 22.2844C64.8147 24.3289 64.805 26.3734 64.793 28.4179C64.6759 28.4186 64.5588 28.4193 64.4381 28.42C63.2053 28.428 61.9727 28.4412 60.74 28.4572C60.2816 28.4626 59.8232 28.4666 59.3648 28.4693C54.9518 28.4966 51.1628 28.9369 47.8806 32.2026C45.6612 34.5619 44.5914 37.8019 44.6517 41.0055C44.9384 44.2697 46.2999 47.3458 48.8167 49.502C52.3604 52.1747 55.9524 52.4048 60.2461 52.4311C60.6886 52.4365 61.1312 52.4421 61.5737 52.4481C62.6468 52.462 63.7198 52.4719 64.793 52.4785C64.8108 55.2421 64.8241 58.0057 64.8322 60.7694C64.8361 62.0529 64.8414 63.3364 64.8501 64.6199C64.8586 65.8606 64.8629 67.1013 64.8649 68.342C64.8663 68.8133 64.869 69.2846 64.8731 69.7558C64.9093 74.0743 64.5366 78.0041 61.4049 81.2775C59.0182 83.6723 56.1464 84.9298 52.7637 84.9409C52.3087 84.9393 51.8538 84.9349 51.3988 84.9305C51.0789 84.9294 50.7591 84.9286 50.4393 84.928C49.6042 84.9259 48.7693 84.9203 47.9343 84.914C47.0795 84.9081 46.2247 84.9056 45.37 84.9027C43.6978 84.8966 42.0257 84.887 40.3535 84.875C40.3533 84.7274 40.3531 84.5798 40.353 84.4277C40.3419 75.679 40.3279 66.9303 40.3101 58.1816C40.308 57.1311 40.3059 56.0806 40.3038 55.0301C40.3032 54.7164 40.3032 54.7164 40.3025 54.3963C40.2958 51.0102 40.2911 47.6241 40.2871 44.2379C40.283 40.7633 40.2768 37.2887 40.2685 33.8141C40.2635 31.6702 40.2601 29.5263 40.2589 27.3824C40.2579 25.9121 40.2548 24.4418 40.2501 22.9716C40.2475 22.1234 40.2457 21.2752 40.2465 20.427C40.2471 19.6498 40.2451 18.8726 40.2411 18.0954C40.2401 17.8149 40.2401 17.5344 40.2411 17.2539C40.2494 14.6924 39.858 12.4909 38.0594 10.559C36.5344 9.13924 34.798 8.53096 32.8498 7.88697C32.614 7.80801 32.3781 7.72905 32.1351 7.6477C31.4923 7.43256 30.8491 7.21884 30.2057 7.00543C29.5299 6.78105 28.8545 6.55549 28.179 6.33011C27.0449 5.95191 25.9105 5.57463 24.7759 5.1979C23.4676 4.76346 22.1597 4.3276 20.852 3.89098C19.5899 3.46958 18.3274 3.04915 17.0648 2.62916C16.5294 2.45105 15.9941 2.27262 15.4589 2.09392C14.7102 1.84399 13.961 1.5955 13.2118 1.34713C12.9918 1.27351 12.7718 1.19989 12.5451 1.12403C11.4017 0.746374 10.2746 0.42632 9.09375 0.189416C9.09375 0.126897 9.09375 0.064377 9.09375 -3.7089e-05Z" fill="#2196F3"/>
<path d="M79.3808 20.8398C80.0182 21.3255 80.5711 21.8782 81.1317 22.4496C81.2952 22.6118 81.4587 22.7739 81.6272 22.9409C82.0712 23.3824 82.5125 23.8263 82.9527 24.2715C83.416 24.7392 83.8823 25.2038 84.3481 25.6689C85.1294 26.4499 85.9084 27.2331 86.686 28.0177C87.5827 28.9224 88.4826 29.8236 89.3845 30.7231C90.2554 31.5919 91.1242 32.4628 91.9919 33.3347C92.3597 33.7043 92.7282 34.0731 93.0973 34.4414C93.6132 34.9565 94.1259 35.4747 94.6384 35.9933C94.8663 36.2198 94.8663 36.2198 95.0989 36.451C96.096 37.4672 96.8828 38.4103 97.0939 39.8636C97.0903 40.0643 97.0866 40.2651 97.0828 40.4719C97.0825 40.7745 97.0825 40.7745 97.0821 41.0832C96.7084 43.7964 93.158 46.3104 91.326 48.1433C90.9956 48.4743 90.6652 48.8053 90.3348 49.1364C89.6455 49.8268 88.9558 50.5169 88.2658 51.2067C87.3826 52.09 86.5006 52.9745 85.619 53.8594C84.9385 54.542 84.2571 55.2237 83.5755 55.9052C83.2499 56.2311 82.9246 56.5572 82.5996 56.8837C82.1458 57.3393 81.6909 57.7937 81.2356 58.2479C81.1024 58.3821 80.9692 58.5163 80.832 58.6547C79.6202 59.8588 78.6566 60.6447 76.8824 60.6842C75.5605 60.668 74.6936 60.4791 73.7453 59.5393C72.3678 57.8843 72.5076 55.8761 72.5235 53.8276C72.5242 53.5582 72.5247 53.2888 72.5251 53.0194C72.5266 52.3158 72.5303 51.6123 72.5345 50.9087C72.5384 50.1886 72.5401 49.4684 72.542 48.7483C72.546 47.3393 72.5525 45.9304 72.5605 44.5215C72.3502 44.5232 72.14 44.5248 71.9234 44.5266C69.9388 44.542 67.9542 44.5533 65.9696 44.5607C64.9493 44.5647 63.9291 44.57 62.9089 44.5786C61.9238 44.5869 60.9386 44.5914 59.9534 44.5934C59.5782 44.5948 59.2029 44.5975 58.8277 44.6016C58.3007 44.6071 57.774 44.6079 57.247 44.6075C57.093 44.6102 56.939 44.613 56.7804 44.6158C55.5375 44.6069 54.5574 44.2498 53.6107 43.4329C53.5262 43.3271 53.4417 43.2214 53.3547 43.1124C53.2673 43.0072 53.1798 42.9019 53.0897 42.7935C52.3884 41.7191 52.318 40.6552 52.4785 39.4062C52.9061 38.0565 53.5326 37.2644 54.7519 36.5644C55.4927 36.3175 56.1954 36.3502 56.9674 36.3535C57.1356 36.3535 57.3039 36.3534 57.4772 36.3534C58.0338 36.3535 58.5904 36.355 59.1471 36.3565C59.5328 36.3568 59.9185 36.3571 60.3042 36.3573C61.3199 36.358 62.3355 36.3599 63.3512 36.362C64.3874 36.3639 65.4237 36.3648 66.4599 36.3657C68.4934 36.3678 70.527 36.371 72.5605 36.375C72.5597 36.2269 72.5588 36.0788 72.5579 35.9261C72.5503 34.5243 72.5446 33.1225 72.5409 31.7206C72.5389 31.0001 72.5362 30.2795 72.5319 29.559C72.5278 28.8625 72.5255 28.166 72.5245 27.4695C72.5239 27.2049 72.5225 26.9403 72.5204 26.6758C72.4921 22.8811 72.4921 22.8811 73.6972 21.4082C75.4129 19.7306 77.3533 19.7769 79.3808 20.8398Z" fill="#5F7C8B"/>
</g>
<defs>
<clipPath id="clip0_113_405">
<rect width="97" height="97" fill="white"/>
</clipPath>
</defs>
</svg>
