<svg width="24" height="25" viewBox="0 0 24 25" fill="none" xmlns="http://www.w3.org/2000/svg">
<path d="M7.86366 1.72554C8.09164 1.92527 8.29397 2.1395 8.48438 2.37501C8.60737 2.25554 8.7172 2.14268 8.8213 2.00587C9.24329 1.49608 9.93124 1.25606 10.5705 1.19123C11.2843 1.15826 11.9614 1.42286 12.4922 1.88868C12.689 2.0708 12.689 2.0708 12.7638 2.19234C12.8372 2.29174 12.8372 2.29174 12.9582 2.30467C13.0039 2.30466 13.0497 2.30465 13.0968 2.30464C13.1494 2.30509 13.2019 2.30554 13.2561 2.306C13.3138 2.30555 13.3715 2.30509 13.431 2.30462C13.4917 2.30488 13.5525 2.30514 13.6151 2.3054C13.7474 2.30596 13.8797 2.30594 14.0119 2.30547C14.2216 2.30474 14.4313 2.30538 14.641 2.30622C15.049 2.30767 15.457 2.30773 15.865 2.30764C16.3826 2.30758 16.9002 2.30807 17.4178 2.30992C17.6257 2.31061 17.8335 2.31061 18.0414 2.31004C18.1401 2.30987 18.2387 2.31002 18.3374 2.31031C18.457 2.31065 18.5765 2.31051 18.696 2.30975C19.5271 2.31463 20.307 2.57764 20.9063 3.17189C21.4687 3.8236 21.7969 4.57998 21.7645 5.44899C21.7258 5.87745 21.6293 6.2585 21.4453 6.6465C21.4323 6.67501 21.4193 6.70352 21.406 6.7329C21.0245 7.48327 20.2021 8.09566 19.6109 8.67443C19.4824 8.80039 19.3545 8.92694 19.2266 9.0536C19.1877 9.09145 19.1487 9.12931 19.1085 9.16831C18.551 9.72331 18.3073 10.3308 18.2997 11.1189C18.2997 11.184 18.2996 11.2492 18.2996 11.3144C18.2989 11.3829 18.2981 11.4514 18.2972 11.5199C18.2952 11.698 18.2942 11.876 18.2935 12.0541C18.2926 12.2367 18.2906 12.4193 18.2888 12.6019C18.2853 12.9586 18.2829 13.3152 18.2813 13.6719C18.3099 13.6712 18.3386 13.6706 18.3682 13.6699C18.406 13.6694 18.4438 13.6689 18.4827 13.6684C18.5201 13.6678 18.5575 13.6671 18.596 13.6665C18.8141 13.6775 18.9497 13.7827 19.1104 13.9209C19.3535 14.2034 19.3787 14.4328 19.3682 14.791C19.3675 14.8322 19.3669 14.8734 19.3663 14.9159C19.3646 15.0169 19.3621 15.1178 19.3594 15.2188C19.3986 15.22 19.4378 15.2212 19.4782 15.2224C20.6628 15.2801 21.7035 15.816 22.5059 16.6862C23.1386 17.44 23.4632 18.3222 23.5313 19.2969C23.534 19.3351 23.5368 19.3733 23.5397 19.4126C23.5767 20.5149 23.1422 21.585 22.4063 22.3906C22.3736 22.4271 22.3409 22.4636 22.3072 22.5012C21.5491 23.3051 20.4962 23.746 19.4 23.8048C18.2333 23.8124 17.1787 23.4611 16.3125 22.6719C16.2795 22.6426 16.2464 22.6134 16.2124 22.5833C15.9731 22.3595 15.7937 22.1018 15.613 21.8305C15.5236 21.6992 15.4291 21.5757 15.3281 21.4531C15.3037 21.494 15.2792 21.5348 15.254 21.5769C14.604 22.6382 13.6936 23.3555 12.4893 23.6896C11.4167 23.9466 10.2696 23.7703 9.31495 23.2214C8.26336 22.5551 7.55849 21.6279 7.27259 20.415C7.12619 19.7343 7.1624 19.0376 7.31251 18.3594C7.27462 18.3724 7.23674 18.3854 7.1977 18.3988C7.14761 18.4157 7.09752 18.4327 7.04591 18.4502C6.99642 18.4671 6.94693 18.4839 6.89594 18.5013C6.23001 18.7093 5.49063 18.6266 4.86329 18.3356C4.41641 18.0905 4.01788 17.7657 3.75001 17.3281C3.75001 17.2972 3.75001 17.2663 3.75001 17.2344C3.71907 17.2499 3.68813 17.2653 3.65626 17.2813C3.0038 17.3421 2.43586 17.1462 1.93653 16.7334C1.53741 16.3635 1.29057 15.8465 1.25977 15.3028C1.25407 15.0765 1.27674 14.8897 1.33595 14.6709C1.36677 14.5432 1.36677 14.5432 1.35938 14.4219C1.2808 14.3162 1.19544 14.252 1.08912 14.1747C0.737583 13.9031 0.5669 13.4347 0.488901 13.0111C0.426822 12.4675 0.513755 11.9674 0.84321 11.5242C0.90395 11.4221 0.90395 11.4221 0.858957 11.3082C0.838473 11.2684 0.817989 11.2285 0.796884 11.1875C0.487858 10.4962 0.355946 9.83851 0.609567 9.09828C0.781919 8.67787 1.0029 8.33564 1.35938 8.04689C1.39032 8.04689 1.42126 8.04689 1.45313 8.04689C1.44353 8.01686 1.43392 7.98682 1.42402 7.95588C1.19661 7.22577 1.20367 6.54959 1.55274 5.85548C1.74031 5.52754 1.97128 5.24242 2.30567 5.05842C2.45426 4.93976 2.47389 4.8722 2.49548 4.68663C2.49859 4.65276 2.50169 4.61889 2.50489 4.584C2.58787 3.97504 2.83618 3.46564 3.32813 3.07814C3.44829 2.99896 3.569 2.92595 3.69544 2.85731C3.88545 2.74413 3.9727 2.60474 4.08399 2.41603C4.48018 1.78727 5.00848 1.44299 5.71876 1.25001C6.46162 1.09631 7.26198 1.25766 7.86366 1.72554ZM4.95722 2.54805C4.93009 2.58376 4.90296 2.61947 4.87501 2.65626C4.94806 2.67085 4.94806 2.67085 5.02259 2.68574C5.56647 2.80248 5.99821 2.9767 6.32557 3.45387C6.41965 3.63088 6.43638 3.79425 6.40138 3.98927C6.38832 4.02552 6.38832 4.02552 6.37501 4.06251C5.98168 4.12807 5.98168 4.12807 5.81251 4.01564C5.74915 3.93269 5.74915 3.93269 5.68946 3.83692C5.49227 3.56305 5.20498 3.4211 4.87501 3.36232C4.48148 3.33619 4.11299 3.45601 3.79688 3.68751C3.55244 3.90877 3.3772 4.16736 3.28126 4.48439C3.28126 4.54626 3.28126 4.60814 3.28126 4.67189C3.33564 4.67309 3.39002 4.6743 3.44605 4.67555C4.22188 4.70044 4.89427 4.87307 5.44612 5.45613C5.82609 5.93089 6.0603 6.54526 6.00001 7.15626C5.95313 7.27638 5.95313 7.27638 5.85938 7.34376C5.69635 7.37297 5.54977 7.38511 5.4062 7.29432C5.31261 7.15764 5.30411 7.00913 5.28224 6.84864C5.20063 6.3539 5.00457 6.01025 4.61225 5.68885C4.19973 5.39679 3.77068 5.37409 3.28126 5.42189C2.84799 5.51419 2.50403 5.80233 2.25587 6.1631C2.04991 6.52512 1.94948 6.94782 2.05464 7.35365C2.14478 7.66731 2.14478 7.66731 2.29688 7.95314C2.35197 8.18133 2.35197 8.18133 2.29688 8.32814C2.18957 8.42546 2.07795 8.50755 1.95849 8.58926C1.57165 8.85565 1.3441 9.19014 1.24384 9.64595C1.17429 10.0859 1.27122 10.4762 1.51447 10.846C1.78045 11.2054 2.12649 11.4809 2.57813 11.5625C2.6718 11.5668 2.76561 11.5686 2.85938 11.5684C2.90772 11.5685 2.95606 11.5686 3.00587 11.5687C3.12275 11.5633 3.21634 11.5467 3.32813 11.5156C3.50901 11.4995 3.61608 11.4915 3.77345 11.5859C3.86227 11.734 3.86504 11.8243 3.83479 11.9921C3.79688 12.0781 3.79688 12.0781 3.64454 12.169C2.88349 12.3846 2.18769 12.2682 1.50001 11.8906C1.27562 12.2873 1.16459 12.59 1.26856 13.042C1.39392 13.4445 1.60906 13.6757 1.96638 13.8911C2.0612 13.9523 2.1326 14.0057 2.20313 14.0938C2.22786 14.341 2.20474 14.4788 2.09748 14.7046C1.97825 15.0192 1.99279 15.3543 2.10298 15.6679C2.28178 16.0483 2.55858 16.328 2.95497 16.4723C3.1849 16.5371 3.42233 16.5663 3.65626 16.5078C3.80251 16.4713 3.92823 16.471 4.07813 16.4844C4.22872 16.6105 4.31978 16.7524 4.41798 16.9209C4.70463 17.378 5.10169 17.6569 5.61915 17.8115C6.17414 17.9261 6.73337 17.8281 7.2129 17.5244C7.27841 17.476 7.34294 17.4262 7.40626 17.375C7.43502 17.3526 7.46378 17.3302 7.49342 17.3071C7.79392 17.0431 8.03008 16.5967 8.10938 16.2031C8.11363 16.1296 8.11552 16.056 8.11568 15.9824C8.11588 15.9379 8.11609 15.8934 8.11631 15.8476C8.1163 15.7989 8.11629 15.7502 8.11628 15.7C8.11646 15.6482 8.11663 15.5963 8.11681 15.5429C8.11732 15.3684 8.1175 15.194 8.11768 15.0196C8.11798 14.8948 8.11829 14.77 8.11862 14.6452C8.11954 14.2702 8.12001 13.8952 8.12043 13.5202C8.12064 13.3435 8.12089 13.1668 8.12113 12.9901C8.12193 12.4025 8.12261 11.8149 8.12295 11.2273C8.12304 11.0748 8.12313 10.9224 8.12322 10.7699C8.12324 10.732 8.12327 10.6941 8.12329 10.6551C8.12368 10.0417 8.12486 9.4282 8.12639 8.81475C8.12794 8.18456 8.12878 7.55438 8.12893 6.92419C8.12903 6.57052 8.12944 6.21685 8.13064 5.86317C8.13166 5.56189 8.13204 5.26062 8.13158 4.95934C8.13137 4.80576 8.13156 4.65219 8.13237 4.49861C8.1332 4.3317 8.13286 4.16483 8.13225 3.99792C8.13276 3.94994 8.13328 3.90196 8.13381 3.85253C8.12892 3.3015 7.93745 2.86302 7.55238 2.47316C7.1757 2.12455 6.72307 1.92182 6.20124 1.93849C5.73033 2.00267 5.26672 2.17719 4.95722 2.54805ZM9.43653 2.48634C8.95602 3.03179 8.852 3.52064 8.85312 4.23558C8.85301 4.28553 8.8529 4.33548 8.85279 4.38694C8.8525 4.55402 8.85254 4.7211 8.85258 4.88818C8.85244 5.00807 8.85228 5.12796 8.8521 5.24786C8.85173 5.53947 8.85158 5.83109 8.85155 6.1227C8.85153 6.35964 8.85143 6.59657 8.85129 6.83351C8.85087 7.50529 8.85066 8.17706 8.85069 8.84884C8.85069 8.88502 8.8507 8.9212 8.8507 8.95848C8.8507 8.9947 8.8507 9.03093 8.8507 9.06825C8.85072 9.65619 8.85027 10.2441 8.84961 10.8321C8.84894 11.4358 8.84862 12.0395 8.84866 12.6432C8.84867 12.9821 8.84854 13.321 8.84804 13.66C8.84757 13.9784 8.84758 14.2968 8.84792 14.6152C8.84797 14.7323 8.84786 14.8494 8.84758 14.9665C8.84722 15.1259 8.84743 15.2852 8.8478 15.4445C8.84755 15.4913 8.84731 15.5381 8.84706 15.5863C8.84728 15.6288 8.8475 15.6713 8.84772 15.7152C8.84771 15.752 8.8477 15.7887 8.84769 15.8267C8.85395 15.9365 8.85395 15.9365 8.95313 16.0625C8.98842 16.0387 9.02371 16.0149 9.06007 15.9904C9.34206 15.8076 9.61969 15.6511 9.93458 15.5322C9.96587 15.5204 9.99716 15.5085 10.0294 15.4962C10.2437 15.4196 10.4459 15.3884 10.6729 15.3623C10.8344 15.3396 10.8344 15.3396 10.9688 15.2656C11.066 15.0933 11.1138 14.9324 11.1592 14.7412C11.2152 14.5133 11.3101 14.3356 11.4375 14.1406C11.4636 14.1 11.4897 14.0594 11.5166 14.0176C12.0129 13.5079 12.699 13.252 13.4014 13.2416C13.7978 13.2399 13.7978 13.2399 13.9688 13.2969C13.9738 13.372 13.9775 13.4472 13.9805 13.5225C13.9827 13.5643 13.9848 13.6062 13.9871 13.6494C13.9688 13.7656 13.9688 13.7656 13.8979 13.8484C13.7373 13.9281 13.5792 13.9369 13.4033 13.9502C12.8167 14.0094 12.4023 14.1547 12 14.6094C11.8642 14.8106 11.8135 14.9793 11.7656 15.2188C12.8175 15.2188 13.8694 15.2188 14.9531 15.2188C14.9624 14.8801 14.9624 14.8801 14.8565 14.6065C14.7959 14.4619 14.7639 14.36 14.7451 14.2022C14.8404 13.9825 14.9943 13.9214 15.1968 13.8037C15.4601 13.6333 15.6301 13.3712 15.728 13.075C15.8041 12.7074 15.7742 12.3669 15.6094 12.0313C15.5375 11.9525 15.5375 11.9525 15.4688 11.8906C15.4325 11.9099 15.3962 11.9291 15.3589 11.9489C15.3101 11.9741 15.2612 11.9994 15.2109 12.0254C15.1631 12.0504 15.1152 12.0754 15.0659 12.1012C14.7596 12.2368 14.4722 12.2828 14.1387 12.2803C14.1041 12.2801 14.0695 12.28 14.0338 12.2798C13.7682 12.2745 13.5042 12.2519 13.2656 12.125C13.1565 11.9614 13.1483 11.8957 13.1719 11.7031C13.2451 11.5918 13.2451 11.5918 13.3594 11.5156C13.5362 11.5001 13.6597 11.5064 13.8281 11.5625C14.3436 11.611 14.7935 11.5037 15.1979 11.1729C15.5594 10.8297 15.756 10.427 15.7764 9.92775C15.7627 9.494 15.617 9.09368 15.3164 8.7751C15.048 8.52887 15.048 8.52887 14.7188 8.42189C14.6447 8.11443 14.6931 7.95893 14.8488 7.6858C15.0277 7.35077 15.0051 6.8887 14.9123 6.52949C14.7403 6.0869 14.498 5.78383 14.077 5.56288C13.6558 5.37903 13.176 5.33635 12.7354 5.48927C12.276 5.70596 11.9261 6.09378 11.7539 6.56739C11.7193 6.73177 11.7018 6.88975 11.6926 7.0572C11.6655 7.18671 11.626 7.25131 11.5313 7.34376C11.415 7.36207 11.415 7.36207 11.2881 7.35548C11.2459 7.35379 11.2036 7.3521 11.1601 7.35035C11.1279 7.34818 11.0957 7.346 11.0625 7.34376C10.9167 6.90626 11.0341 6.44488 11.2031 6.03126C11.3031 5.83489 11.4048 5.64047 11.5633 5.48524C11.6359 5.42543 11.6359 5.42543 11.625 5.32814C11.6662 5.3091 11.6662 5.3091 11.7081 5.28968C11.8115 5.23491 11.8922 5.17371 11.9824 5.09962C12.389 4.78879 12.83 4.71633 13.3272 4.69239C13.3859 4.68936 13.3859 4.68936 13.4459 4.68626C13.5421 4.68131 13.6382 4.67658 13.7344 4.67189C13.6676 4.25096 13.515 3.93742 13.1748 3.66993C12.8342 3.43748 12.48 3.31381 12.0665 3.37825C11.715 3.46948 11.4401 3.64676 11.2207 3.93653C11.1094 4.06251 11.1094 4.06251 10.9658 4.10939C10.8237 4.10939 10.7559 4.09677 10.6406 4.01564C10.5653 3.86494 10.5749 3.7611 10.5938 3.59376C10.8303 3.1553 11.2065 2.89667 11.6719 2.75001C11.8122 2.71348 11.9513 2.68384 12.0938 2.65626C11.9741 2.35717 11.6385 2.17653 11.3525 2.05275C10.6349 1.8217 9.98716 1.99974 9.43653 2.48634ZM13.6406 3.07814C13.6777 3.11492 13.7148 3.1517 13.753 3.18959C14.089 3.528 14.3359 3.92145 14.4375 4.39064C14.4368 4.43432 14.4361 4.47801 14.4353 4.52302C14.4345 4.67841 14.4405 4.80365 14.4844 4.95314C14.6034 5.07253 14.7269 5.15491 14.8693 5.24482C15.3046 5.52223 15.5452 6.05744 15.6563 6.54689C15.67 6.69947 15.6718 6.85078 15.6709 7.00392C15.6708 7.04514 15.6708 7.08637 15.6707 7.12884C15.6662 7.43507 15.6264 7.71242 15.5156 8.00001C15.5423 8.0211 15.5689 8.04219 15.5964 8.06392C16.0753 8.46286 16.3974 8.96933 16.4636 9.5996C16.5015 10.1457 16.4466 10.6656 16.1572 11.1436C16.0681 11.2671 16.0681 11.2671 16.0878 11.3646C16.1381 11.5055 16.2012 11.6384 16.2656 11.7734C16.5061 12.2775 16.5439 12.8711 16.3828 13.4111C16.2485 13.7542 16.0426 14.0841 15.7361 14.2937C15.6027 14.4033 15.6027 14.4033 15.5957 14.515C15.6027 14.6241 15.6183 14.7276 15.6387 14.835C15.6444 14.8719 15.6502 14.9089 15.6561 14.9469C15.6704 15.0378 15.6866 15.1283 15.7031 15.2188C15.9506 15.2188 16.1981 15.2188 16.4531 15.2188C16.4538 15.1554 16.4545 15.0921 16.4551 15.0269C16.4573 14.9424 16.4596 14.8579 16.4619 14.7734C16.4622 14.7319 16.4625 14.6903 16.4627 14.6475C16.4727 14.3472 16.5379 14.1374 16.7344 13.9063C16.9091 13.7524 17.0788 13.7101 17.3081 13.6907C17.3499 13.6871 17.3918 13.6834 17.435 13.6796C17.4668 13.677 17.4985 13.6745 17.5313 13.6719C17.5317 13.613 17.5317 13.613 17.5321 13.5529C17.5348 13.1805 17.5382 12.8082 17.5423 12.4359C17.5444 12.2445 17.5462 12.0532 17.5475 11.8618C17.5487 11.6767 17.5506 11.4916 17.553 11.3065C17.5537 11.2363 17.5543 11.1662 17.5546 11.096C17.561 9.71678 18.2018 9.0102 19.1339 8.08637C19.3023 7.91963 19.4709 7.75299 19.64 7.58681C19.7648 7.464 19.8891 7.34074 20.0134 7.21742C20.0511 7.18059 20.0888 7.14376 20.1277 7.10581C20.6456 6.59024 20.9835 6.04212 21.0117 5.29884C21.0027 4.69487 20.7739 4.16473 20.3672 3.72267C19.8521 3.23402 19.2315 3.06276 18.5364 3.06749C18.4833 3.06748 18.4302 3.06747 18.3755 3.06745C18.201 3.06752 18.0266 3.06824 17.8521 3.06898C17.7307 3.06916 17.6093 3.06929 17.4879 3.06938C17.2017 3.0697 16.9156 3.07044 16.6294 3.07138C16.3033 3.07243 15.9773 3.07295 15.6513 3.07342C14.9811 3.0744 14.3108 3.07604 13.6406 3.07814ZM18.4483 17.3106C18.2949 17.5437 18.3002 17.7568 18.3281 18.0313C18.4432 18.2657 18.6092 18.4296 18.8438 18.5469C19.1357 18.5849 19.3662 18.5627 19.6079 18.3878C19.7805 18.2246 19.8623 18.0586 19.8871 17.8223C19.8792 17.5363 19.7854 17.3684 19.5857 17.167C19.4286 17.0327 19.3132 17.0054 19.1104 16.9824C18.8341 17.0105 18.6373 17.107 18.4483 17.3106ZM10.7344 17.3281C10.6663 17.6696 10.6363 18.1162 10.8309 18.4127C11.0492 18.5959 11.0492 18.5959 11.3218 18.6318C11.5564 18.5546 11.7219 18.4786 11.8594 18.2656C11.9168 17.9689 11.9157 17.6254 11.8594 17.3281C11.7445 17.2133 11.7123 17.2224 11.5547 17.2219C11.4923 17.2218 11.4923 17.2218 11.4287 17.2216C11.3852 17.2219 11.3417 17.2223 11.2969 17.2227C11.2316 17.2221 11.2316 17.2221 11.165 17.2216C11.1235 17.2217 11.0819 17.2218 11.0391 17.2219C11.0009 17.222 10.9627 17.2221 10.9233 17.2223C10.8175 17.2259 10.8175 17.2259 10.7344 17.3281ZM16.7558 19.0047C16.6261 19.1893 16.5576 19.3501 16.5742 19.5774C16.6265 19.8298 16.7232 20.0006 16.9248 20.1611C17.1596 20.286 17.3665 20.3303 17.6278 20.2525C17.8506 20.1569 17.9839 20.0351 18.1011 19.8226C18.191 19.5864 18.1692 19.3795 18.0879 19.1445C17.9543 18.9486 17.8075 18.8109 17.5781 18.7344C17.2403 18.6944 16.9849 18.7425 16.7558 19.0047ZM20.1367 19.0513C20.0115 19.262 19.9886 19.4559 20.0246 19.6968C20.1063 19.9462 20.2848 20.1224 20.5049 20.2578C20.7741 20.3104 20.9605 20.3199 21.1992 20.1817C21.4078 20.0362 21.5256 19.8763 21.6065 19.6338C21.6113 19.3852 21.5591 19.1627 21.3895 18.9746C21.1601 18.7754 21.0087 18.7142 20.7034 18.7186C20.4601 18.7492 20.2892 18.8618 20.1367 19.0513ZM9.04688 19.0156C9.03234 19.1186 9.03234 19.1186 9.03443 19.2368C9.03431 19.2805 9.03419 19.3242 9.03407 19.3692C9.03443 19.415 9.03479 19.4607 9.03517 19.5078C9.0348 19.5536 9.03444 19.5993 9.03407 19.6464C9.03419 19.6901 9.03431 19.7338 9.03443 19.7788C9.03454 19.819 9.03465 19.8591 9.03475 19.9005C9.03774 20.0101 9.03774 20.0101 9.14063 20.0938C9.28053 20.1069 9.41371 20.1133 9.55372 20.1143C9.59158 20.1158 9.62943 20.1174 9.66844 20.1189C9.87215 20.1208 9.95664 20.1161 10.1201 19.9843C10.1526 19.9431 10.1852 19.9018 10.2188 19.8594C10.2438 19.8337 10.2688 19.808 10.2946 19.7816C10.3638 19.7067 10.3638 19.7067 10.4531 19.5781C10.4312 19.3609 10.305 19.1864 10.1719 19.02C9.8958 18.8273 9.55085 18.8804 9.22708 18.9038C9.12941 18.916 9.12941 18.916 9.04688 19.0156ZM12.2016 19.3247C12.1815 19.3619 12.1614 19.3992 12.1406 19.4375C12.2003 19.6016 12.2691 19.7324 12.375 19.8711C12.3992 19.9033 12.4233 19.9354 12.4483 19.9685C12.5272 20.0604 12.5749 20.0911 12.696 20.1006C12.8078 20.1017 12.9195 20.1025 13.0313 20.1026C13.0898 20.1034 13.0898 20.1034 13.1495 20.1043C13.1869 20.1044 13.2242 20.1045 13.2627 20.1046C13.297 20.1048 13.3312 20.1049 13.3665 20.1051C13.4647 20.1012 13.4647 20.1012 13.5469 20C13.5614 19.8971 13.5614 19.8971 13.5593 19.7788C13.5595 19.7351 13.5596 19.6914 13.5597 19.6464C13.5593 19.6007 13.559 19.555 13.5586 19.5078C13.559 19.4621 13.5593 19.4163 13.5597 19.3692C13.5596 19.3255 13.5595 19.2818 13.5593 19.2368C13.5592 19.1967 13.5591 19.1565 13.559 19.1152C13.556 19.0055 13.556 19.0055 13.4531 18.9219C12.914 18.8035 12.5096 18.8511 12.2016 19.3247ZM10.8327 20.6046C10.6364 20.8948 10.6901 21.259 10.711 21.5968C10.7284 21.7061 10.7284 21.7061 10.875 21.7813C10.9731 21.7956 10.9731 21.7956 11.0803 21.7937C11.1196 21.7938 11.1589 21.794 11.1994 21.7941C11.2607 21.7935 11.2607 21.7935 11.3233 21.793C11.3643 21.7933 11.4054 21.7937 11.4477 21.7941C11.5065 21.7939 11.5065 21.7939 11.5666 21.7937C11.6205 21.7936 11.6205 21.7936 11.6755 21.7934C11.7768 21.789 11.7768 21.789 11.8594 21.6875C11.9185 21.391 11.9219 21.0456 11.8594 20.75C11.7338 20.5639 11.5983 20.4593 11.3906 20.375C11.14 20.375 11.0249 20.449 10.8327 20.6046ZM18.5244 20.6768C18.3396 20.8933 18.3069 21.0538 18.3135 21.3343C18.344 21.582 18.4554 21.7293 18.6445 21.8926C18.8947 22.0177 19.1035 22.0496 19.3682 21.9658C19.6045 21.8642 19.7155 21.7043 19.8457 21.4854C19.9046 21.2321 19.8662 21.0122 19.749 20.7822C19.5581 20.5604 19.3704 20.4401 19.0789 20.4173C18.8502 20.4284 18.6929 20.5308 18.5244 20.6768Z" fill="#7890B0"/>
<path d="M13.5469 6.87496C13.6841 7.01739 13.7078 7.12216 13.708 7.31735C13.6902 7.92786 13.4358 8.52733 13.0196 8.97555C12.6831 9.28482 12.235 9.59371 11.7657 9.59371C11.9204 9.89169 12.06 10.0693 12.3838 10.1884C12.581 10.2502 12.7708 10.27 12.9767 10.2778C13.1015 10.3012 13.1422 10.3378 13.2188 10.4375C13.2696 10.6045 13.2798 10.686 13.21 10.8476C13.1052 10.9777 13.0127 11.0352 12.8467 11.0609C12.2918 11.0641 11.8368 10.9089 11.4302 10.531C11.2475 10.3405 11.1401 10.1763 11.0508 9.9277C10.9731 9.73812 10.9731 9.73812 10.804 9.6351C10.708 9.61474 10.6116 9.59641 10.5149 9.5798C10.0106 9.4729 9.53392 9.11921 9.2344 8.70309C9.18875 8.51276 9.16728 8.41931 9.24905 8.2402C9.34613 8.11795 9.39251 8.09931 9.54495 8.07028C9.7855 8.10591 9.90541 8.25952 10.0782 8.42184C10.4526 8.73804 10.8422 8.91071 11.3408 8.89059C11.7599 8.85345 12.2038 8.67486 12.4951 8.36032C12.5561 8.27796 12.5561 8.27796 12.6094 8.18746C12.6309 8.15332 12.6523 8.11918 12.6744 8.08401C12.8282 7.81129 12.8821 7.5543 12.9161 7.24447C12.9365 7.11559 12.9612 7.03104 13.0313 6.92184C13.2131 6.8158 13.3469 6.81411 13.5469 6.87496Z" fill="#7890B0"/>
<path d="M3.89063 6.87488C4.02039 6.96192 4.03259 7.02145 4.0675 7.17682C4.07718 7.24117 4.08656 7.30557 4.0957 7.37C4.18783 7.91663 4.37016 8.27675 4.82813 8.60926C5.19859 8.84726 5.6382 8.94764 6.07324 8.86872C6.51451 8.76514 6.83817 8.56558 7.11603 8.20697C7.21153 8.09332 7.27389 8.09287 7.42383 8.07898C7.59375 8.09363 7.59375 8.09363 7.70801 8.16394C7.79045 8.29585 7.81667 8.39955 7.80798 8.55561C7.71649 8.89966 7.31773 9.17671 7.03125 9.35926C6.70747 9.52655 6.41071 9.62232 6.04688 9.64051C6.0421 9.68166 6.03733 9.72281 6.03241 9.7652C5.94672 10.1791 5.63562 10.5271 5.29688 10.7655C4.93637 10.993 4.50379 11.1013 4.07813 11.0468C3.90775 10.9706 3.85434 10.922 3.75 10.7655C3.76508 10.484 3.76508 10.484 3.84998 10.3596C3.97816 10.2676 4.09511 10.2678 4.25098 10.2528C4.56184 10.2131 4.82943 10.1747 5.04327 9.93036C5.1004 9.85203 5.15231 9.76995 5.20313 9.68738C5.06799 9.5973 4.94995 9.5483 4.79883 9.49109C4.18234 9.23633 3.76743 8.78084 3.47937 8.18702C3.36423 7.90614 3.31439 7.65924 3.31348 7.35535C3.31269 7.29468 3.31191 7.23402 3.3111 7.17151C3.32813 7.01551 3.32813 7.01551 3.39056 6.92688C3.56591 6.81026 3.69348 6.8256 3.89063 6.87488Z" fill="#7890B0"/>
<path d="M4.55356 13.3585C5.14781 13.5775 5.58145 13.9851 5.85065 14.5524C6.02138 14.9357 6.05583 15.2873 6.06738 15.7021C6.06901 15.7386 6.07064 15.775 6.07231 15.8126C6.07371 16.0121 6.06415 16.0872 5.93719 16.2501C5.8125 16.3437 5.8125 16.3437 5.67187 16.373C5.48038 16.3331 5.41831 16.2612 5.29687 16.1093C5.27559 15.9807 5.26655 15.8771 5.26757 15.749C5.25229 15.2151 5.13091 14.784 4.75488 14.3896C4.38239 14.1112 3.96418 14.0179 3.5098 13.991C3.28349 13.9741 3.15868 13.9294 3 13.7656C2.94112 13.5926 2.93702 13.5188 3.01465 13.3525C3.30023 12.9823 4.16832 13.2322 4.55356 13.3585Z" fill="#7890B0"/>
</svg>
