<svg width="349" height="349" viewBox="0 0 349 349" fill="none" xmlns="http://www.w3.org/2000/svg">
<circle cx="174.5" cy="174.5" r="174.5" fill="#3A85D4"/>
<path d="M134.789 55.6807C135.573 55.678 136.357 55.6745 137.14 55.6702C139.254 55.6612 141.367 55.6646 143.481 55.6709C145.702 55.676 147.922 55.6713 150.143 55.6682C153.871 55.6646 157.599 55.6693 161.327 55.6788C165.626 55.6896 169.925 55.6861 174.224 55.6752C177.927 55.6661 181.63 55.6649 185.333 55.6701C187.539 55.6732 189.746 55.6736 191.952 55.667C194.027 55.6613 196.102 55.6653 198.177 55.6767C198.935 55.6793 199.693 55.6786 200.45 55.6742C207.059 55.6394 212.271 56.7196 217.168 61.3945C220.137 64.5052 222.535 68.299 222.667 72.7137C222.538 74.2073 222.334 75.6712 222.101 77.152C221.947 78.3139 221.795 79.4762 221.646 80.6388C221.566 81.2514 221.485 81.864 221.402 82.4952C220.634 88.7272 220.21 95 219.865 101.268C219.845 101.632 219.825 101.996 219.804 102.371C218.809 121.233 220.416 136.707 233.381 151.211C238.002 156.298 242.913 161.039 248.019 165.636C248.315 165.903 248.611 166.17 248.917 166.445C254.244 171.232 259.649 175.929 265.263 180.377C265.522 180.584 265.782 180.79 266.049 181.003C267.251 181.959 268.459 182.906 269.682 183.837C274.3 187.462 277.001 192.05 278.187 197.82C278.521 200.908 278.459 204.016 278.444 207.117C278.447 208.044 278.45 208.97 278.455 209.896C278.464 212.395 278.46 214.893 278.454 217.392C278.449 220.012 278.454 222.631 278.457 225.251C278.46 229.644 278.455 234.038 278.446 238.432C278.435 243.512 278.439 248.592 278.45 253.673C278.459 258.04 278.46 262.408 278.455 266.775C278.452 269.381 278.451 271.988 278.458 274.594C278.463 277.041 278.46 279.487 278.448 281.933C278.445 282.832 278.446 283.73 278.451 284.628C278.456 285.853 278.449 287.077 278.439 288.301C278.446 288.837 278.446 288.837 278.453 289.383C278.426 291.077 278.298 291.937 277.241 293.29C276.115 294.128 275.605 294.332 274.219 294.311C273.727 294.318 273.727 294.318 273.226 294.326C271.747 293.933 271.194 293.277 270.25 292.078C270.002 290.448 270.002 290.448 270.002 288.471C269.998 287.924 269.998 287.924 269.994 287.367C269.988 286.146 269.995 284.926 270.003 283.705C270.001 282.829 269.998 281.954 269.994 281.079C269.988 279.193 269.989 277.307 269.994 275.421C270.001 272.435 269.995 269.449 269.986 266.463C269.97 260.658 269.97 254.852 269.971 249.047C269.971 241.672 269.966 234.297 269.947 226.922C269.939 223.958 269.939 220.994 269.945 218.03C269.948 216.179 269.944 214.328 269.939 212.476C269.937 211.623 269.939 210.769 269.943 209.916C269.975 202.945 269.654 196.449 264.644 191.158C263.825 190.341 262.999 189.533 262.161 188.736C261.125 187.702 260.176 186.668 259.225 185.559C257.495 183.574 255.682 181.697 253.815 179.841C253.481 179.506 253.146 179.172 252.802 178.827C251.71 177.736 250.617 176.647 249.524 175.558C248.762 174.796 247.999 174.035 247.237 173.273C245.241 171.278 243.243 169.286 241.245 167.293C239.202 165.255 237.161 163.216 235.119 161.177C231.121 157.184 227.122 153.193 223.121 149.203C223.114 149.909 223.114 149.909 223.107 150.629C223.085 152.378 223.054 154.127 223.018 155.877C223.004 156.633 222.993 157.389 222.986 158.146C222.976 159.235 222.953 160.323 222.927 161.412C222.917 162.066 222.906 162.721 222.896 163.396C222.587 165.314 222.172 165.909 220.64 167.062C219.648 167.326 219.648 167.326 218.656 167.311C218.165 167.318 218.165 167.318 217.664 167.326C216.184 166.933 215.631 166.277 214.687 165.078C214.438 163.452 214.438 163.452 214.437 161.479C214.434 161.116 214.43 160.753 214.427 160.379C214.42 159.161 214.426 157.944 214.432 156.727C214.43 155.854 214.426 154.981 214.422 154.108C214.414 152.228 214.413 150.348 214.416 148.467C214.421 145.492 214.413 142.517 214.402 139.542C214.387 134.833 214.381 130.125 214.38 125.416C214.376 116.992 214.362 108.568 214.337 100.144C214.329 97.1892 214.326 94.2341 214.328 91.2789C214.328 89.4363 214.325 87.5938 214.32 85.7513C214.319 84.8996 214.319 84.0479 214.321 83.1962C214.532 75.2909 214.532 75.2909 211.215 68.3398C207.862 65.0149 204.348 64.3121 199.741 64.3048C199.142 64.3026 198.544 64.3005 197.927 64.2983C197.277 64.2986 196.626 64.2988 195.956 64.299C195.259 64.2975 194.562 64.2958 193.865 64.294C191.977 64.2896 190.089 64.2884 188.201 64.2881C187.02 64.2878 185.839 64.2867 184.657 64.2854C180.532 64.2808 176.406 64.2788 172.28 64.2792C168.442 64.2795 164.604 64.2742 160.766 64.2664C157.465 64.2599 154.163 64.2572 150.862 64.2576C148.893 64.2577 146.924 64.2563 144.955 64.251C143.101 64.2462 141.248 64.2462 139.395 64.2498C138.397 64.2505 137.398 64.2464 136.4 64.2421C131.815 64.2579 127.605 64.3184 123.902 67.3476C120.747 70.5296 119.962 73.7944 119.846 78.1726C119.834 78.6017 119.823 79.0308 119.81 79.4729C119.789 80.3642 119.773 81.2556 119.764 82.1471C119.66 85.3821 119.66 85.3821 118.548 86.986C117.397 87.7233 116.821 87.9567 115.469 87.9355C115.141 87.9407 114.814 87.9458 114.476 87.951C113.014 87.5626 112.445 86.8733 111.5 85.7031C111.243 84.2438 111.243 84.2438 111.236 82.5541C111.234 81.936 111.231 81.3179 111.229 80.6811C111.236 80.0362 111.244 79.3913 111.252 78.7268C111.244 78.0953 111.236 77.4638 111.229 76.8132C111.254 70.6667 112.666 65.8889 116.957 61.3945C122.197 56.3918 127.803 55.6401 134.789 55.6807Z" fill="white"/>
<path d="M140.49 103.532C141.254 104.192 142.009 104.864 142.753 105.547C143.128 105.876 143.503 106.206 143.889 106.545C150.537 112.725 154.968 121.591 155.322 130.706C155.416 137.143 155.041 143.034 153.171 149.203C153.076 149.532 152.98 149.861 152.881 150.199C147.254 169.08 135.085 186.358 122.507 201.293C122.176 201.686 122.176 201.686 121.839 202.087C118.024 206.566 118.024 206.566 116.429 207.079C114.625 207.043 113.741 206.948 112.275 205.82C111.846 205.307 111.423 204.79 111.003 204.27C110.712 203.966 110.421 203.662 110.122 203.349C92.3874 184.69 75.3229 157.359 75.6451 130.995C75.9003 122.482 79.5315 114.796 85.2065 108.523C85.5365 108.147 85.8665 107.771 86.2065 107.384C90.6627 102.598 96.3985 99.2032 102.57 97.1133C103.016 96.9554 103.461 96.7974 103.921 96.6347C116.201 93.0482 130.423 95.7359 140.49 103.532ZM92.3108 113.279C86.2844 119.549 83.9831 126.92 84.0002 135.427C84.4563 157.795 101.554 179.209 114.972 195.836C116.655 195.132 117.491 194.333 118.569 192.873C118.868 192.472 119.166 192.071 119.474 191.658C119.789 191.226 120.105 190.793 120.429 190.348C120.759 189.901 121.088 189.454 121.428 188.993C122.423 187.64 123.411 186.281 124.398 184.922C124.673 184.548 124.947 184.174 125.23 183.789C129.286 178.259 132.889 172.511 136.304 166.566C136.496 166.235 136.688 165.904 136.886 165.563C143.55 153.966 148.806 140.469 146.375 126.931C145.932 125.354 145.403 123.91 144.738 122.414C144.533 121.949 144.329 121.484 144.118 121.005C140.188 113.046 133.28 107.925 125.034 105.082C113.185 101.541 101.237 104.912 92.3108 113.279Z" fill="white"/>
<path d="M202.285 158.133C203.798 159.094 204.998 160.334 206.254 161.606C206.732 162.084 207.211 162.562 207.69 163.04C208.445 163.793 209.198 164.549 209.943 165.312C211.244 166.638 212.576 167.888 213.99 169.093C217.232 171.898 220.187 175.016 223.198 178.064C226.78 181.722 226.78 181.722 230.562 185.17C233.751 187.887 236.627 190.96 239.569 193.939C240.374 194.753 241.181 195.566 241.988 196.379C242.246 196.638 242.504 196.898 242.77 197.165C244.486 198.879 246.251 200.503 248.122 202.046C249.296 203.131 250.278 204.174 250.621 205.758C250.625 207.472 250.56 208.479 249.662 209.975C248.262 210.815 247.143 211.091 245.506 211.003C244.218 210.655 243.598 210.139 242.616 209.24C242.272 208.925 241.928 208.611 241.573 208.286C239.297 206.112 237.091 203.871 234.884 201.626C233.195 199.92 231.507 198.247 229.679 196.689C226.462 193.924 223.543 190.827 220.564 187.812C217.85 185.067 215.144 182.352 212.204 179.847C210.06 177.943 208.08 175.863 206.068 173.822C205.187 172.928 204.304 172.035 203.421 171.144C203.036 170.753 202.65 170.362 202.253 169.959C201.356 169.018 201.356 169.018 200.301 168.551C200.168 168.897 200.036 169.244 199.9 169.601C199.266 171.134 198.543 172.593 197.789 174.07C195.641 178.282 194.933 182.692 196.233 187.333C199.347 194.053 206.292 199.392 211.463 204.518C212.999 206.041 214.534 207.565 216.067 209.091C216.42 209.439 216.772 209.788 217.135 210.146C217.458 210.468 217.782 210.79 218.115 211.121C218.4 211.403 218.685 211.686 218.978 211.977C220.279 213.386 220.307 214.685 220.29 216.567C220.083 218.13 219.412 219.284 218.668 220.656C216.257 225.295 216.453 231.795 217.974 236.702C219.186 239.866 220.825 242.834 222.952 245.476C223.981 246.964 223.805 248.153 223.617 249.91C223.121 251.088 223.121 251.088 222.129 251.895C220.506 252.417 219.779 252.64 218.16 252.391C213.119 249.726 210.702 243.482 209.095 238.347C207.34 231.846 207.748 224.998 209.837 218.641C210.239 217.105 210.262 216.628 209.727 215.184C209.009 214.265 209.009 214.265 208.078 213.398C207.73 213.056 207.382 212.715 207.024 212.363C206.645 211.998 206.266 211.633 205.876 211.258C205.077 210.473 204.279 209.688 203.48 208.903C202.22 207.674 200.958 206.446 199.695 205.22C198.475 204.033 197.261 202.84 196.047 201.646C195.673 201.287 195.3 200.928 194.915 200.558C189.749 195.464 186.738 189.54 186.658 182.255C186.764 173.284 190.801 166.117 196.828 159.621C198.699 158.019 199.794 157.718 202.285 158.133Z" fill="white"/>
<path d="M115.469 214.439C115.796 214.434 116.123 214.429 116.461 214.424C118.009 214.835 118.518 215.349 119.437 216.672C119.729 218.271 119.738 219.855 119.747 221.478C119.821 226.399 119.91 231.06 123.613 234.733C126.808 237.558 130.169 238.064 134.325 238.069C134.91 238.071 135.496 238.073 136.099 238.075C136.735 238.075 137.371 238.075 138.026 238.074C138.707 238.076 139.389 238.078 140.07 238.079C141.533 238.083 142.997 238.086 144.46 238.088C146.774 238.091 149.088 238.099 151.402 238.108C152.195 238.111 152.988 238.114 153.781 238.118C154.178 238.119 154.575 238.121 154.984 238.122C160.368 238.143 165.753 238.16 171.137 238.166C174.773 238.17 178.41 238.181 182.046 238.2C183.969 238.21 185.892 238.216 187.815 238.213C189.623 238.211 191.43 238.218 193.237 238.232C194.216 238.237 195.196 238.232 196.175 238.227C196.758 238.233 197.341 238.24 197.941 238.246C198.448 238.247 198.954 238.248 199.476 238.249C201.145 238.566 201.734 239.175 202.781 240.484C203.045 241.477 203.045 241.477 203.029 242.469C203.037 242.96 203.037 242.96 203.045 243.461C202.657 244.918 201.959 245.493 200.797 246.438C199.413 246.687 199.413 246.687 197.789 246.689C196.863 246.698 196.863 246.698 195.919 246.706C195.237 246.703 194.555 246.699 193.873 246.694C193.153 246.697 192.433 246.7 191.714 246.705C189.759 246.714 187.804 246.71 185.849 246.704C183.8 246.699 181.75 246.704 179.701 246.707C176.256 246.71 172.811 246.706 169.366 246.696C165.393 246.685 161.42 246.689 157.447 246.7C154.031 246.709 150.614 246.71 147.198 246.705C145.16 246.702 143.122 246.701 141.084 246.708C139.164 246.714 137.245 246.71 135.325 246.698C134.624 246.696 133.923 246.696 133.222 246.701C126.76 246.738 121.714 245.522 116.957 240.98C112.096 235.889 111.168 230.513 111.252 223.648C111.244 223.003 111.236 222.358 111.229 221.694C111.231 221.076 111.234 220.458 111.236 219.821C111.239 219.263 111.241 218.706 111.243 218.131C111.66 215.761 113.027 214.401 115.469 214.439Z" fill="white"/>
<path d="M126.59 118.201C130.957 121.347 134.239 125.507 135.313 130.848C135.976 137.008 135.449 142.451 131.747 147.591C128.367 151.602 124.247 154.691 118.906 155.267C112.501 155.711 107.159 154.934 102.107 150.678C97.8816 146.644 95.6239 142.353 95.3917 136.486C95.3147 130.277 96.7124 125.503 101.082 120.926C107.918 114.4 118.498 113.155 126.59 118.201ZM105.659 128.941C103.709 131.873 103.712 134.877 104.059 138.289C104.939 141.585 107.257 143.832 110.012 145.73C112.988 147.189 116.403 147.268 119.593 146.416C122.633 145.074 125.014 142.551 126.468 139.584C127.414 136.604 127.407 133.079 126.135 130.197C124.408 127.253 121.702 124.928 118.445 123.902C112.629 123.195 109.363 124.554 105.659 128.941Z" fill="white"/>
<path d="M191.34 250.127C193.63 250.548 195.043 251.751 196.807 253.174C199.428 255.271 202.119 256.979 205.06 258.601C206.254 259.336 206.254 259.336 206.75 260.328C206.805 261.326 206.829 262.325 206.838 263.324C206.847 264.268 206.847 264.268 206.857 265.23C206.861 265.92 206.865 266.611 206.868 267.301C206.87 267.647 206.872 267.994 206.874 268.352C206.884 270.188 206.892 272.023 206.896 273.859C206.902 275.755 206.919 277.651 206.938 279.547C206.951 281.006 206.956 282.464 206.957 283.922C206.96 284.621 206.966 285.32 206.975 286.019C206.987 286.997 206.985 287.976 206.983 288.954C206.986 289.511 206.989 290.067 206.992 290.641C206.696 292.4 206.152 292.977 204.765 294.062C203.773 294.326 203.773 294.326 202.781 294.311C202.454 294.316 202.126 294.321 201.789 294.326C200.341 293.941 199.757 293.225 198.812 292.078C198.574 290.804 198.574 290.804 198.587 289.348C198.587 288.529 198.587 288.529 198.587 287.693C198.598 287.107 198.608 286.52 198.618 285.916C198.621 285.313 198.624 284.71 198.627 284.089C198.638 282.163 198.663 280.237 198.688 278.312C198.698 277.006 198.707 275.701 198.715 274.395C198.737 271.194 198.77 267.994 198.812 264.793C198.355 264.652 197.897 264.511 197.426 264.365C195.527 263.691 194.108 262.65 192.549 261.413C192.272 261.202 191.994 260.991 191.708 260.773C189.452 259.014 187.588 257.519 187.123 254.623C187.402 252.887 187.402 252.887 188.456 251.429C189.883 250.406 189.883 250.406 191.34 250.127Z" fill="white"/>
<path d="M155.916 71.5557C156.465 71.5494 157.015 71.5432 157.581 71.5367C158.173 71.5408 158.764 71.5448 159.373 71.5489C159.982 71.547 160.591 71.5451 161.219 71.5432C162.506 71.5418 163.794 71.5455 165.082 71.5538C167.055 71.5644 169.027 71.5539 171 71.5412C172.251 71.5425 173.501 71.545 174.752 71.5489C175.343 71.5449 175.934 71.5409 176.543 71.5367C177.368 71.5461 177.368 71.5461 178.209 71.5557C178.692 71.5573 179.175 71.5589 179.673 71.5605C181.311 71.8829 181.903 72.5146 182.937 73.7968C183.201 74.789 183.201 74.789 183.185 75.7812C183.193 76.2723 183.193 76.2723 183.201 76.7734C182.816 78.2216 182.1 78.8042 180.953 79.75C179.673 80.0019 179.673 80.0019 178.209 80.0067C177.659 80.013 177.11 80.0192 176.543 80.0257C175.952 80.0217 175.361 80.0177 174.752 80.0135C173.838 80.0164 173.838 80.0164 172.906 80.0193C171.618 80.0206 170.331 80.017 169.043 80.0087C167.07 79.9981 165.098 80.0086 163.125 80.0213C161.874 80.02 160.623 80.0174 159.373 80.0135C158.782 80.0175 158.19 80.0215 157.581 80.0257C156.757 80.0163 156.757 80.0163 155.916 80.0067C155.433 80.0052 154.949 80.0036 154.452 80.0019C152.814 79.6795 152.221 79.0478 151.187 77.7656C150.924 76.7734 150.924 76.7734 150.939 75.7812C150.932 75.2901 150.932 75.2901 150.924 74.789C151.611 72.2007 153.457 71.5637 155.916 71.5557Z" fill="white"/>
<path d="M163.838 222.362C164.36 222.359 164.881 222.356 165.419 222.354C165.961 222.361 166.504 222.369 167.062 222.377C167.876 222.366 167.876 222.366 168.706 222.354C169.228 222.356 169.749 222.359 170.287 222.362C171.001 222.365 171.001 222.365 171.729 222.368C173.369 222.696 173.963 223.325 175 224.609C175.263 225.602 175.263 225.602 175.248 226.594C175.253 226.921 175.258 227.249 175.263 227.586C174.879 229.034 174.161 229.617 173.016 230.563C171.729 230.819 171.729 230.819 170.287 230.826C169.765 230.829 169.243 230.831 168.706 230.834C168.163 230.826 167.621 230.819 167.062 230.811C166.249 230.822 166.249 230.822 165.419 230.834C164.897 230.831 164.375 230.829 163.838 230.826C163.362 230.824 162.886 230.822 162.396 230.819C160.756 230.492 160.162 229.863 159.125 228.578C158.861 227.586 158.861 227.586 158.877 226.594C158.869 226.103 158.869 226.103 158.861 225.602C159.545 223.026 161.387 222.373 163.838 222.362Z" fill="white"/>
</svg>
