<svg width="349" height="349" viewBox="0 0 349 349" fill="none" xmlns="http://www.w3.org/2000/svg">
<circle cx="174.5" cy="174.5" r="174.5" fill="#3A85D4"/>
<path d="M129.766 55.6807C130.863 55.678 131.959 55.6745 133.056 55.6702C136.022 55.6612 138.988 55.6646 141.955 55.6709C145.065 55.676 148.176 55.6713 151.287 55.6682C156.844 55.6644 162.4 55.6705 167.957 55.6806C172.987 55.6895 178.016 55.6879 183.045 55.6788C188.898 55.6681 194.751 55.6642 200.604 55.6701C203.698 55.6732 206.791 55.6736 209.885 55.667C212.794 55.6613 215.703 55.6653 218.612 55.6767C219.677 55.6794 220.742 55.6786 221.806 55.6742C229.295 55.6462 235.29 55.9626 240.98 61.3945C246.637 67.3202 246.984 74.1745 247.091 81.9669C247.101 82.5999 247.111 83.233 247.122 83.8852C247.149 85.5554 247.174 87.2257 247.198 88.8959C247.223 90.6054 247.25 92.3149 247.278 94.0243C247.331 97.369 247.381 100.714 247.43 104.059C247.799 103.979 248.169 103.9 248.549 103.818C253.305 102.925 258.654 102.877 262.809 105.547C263.116 105.721 263.424 105.895 263.741 106.074C267.146 108.192 269.229 111.646 270.25 115.469C270.643 119.878 270.696 124.017 268.266 127.871C268.092 128.179 267.918 128.488 267.739 128.805C265.379 132.59 261.683 134.47 257.448 135.483C254.282 136.133 251.109 136.734 247.926 137.297C248.148 137.46 248.37 137.623 248.598 137.791C251.509 140.082 253.712 143.001 254.375 146.723C254.831 153.071 253.862 157.548 249.91 162.598C250.207 162.958 250.207 162.958 250.509 163.326C254.216 168.017 254.971 171.949 254.375 177.977C253.886 179.738 253.238 181.321 252.391 182.937C252.227 183.265 252.063 183.592 251.895 183.93C252.258 183.98 252.621 184.031 252.995 184.083C255.995 184.828 258.534 187.219 260.266 189.728C262.573 193.877 263.462 198.652 262.312 203.277C260.67 207.785 258.417 211.076 254.15 213.352C251.426 214.56 249.387 214.718 246.438 214.687C246.442 215.278 246.446 215.869 246.451 216.478C246.491 222.061 246.521 227.644 246.54 233.227C246.551 236.097 246.565 238.967 246.587 241.837C246.609 244.61 246.621 247.383 246.626 250.156C246.629 251.21 246.637 252.265 246.647 253.32C246.722 260.905 246.487 266.962 240.98 272.73C236.163 277.33 231.141 278.488 224.6 278.353C223.545 278.332 222.491 278.327 221.437 278.326C218.442 278.32 215.449 278.294 212.455 278.244C210.611 278.214 208.769 278.207 206.926 278.212C206.231 278.21 205.537 278.2 204.843 278.18C199.232 278.027 196.447 279.571 192.363 283.148C190.985 284.072 189.571 284.896 188.115 285.691C187.741 285.896 187.366 286.102 186.98 286.313C177.556 291.326 166.969 294.085 156.303 294.249C155.839 294.267 155.374 294.286 154.896 294.305C151.507 294.348 151.507 294.348 149.891 292.904C149.047 291.282 148.902 290.41 149.203 288.605C150.588 286.298 150.588 286.298 152.195 285.834C153.857 285.603 155.514 285.464 157.187 285.334C165.838 284.641 174.17 282.652 181.945 278.684C176.128 278.568 170.311 278.48 164.493 278.427C161.791 278.401 159.089 278.366 156.388 278.309C153.779 278.255 151.171 278.226 148.562 278.213C147.568 278.204 146.574 278.186 145.581 278.159C140.161 277.822 140.161 277.822 135.331 279.775C134.33 281.022 133.581 282.236 132.832 283.645C126.196 290.291 117.295 294.117 107.934 294.342C107.578 294.355 107.221 294.368 106.853 294.382C104.985 294.368 104.209 294.206 102.84 292.898C101.898 291.278 101.767 290.451 102.074 288.605C102.848 287.242 103.462 286.314 105.001 285.827C106.163 285.632 107.32 285.498 108.492 285.381C116.635 284.32 123.555 281.16 128.863 274.715C133.03 268.784 134.414 262.416 135.57 255.388C136.627 249.082 138.172 244.2 142.977 239.81C146.719 237.403 150.794 236.606 155.139 236.02C155.691 235.939 156.244 235.858 156.813 235.775C158.565 235.52 160.318 235.273 162.071 235.027C164.381 234.703 166.69 234.371 168.998 234.035C169.779 233.93 169.779 233.93 170.576 233.822C175.885 233.048 180.812 231.781 184.426 227.586C186.577 224.41 187.473 221.775 187.588 217.943C187.613 217.391 187.637 216.839 187.662 216.271C187.316 214.161 186.568 213.538 184.922 212.207C183.399 211.871 183.399 211.871 181.674 211.996C181.17 212.01 181.17 212.01 180.656 212.025C179.431 212.068 178.208 212.136 176.984 212.207C176.486 212.234 175.987 212.261 175.474 212.289C171.93 212.485 168.389 212.721 164.849 212.973C162.981 213.105 161.112 213.231 159.243 213.355C145.902 214.272 134.323 216.277 122.015 221.548C120.798 222.068 119.577 222.581 118.356 223.092C104.662 228.871 93.746 236.879 87.6875 250.902C85.9903 255.553 84.7524 260.275 84.5249 265.227C84.3475 267.91 84.0792 269.908 82.7266 272.234C81.1741 273.011 79.447 273.076 77.7656 272.73C76.6591 272.002 76.6591 272.002 75.7812 270.746C75.4976 269.283 75.5234 267.86 75.5642 266.374C75.5715 265.954 75.5788 265.533 75.5863 265.099C75.973 251.991 81.7336 240.344 90.168 230.562C90.4871 230.192 90.8062 229.822 91.135 229.44C97.5646 222.564 105.949 218.63 114.484 215.065C114.915 214.885 115.347 214.704 115.791 214.518C116.841 214.077 117.891 213.638 118.941 213.199C118.942 212.646 118.943 212.093 118.944 211.523C118.962 198.08 118.991 184.637 119.033 171.194C119.052 164.693 119.068 158.192 119.076 151.691C119.082 146.026 119.096 140.361 119.117 134.696C119.129 131.695 119.136 128.694 119.136 125.693C119.135 122.871 119.144 120.048 119.16 117.226C119.165 116.188 119.165 115.151 119.163 114.113C119.159 112.699 119.168 111.286 119.18 109.872C119.176 109.459 119.172 109.046 119.168 108.621C119.196 106.81 119.272 105.765 120.384 104.301C121.508 103.501 122.042 103.293 123.406 103.314C123.897 103.307 123.897 103.307 124.398 103.299C125.902 103.698 126.43 104.309 127.375 105.547C127.566 107.008 127.635 108.281 127.614 109.741C127.616 110.381 127.616 110.381 127.619 111.035C127.622 112.469 127.611 113.902 127.6 115.336C127.6 116.362 127.6 117.389 127.601 118.416C127.602 121.205 127.59 123.995 127.576 126.785C127.564 129.7 127.563 132.614 127.56 135.529C127.554 141.049 127.538 146.569 127.518 152.09C127.496 158.374 127.485 164.658 127.475 170.942C127.454 183.87 127.419 196.798 127.375 209.727C127.675 209.64 127.974 209.553 128.283 209.463C129.653 209.066 131.023 208.672 132.393 208.277C132.865 208.14 133.336 208.003 133.821 207.862C136.934 206.967 139.998 206.207 143.219 205.82C143.643 205.763 144.068 205.707 144.505 205.649C148.065 205.207 151.57 205.099 155.156 205.262C155.177 204.648 155.197 204.034 155.218 203.401C155.777 198.41 158.742 193.66 162.629 190.553C167.89 186.808 173.147 186.284 179.465 186.906C184.808 187.971 188.962 191.269 192.113 195.627C194.517 199.498 195.078 203.265 195.178 207.735C195.234 209.929 195.642 211.63 196.332 213.695C196.987 221.201 195.809 227.618 190.875 233.539C190.59 233.891 190.306 234.242 190.013 234.605C184.075 241.242 175.421 242.049 167.14 243.304C166.67 243.375 166.2 243.446 165.716 243.52C163.768 243.814 161.82 244.107 159.871 244.39C158.427 244.6 156.986 244.819 155.544 245.04C155.108 245.101 154.671 245.162 154.222 245.225C151.247 245.691 148.477 246.358 146.5 248.822C145.014 252.492 144.367 256.323 143.684 260.204C143.497 261.246 143.309 262.287 143.118 263.328C142.946 264.267 142.779 265.207 142.612 266.147C142.292 267.615 141.841 268.868 141.266 270.25C152.314 270.208 163.362 270.161 174.411 270.107C179.541 270.082 184.671 270.059 189.801 270.041C194.273 270.024 198.745 270.005 203.218 269.981C205.585 269.968 207.952 269.957 210.319 269.951C212.549 269.944 214.78 269.933 217.01 269.919C217.826 269.914 218.643 269.912 219.459 269.911C227.219 270.066 227.219 270.066 234.035 266.777C237.732 263.049 238.07 259.001 238.106 253.998C238.111 253.572 238.116 253.146 238.121 252.707C238.136 251.306 238.149 249.904 238.161 248.503C238.171 247.529 238.182 246.554 238.192 245.58C238.219 243.02 238.244 240.461 238.268 237.902C238.293 235.288 238.321 232.674 238.348 230.061C238.401 224.936 238.452 219.812 238.5 214.687C237.873 214.694 237.246 214.701 236.6 214.708C232.855 214.749 229.571 213.106 226.857 210.571C223.773 207.141 222.435 203.485 222.47 198.874C222.471 198.351 222.471 198.351 222.472 197.816C222.521 195.177 222.941 193.22 224.113 190.875C223.79 190.67 223.466 190.466 223.133 190.255C219.406 187.792 216.355 185.035 214.922 180.684C213.903 175.384 214.458 170.537 217.356 165.989C217.928 165.17 218.537 164.377 219.152 163.59C218.856 163.229 218.856 163.229 218.554 162.861C214.831 158.151 214.13 154.257 214.688 148.211C215.611 143.934 218.196 140.653 221.635 138.025C226.329 135.271 233.104 134.279 238.5 134.32C238.458 126.765 238.411 119.209 238.357 111.654C238.333 108.146 238.309 104.637 238.291 101.129C238.273 97.7415 238.249 94.3544 238.223 90.9674C238.214 89.6764 238.206 88.3855 238.201 87.0945C238.192 85.2835 238.178 83.4727 238.162 81.6618C238.161 81.1305 238.16 80.5992 238.159 80.0517C238.109 75.5503 237.714 72.011 235.027 68.3398C235.027 68.0124 235.027 67.685 235.027 67.3476C234.761 67.2146 234.495 67.0816 234.221 66.9446C233.353 66.5104 232.496 66.0518 231.648 65.5803C228.659 64.2325 225.51 64.2984 222.289 64.3047C221.657 64.3031 221.657 64.3031 221.012 64.3013C219.608 64.2982 218.203 64.2986 216.798 64.299C215.788 64.2975 214.778 64.2958 213.768 64.294C211.03 64.2896 208.291 64.2884 205.552 64.2881C203.84 64.2878 202.128 64.2867 200.416 64.2854C194.441 64.2808 188.466 64.2788 182.491 64.2792C176.925 64.2795 171.359 64.2742 165.793 64.2664C161.011 64.2599 156.228 64.2572 151.446 64.2576C148.591 64.2577 145.737 64.2563 142.882 64.251C140.197 64.2462 137.512 64.2462 134.827 64.2498C133.843 64.2503 132.86 64.2491 131.876 64.2461C130.53 64.2423 129.183 64.2446 127.837 64.2484C127.451 64.2459 127.065 64.2433 126.667 64.2407C122.56 64.2663 119.296 64.9105 115.965 67.3476C115.637 67.3476 115.31 67.3476 114.973 67.3476C112.513 72.0778 111.922 75.944 111.931 81.1921C111.93 81.7382 111.929 82.2843 111.928 82.8469C111.925 84.6772 111.925 86.5076 111.926 88.3379C111.924 89.6499 111.923 90.9618 111.921 92.2738C111.916 95.0991 111.914 97.9243 111.912 100.75C111.91 105.214 111.901 109.679 111.892 114.143C111.889 115.671 111.886 117.199 111.882 118.727C111.882 119.109 111.881 119.49 111.88 119.884C111.871 124.227 111.863 128.57 111.856 132.912C111.855 133.508 111.855 133.508 111.854 134.115C111.843 140.554 111.837 146.992 111.834 153.431C111.83 160.041 111.818 166.652 111.8 173.263C111.789 177.34 111.784 181.418 111.787 185.496C111.789 188.288 111.783 191.08 111.772 193.873C111.766 195.485 111.764 197.096 111.768 198.708C111.773 200.454 111.765 202.2 111.754 203.946C111.76 204.713 111.76 204.713 111.767 205.495C111.727 208.916 111.727 208.916 110.554 210.536C109.435 211.268 108.858 211.484 107.531 211.463C107.04 211.471 107.04 211.471 106.539 211.478C105.082 211.091 104.508 210.392 103.562 209.23C103.305 207.843 103.305 207.843 103.292 206.227C103.282 205.622 103.272 205.016 103.262 204.392C103.261 203.74 103.261 203.088 103.26 202.417C103.253 201.741 103.244 201.066 103.235 200.39C103.214 198.615 103.204 196.841 103.196 195.066C103.187 193.254 103.166 191.441 103.146 189.629C103.109 186.076 103.084 182.522 103.066 178.969C102.52 179.586 101.975 180.204 101.43 180.823C100.974 181.339 100.974 181.339 100.509 181.866C90.9347 193.073 83.7783 206.869 78.7578 220.641C78.6238 221 78.4899 221.359 78.3518 221.729C72.7836 236.78 70.8841 253.088 68.2093 268.83C67.6515 272.112 67.0901 275.394 66.5232 278.674C66.2615 280.198 66.0053 281.722 65.7492 283.247C65.5888 284.178 65.428 285.108 65.267 286.039C65.1982 286.458 65.1293 286.877 65.0584 287.309C64.6063 289.878 64.1295 292.542 62.0146 294.28C60.3365 294.699 59.0911 294.486 57.4258 294.062C56.183 292.861 55.7037 291.781 55.4414 290.094C55.5793 288.835 55.7543 287.622 55.9754 286.378C56.0383 286.006 56.1012 285.634 56.166 285.25C56.3759 284.013 56.5917 282.778 56.8076 281.542C56.9572 280.67 57.1065 279.797 57.2555 278.925C57.5704 277.086 57.8881 275.247 58.2078 273.409C58.6091 271.101 59.0056 268.793 59.4002 266.485C60.8689 257.898 62.3681 249.318 64.0145 240.763C64.13 240.16 64.2455 239.557 64.3646 238.935C65.4108 233.582 66.725 228.331 68.3398 223.121C68.5283 222.512 68.5283 222.512 68.7206 221.89C74.6887 202.995 84.9302 186.086 97.7431 171.093C97.9497 170.844 98.1562 170.596 98.3691 170.339C99.0977 169.543 99.0977 169.543 100.082 168.732C102.261 166.762 103.281 165.112 103.511 162.135C103.581 160.105 103.562 158.081 103.531 156.051C103.532 155.135 103.534 154.22 103.538 153.304C103.542 151.339 103.535 149.374 103.517 147.409C103.49 144.297 103.49 141.187 103.495 138.075C103.499 133.152 103.484 128.229 103.461 123.305C103.42 114.495 103.402 105.684 103.404 96.8732C103.404 93.7842 103.392 90.6955 103.372 87.6065C103.361 85.6805 103.359 83.7544 103.358 81.8283C103.356 80.9394 103.35 80.0505 103.341 79.1617C103.271 72.1853 103.984 66.6696 109.02 61.3945C115.145 55.5472 121.774 55.6478 129.766 55.6807ZM246.438 112.988C246.438 118.063 246.438 123.138 246.438 128.367C254.414 127.948 254.414 127.948 260.824 123.902C262.174 121.684 262.136 119.483 261.816 116.957C260.653 114.541 259.203 113.264 256.855 111.996C253.124 111.193 253.124 111.193 246.438 112.988ZM232.547 143.374C232.213 143.428 231.879 143.483 231.535 143.539C228.866 144.028 226.242 144.879 224.431 147.026C222.92 149.236 222.65 151.555 223.121 154.164C224.22 156.321 225.506 157.877 227.586 159.125C232.267 160.295 238.686 159.403 242.903 156.986C244.823 155.534 245.752 154.011 246.094 151.598C246.244 148.897 245.766 147.337 243.957 145.234C240.43 142.051 237 142.547 232.547 143.374ZM231.741 167.435C231.121 167.552 231.121 167.552 230.489 167.671C227.43 168.304 225.512 169.196 223.71 171.868C222.954 173.978 222.763 175.76 223.121 177.977C224.22 180.133 225.506 181.689 227.586 182.937C232.267 184.108 238.686 183.215 242.903 180.798C244.823 179.347 245.752 177.824 246.094 175.411C246.244 172.709 245.766 171.15 243.957 169.047C240.185 165.643 236.368 166.466 231.741 167.435ZM233.235 193.09C231.206 195.427 230.882 197.033 230.921 200.033C231.125 201.9 231.794 202.889 233.043 204.27C237.017 207.398 241.617 207.006 246.438 206.75C248.951 206.346 250.704 205.685 252.391 203.742C254.091 201.245 254.205 199.319 253.879 196.332C252.714 193.913 251.256 192.659 248.918 191.371C244.398 190.163 236.902 189.76 233.235 193.09ZM165.282 200.281C164.407 201.547 163.927 202.772 163.59 204.27C168.447 204.354 173.257 204.087 178.101 203.773C178.862 203.725 179.624 203.678 180.385 203.63C182.228 203.514 184.071 203.397 185.914 203.277C184.781 199.689 183.08 197.819 179.868 195.867C173.772 194.168 169.252 195.451 165.282 200.281Z" fill="white"/>
<path d="M170.373 111.316C170.731 111.311 171.089 111.307 171.459 111.302C172.214 111.295 172.97 111.291 173.725 111.289C174.866 111.283 176.006 111.259 177.147 111.234C181.821 111.182 185.658 111.599 189.317 114.783C191.587 117.04 192.375 119.937 193.356 122.91C194.194 125.203 194.194 125.203 196.115 126.507C197.072 126.716 198.031 126.916 198.995 127.084C203.511 127.894 205.946 129.291 208.992 132.735C210.458 134.908 210.843 137.119 210.871 139.701C210.879 140.261 210.887 140.821 210.895 141.398C210.898 141.996 210.9 142.595 210.903 143.211C210.908 143.834 210.912 144.457 210.917 145.098C210.924 146.414 210.929 147.73 210.93 149.046C210.933 150.72 210.951 152.393 210.974 154.066C210.993 155.678 210.993 157.289 210.996 158.9C211.006 159.495 211.016 160.089 211.025 160.702C211.003 164.883 210.263 168.319 207.375 171.481C204.773 173.919 202.039 175.07 198.472 175.217C196.797 175.16 195.981 175.081 194.503 174.256C193.573 172.484 193.472 171.004 193.852 169.047C194.701 167.619 195.428 167.175 197.02 166.737C197.887 166.524 198.759 166.334 199.636 166.169C201.071 165.434 201.396 164.627 201.982 163.162C202.553 161.169 202.497 159.17 202.483 157.11C202.485 156.638 202.486 156.167 202.487 155.681C202.488 154.689 202.486 153.697 202.479 152.704C202.471 151.192 202.479 149.681 202.489 148.168C202.488 147.201 202.486 146.233 202.483 145.265C202.486 144.817 202.489 144.368 202.492 143.906C202.462 141.172 202.13 139.208 200.797 136.801C199.424 136.098 198.177 135.866 196.664 135.623C192.695 134.94 189.486 133.572 186.949 130.286C185.794 128.299 185.16 126.07 184.426 123.902C183.61 121.628 183.61 121.628 181.709 120.362C179.443 119.807 177.324 119.789 175 119.81C174.565 119.806 174.131 119.802 173.683 119.798C171.301 119.805 169.267 119.914 167.063 120.926C166.159 122.281 165.663 123.626 165.168 125.172C163.942 128.885 162.485 131.829 159.092 133.977C157.024 134.987 155.037 135.452 152.769 135.809C151.08 136.078 150.306 136.226 148.893 137.235C147.807 138.914 147.653 140.475 147.635 142.447C147.63 142.873 147.626 143.299 147.621 143.737C147.618 144.422 147.618 144.422 147.614 145.12C147.61 145.83 147.61 145.83 147.606 146.555C147.601 147.556 147.598 148.557 147.596 149.558C147.591 151.084 147.576 152.609 147.56 154.134C147.557 155.108 147.554 156.083 147.552 157.057C147.546 157.511 147.54 157.964 147.534 158.431C147.543 161.171 147.741 163.216 149.203 165.574C151.333 166.498 153.186 166.691 155.492 166.693C156.141 166.697 156.79 166.7 157.458 166.704C157.801 166.703 158.144 166.703 158.498 166.703C159.578 166.702 160.658 166.709 161.738 166.717C164.808 166.74 167.877 166.752 170.947 166.755C172.829 166.758 174.711 166.77 176.593 166.788C177.308 166.793 178.024 166.794 178.74 166.791C179.739 166.788 180.739 166.797 181.738 166.807C182.591 166.81 182.591 166.81 183.461 166.812C185.233 167.116 185.815 167.647 186.907 169.047C187.17 170.039 187.17 170.039 187.155 171.031C187.162 171.522 187.162 171.522 187.17 172.023C186.778 173.498 186.113 174.056 184.922 175C183.339 175.252 183.339 175.252 181.443 175.257C181.097 175.26 180.751 175.264 180.394 175.267C179.25 175.276 178.107 175.27 176.963 175.264C176.165 175.265 175.367 175.267 174.568 175.269C172.894 175.272 171.219 175.268 169.545 175.259C167.409 175.247 165.273 175.254 163.137 175.266C161.487 175.273 159.837 175.271 158.186 175.266C157.399 175.264 156.612 175.266 155.826 175.27C150.987 175.293 146.844 175.2 142.973 171.95C142.666 171.585 142.358 171.221 142.041 170.845C141.724 170.483 141.408 170.121 141.082 169.748C139.577 167.518 139.158 165.323 139.137 162.666C139.131 162.104 139.125 161.543 139.118 160.965C139.117 160.365 139.116 159.765 139.115 159.146C139.112 158.522 139.108 157.899 139.105 157.256C139.1 155.938 139.097 154.62 139.098 153.302C139.098 151.624 139.084 149.946 139.067 148.268C139.053 146.654 139.054 145.04 139.053 143.426C139.046 142.829 139.039 142.232 139.031 141.617C139.053 137.585 139.597 134.366 142.206 131.193C145.576 128.434 148.583 127.272 152.899 126.741C154.511 126.285 155.122 125.716 156.149 124.398C156.737 123.002 156.737 123.002 157.141 121.484C158.357 117.614 160.162 114.742 163.59 112.492C165.865 111.582 167.947 111.335 170.373 111.316Z" fill="white"/>
<path d="M156.2 71.6798C157.151 71.6735 157.151 71.6735 158.12 71.667C158.824 71.6674 159.528 71.6678 160.231 71.6684C160.971 71.6654 161.711 71.662 162.451 71.6583C164.462 71.6495 166.473 71.6472 168.484 71.6466C170.162 71.6456 171.84 71.642 173.518 71.6384C177.476 71.6304 181.434 71.6279 185.392 71.6286C189.477 71.6292 193.563 71.6188 197.648 71.6031C201.154 71.5901 204.659 71.5848 208.165 71.5854C210.26 71.5857 212.354 71.5829 214.449 71.5724C216.418 71.5628 218.388 71.5627 220.357 71.5699C221.081 71.5709 221.804 71.5686 222.527 71.5626C223.513 71.555 224.5 71.5607 225.487 71.5672C226.315 71.5664 226.315 71.5664 227.16 71.5656C228.929 71.8736 229.512 72.3574 230.562 73.7969C230.812 74.8645 230.812 74.8645 230.814 76.0374C230.82 76.4839 230.826 76.9304 230.831 77.3904C230.827 77.8765 230.823 78.3626 230.819 78.8634C230.823 79.3783 230.826 79.8931 230.83 80.4236C230.838 82.1267 230.833 83.8294 230.826 85.5326C230.827 86.7151 230.829 87.8976 230.832 89.0802C230.835 91.559 230.83 94.0378 230.821 96.5167C230.81 99.6964 230.816 102.876 230.828 106.056C230.835 108.498 230.833 110.94 230.828 113.382C230.827 114.554 230.828 115.727 230.833 116.899C230.838 118.537 230.83 120.174 230.819 121.812C230.823 122.298 230.827 122.785 230.831 123.285C230.79 126.568 230.79 126.568 229.616 128.171C228.496 128.918 227.929 129.132 226.594 129.111C226.102 129.119 226.102 129.119 225.601 129.127C224.082 128.723 223.571 128.142 222.625 126.879C222.334 125.363 222.374 123.867 222.4 122.327C222.399 121.86 222.399 121.393 222.399 120.911C222.4 119.399 222.415 117.888 222.431 116.376C222.434 115.442 222.436 114.508 222.437 113.574C222.448 110.113 222.475 106.652 222.501 103.19C222.562 91.5874 222.562 91.5874 222.625 79.75C201.67 79.9137 180.715 80.0774 159.125 80.2461C158.47 82.0469 157.815 83.8477 157.141 85.7031C153.803 90.6769 149.704 94.3215 143.746 95.625C140.475 95.9425 137.188 95.9109 133.905 95.8837C132.358 95.873 130.812 95.8837 129.265 95.8963C128.279 95.895 127.293 95.8925 126.307 95.8886C125.846 95.8926 125.385 95.8966 124.91 95.9007C121.732 95.8544 121.732 95.8544 120.141 94.6784C119.381 93.557 119.168 92.9983 119.189 91.6563C119.184 91.3288 119.179 91.0014 119.174 90.6641C119.57 89.1712 120.202 88.6327 121.422 87.6875C122.8 87.4915 123.988 87.4107 125.365 87.4201C125.748 87.4142 126.131 87.4084 126.526 87.4023C127.75 87.3849 128.973 87.3803 130.196 87.3774C139.515 87.7309 139.515 87.7309 147.42 83.5114C149.899 80.7083 150.478 77.6835 151.247 74.1166C152.097 71.5613 153.827 71.687 156.2 71.6798Z" fill="white"/>
<path d="M226.594 216.424C226.921 216.419 227.248 216.414 227.586 216.408C229.082 216.806 229.617 217.431 230.562 218.656C230.758 220.061 230.834 221.272 230.819 222.675C230.823 223.079 230.826 223.482 230.83 223.898C230.838 225.231 230.833 226.563 230.826 227.896C230.827 228.823 230.829 229.749 230.832 230.676C230.835 232.618 230.83 234.559 230.821 236.501C230.81 238.99 230.816 241.479 230.828 243.968C230.835 245.881 230.833 247.795 230.828 249.708C230.827 250.626 230.828 251.544 230.833 252.462C230.838 253.744 230.83 255.026 230.819 256.309C230.823 256.688 230.827 257.068 230.831 257.459C230.805 259.079 230.732 260.102 229.747 261.418C228.238 262.573 227.38 262.562 225.49 262.564C224.856 262.57 224.221 262.576 223.568 262.581C222.866 262.578 222.164 262.574 221.462 262.569C220.722 262.572 219.982 262.575 219.242 262.58C217.233 262.589 215.224 262.585 213.215 262.579C211.114 262.574 209.012 262.579 206.91 262.582C203.38 262.585 199.85 262.581 196.32 262.571C192.239 262.56 188.157 262.564 184.075 262.575C180.572 262.584 177.068 262.585 173.564 262.58C171.472 262.577 169.379 262.576 167.286 262.583C165.318 262.589 163.351 262.585 161.383 262.573C160.661 262.571 159.938 262.571 159.216 262.576C158.231 262.581 157.245 262.573 156.26 262.564C155.432 262.563 155.432 262.563 154.588 262.562C152.838 262.254 152.264 261.716 151.187 260.328C150.604 258.5 150.525 257.707 151.342 255.956C152.18 254.871 152.18 254.871 153.172 254.375C154.089 254.329 155.009 254.315 155.928 254.315C156.806 254.314 156.806 254.314 157.703 254.313C158.672 254.316 158.672 254.316 159.66 254.319C160.344 254.319 161.029 254.319 161.713 254.318C163.574 254.318 165.436 254.321 167.297 254.325C169.241 254.328 171.185 254.328 173.129 254.329C176.811 254.33 180.494 254.334 184.176 254.339C188.368 254.345 192.56 254.348 196.752 254.35C205.376 254.355 214.001 254.364 222.625 254.375C222.62 253.932 222.616 253.489 222.611 253.032C222.572 248.857 222.542 244.682 222.522 240.506C222.512 238.36 222.498 236.213 222.475 234.067C222.454 231.995 222.442 229.924 222.437 227.852C222.433 227.062 222.426 226.271 222.415 225.481C222.401 224.374 222.399 223.268 222.4 222.16C222.395 221.53 222.391 220.9 222.386 220.251C222.753 217.798 224.056 216.384 226.594 216.424Z" fill="white"/>
<path d="M181.728 134.32C185.313 136.457 187.489 139.347 188.891 143.25C189.459 147.899 189.344 152.308 186.41 156.148C183.802 159.019 181.145 160.937 177.236 161.247C171.936 161.378 168.394 160.871 164.499 157.168C161.314 153.596 160.616 149.833 160.873 145.159C161.395 140.942 163.251 138.261 166.439 135.547C170.87 132.657 176.858 132.109 181.728 134.32ZM170.039 144.242C169.238 145.844 169.247 147.472 169.543 149.203C170.404 150.704 171.446 151.891 173.016 152.676C175.557 152.977 175.557 152.977 177.889 152.156C179.776 150.603 180.401 149.766 180.643 147.343C180.631 145.681 180.336 144.813 179.279 143.529C177.528 141.82 176.524 141.566 174.06 141.583C172.214 141.899 171.327 142.923 170.039 144.242Z" fill="white"/>
<path d="M141.266 71.8125C142.506 72.5567 142.506 72.5567 143.25 73.7969C143.642 75.7917 143.558 77.2517 142.506 79.0059C140.752 80.0584 139.292 80.1424 137.297 79.75C136.057 79.0059 136.057 79.0059 135.313 77.7656C134.92 75.7709 135.004 74.3108 136.057 72.5567C137.811 71.5042 139.271 71.4201 141.266 71.8125Z" fill="white"/>
<path d="M125.391 71.8125C126.631 72.5567 126.631 72.5567 127.375 73.7969C127.767 75.7917 127.683 77.2517 126.631 79.0059C124.877 80.0584 123.417 80.1424 121.422 79.75C120.182 79.0059 120.182 79.0059 119.438 77.7656C119.045 75.7709 119.129 74.3108 120.182 72.5567C121.936 71.5042 123.396 71.4201 125.391 71.8125Z" fill="white"/>
</svg>
