<svg width="349" height="349" viewBox="0 0 349 349" fill="none" xmlns="http://www.w3.org/2000/svg">
<circle cx="174.5" cy="174.5" r="174.5" fill="#3A85D4"/>
<path d="M268.886 120.43C269.293 120.771 269.7 121.111 270.119 121.463C275.374 125.992 279.383 131.268 282.777 137.297C283.078 137.826 283.379 138.355 283.69 138.9C285.492 142.264 286.787 145.62 287.893 149.265C288.013 149.661 288.134 150.058 288.258 150.466C289.879 156.099 290.367 161.562 290.363 167.41C290.366 168.122 290.369 168.833 290.373 169.544C290.381 171.456 290.384 173.369 290.384 175.281C290.385 176.478 290.387 177.674 290.39 178.87C290.399 183.048 290.403 187.225 290.402 191.403C290.402 195.293 290.412 199.183 290.428 203.073C290.441 206.421 290.446 209.768 290.446 213.116C290.445 215.113 290.448 217.109 290.459 219.105C290.468 220.979 290.468 222.852 290.461 224.725C290.46 225.412 290.462 226.099 290.468 226.786C290.476 227.724 290.47 228.661 290.464 229.599C290.464 230.123 290.465 230.648 290.465 231.188C290.153 232.908 289.619 233.491 288.234 234.531C286.659 234.756 285.76 234.866 284.265 234.531C283.211 233.72 282.603 233.069 281.785 232.051C281.084 231.285 280.381 230.52 279.676 229.756C276.32 226.005 273.153 222.111 270.179 218.05C269.26 217.032 268.713 216.582 267.398 216.176C264.496 216.276 262.653 217.266 260.267 218.749C248.368 225.748 233.73 227.635 220.309 224.383C205.835 220.601 191.969 212.389 184.054 199.309C183.73 198.791 183.406 198.273 183.072 197.739C175.038 184.576 172.774 168.296 176.024 153.296C179.772 138.303 188.63 124.168 202.029 115.993C202.318 115.82 202.608 115.647 202.906 115.469C203.373 115.186 203.373 115.186 203.849 114.898C224.176 102.799 250.947 104.837 268.886 120.43ZM199.929 128.367C199.511 128.739 199.092 129.11 198.66 129.493C189.135 138.454 183.796 151.349 182.954 164.26C182.558 178.614 188.31 191.691 197.757 202.25C205.72 210.595 217.097 216.875 228.804 217.286C240.716 217.507 249.827 214.75 260.12 208.924C263.56 207.144 267.71 207.2 271.367 208.362C275.044 209.993 277.517 213.484 279.999 216.533C280.585 217.248 281.184 217.953 281.785 218.656C281.949 218.656 282.112 218.656 282.281 218.656C282.304 212.247 282.322 205.838 282.332 199.429C282.338 196.452 282.344 193.475 282.356 190.497C282.367 187.615 282.373 184.733 282.375 181.851C282.377 180.761 282.38 179.67 282.386 178.58C282.412 173.085 282.332 167.632 281.856 162.155C281.82 161.724 281.783 161.292 281.746 160.848C280.653 149.65 275.57 139.452 267.894 131.344C267.539 130.944 267.184 130.544 266.819 130.133C259.565 122.308 247.889 116.551 237.237 115.877C222.743 115.568 211.032 118.475 199.929 128.367Z" fill="white"/>
<path d="M95.7502 123.158C96.0776 123.153 96.405 123.148 96.7424 123.143C98.3079 123.559 98.764 124.055 99.7189 125.391C100.026 127.239 99.9854 129.078 99.9697 130.948C99.9743 131.809 99.9743 131.809 99.9789 132.687C99.9853 134.28 99.9828 135.873 99.9767 137.467C99.9722 139.185 99.9791 140.903 99.9847 142.622C99.9929 145.6 99.994 148.578 99.9903 151.556C99.9851 155.867 99.9917 160.178 100.001 164.489C100.017 171.489 100.024 178.49 100.026 185.49C100.026 185.909 100.026 186.328 100.026 186.76C100.027 187.389 100.027 187.389 100.027 188.031C100.028 193.974 100.032 199.916 100.037 205.858C100.038 206.276 100.038 206.694 100.038 207.125C100.045 214.096 100.056 221.067 100.069 228.038C100.077 232.336 100.08 236.635 100.078 240.933C100.077 243.881 100.08 246.828 100.085 249.776C100.087 251.475 100.088 253.175 100.085 254.874C100.082 256.719 100.086 258.564 100.09 260.409C100.087 261.21 100.087 261.21 100.083 262.027C100.107 266.708 100.403 270.957 103.895 274.42C107.371 277.494 111.089 277.767 115.569 277.758C115.958 277.759 116.346 277.76 116.746 277.761C118.043 277.764 119.339 277.764 120.636 277.763C121.568 277.765 122.499 277.767 123.431 277.769C125.958 277.773 128.486 277.774 131.014 277.774C132.594 277.775 134.174 277.776 135.754 277.777C141.269 277.782 146.784 277.784 152.3 277.783C157.436 277.783 162.573 277.788 167.71 277.796C172.123 277.803 176.537 277.805 180.951 277.805C183.585 277.805 186.22 277.806 188.854 277.811C191.333 277.816 193.811 277.816 196.29 277.813C197.198 277.812 198.105 277.813 199.013 277.816C200.256 277.82 201.499 277.818 202.742 277.814C203.276 277.818 203.276 277.818 203.82 277.822C208.056 277.793 211.923 277.129 215.014 274.011C217.804 270.857 218.341 267.533 218.356 263.425C218.359 262.875 218.363 262.325 218.366 261.759C218.369 260.88 218.369 260.88 218.373 259.983C218.384 258.736 218.396 257.489 218.408 256.241C218.426 254.279 218.44 252.318 218.447 250.356C218.455 248.459 218.475 246.563 218.497 244.666C218.496 244.078 218.495 243.49 218.494 242.884C218.502 242.338 218.51 241.791 218.519 241.228C218.521 240.748 218.524 240.268 218.527 239.773C218.853 238.142 219.489 237.547 220.766 236.516C221.758 236.252 221.758 236.252 222.75 236.268C223.241 236.26 223.241 236.26 223.742 236.252C225.203 236.64 225.774 237.333 226.719 238.5C226.971 239.926 226.971 239.926 226.976 241.599C226.982 242.227 226.988 242.854 226.995 243.501C226.991 244.186 226.987 244.871 226.983 245.556C226.984 246.263 226.986 246.97 226.988 247.677C226.991 249.16 226.987 250.644 226.978 252.127C226.966 254.014 226.973 255.901 226.985 257.788C226.992 259.25 226.99 260.712 226.984 262.174C226.983 262.868 226.985 263.563 226.989 264.258C227.024 270.779 225.847 275.865 221.262 280.668C215.333 286.328 208.99 286.416 201.244 286.382C200.225 286.384 199.207 286.388 198.189 286.392C195.436 286.401 192.683 286.398 189.93 286.392C187.041 286.387 184.153 286.391 181.265 286.394C176.416 286.398 171.567 286.393 166.718 286.384C161.12 286.373 155.523 286.376 149.926 286.387C145.11 286.396 140.295 286.398 135.48 286.392C132.608 286.389 129.736 286.389 126.864 286.395C124.164 286.401 121.463 286.397 118.763 286.386C117.775 286.383 116.786 286.384 115.798 286.388C108.534 286.418 102.748 285.927 97.2385 280.668C92.7654 275.982 91.4782 270.936 91.5295 264.585C91.5264 263.988 91.5233 263.391 91.5201 262.776C91.5136 261.135 91.5159 259.494 91.522 257.853C91.5266 256.077 91.5196 254.302 91.5141 252.526C91.5053 249.054 91.5072 245.583 91.513 242.112C91.5175 239.291 91.5181 236.47 91.5159 233.65C91.5156 233.247 91.5153 232.845 91.515 232.431C91.5144 231.614 91.5137 230.797 91.5131 229.98C91.5074 222.332 91.5139 214.683 91.5246 207.035C91.5334 200.471 91.5319 193.907 91.5227 187.343C91.5121 179.716 91.5079 172.088 91.514 164.461C91.5147 163.648 91.5153 162.835 91.5159 162.022C91.5162 161.623 91.5165 161.223 91.5168 160.811C91.5185 157.991 91.5157 155.172 91.511 152.353C91.5054 148.92 91.5069 145.488 91.5175 142.055C91.5227 140.304 91.5247 138.552 91.5182 136.801C91.5112 134.904 91.5195 133.007 91.5295 131.111C91.525 130.555 91.5206 129.999 91.5161 129.426C91.5212 128.919 91.5264 128.412 91.5317 127.89C91.5321 127.452 91.5324 127.014 91.5327 126.563C92.0021 124.351 93.5114 123.123 95.7502 123.158Z" fill="white"/>
<path d="M248.808 136.146C254.755 140.562 258.775 146.81 259.957 154.164C260.013 155.583 260.048 156.993 260.061 158.412C260.075 159.256 260.089 160.1 260.104 160.945C260.124 162.262 260.143 163.578 260.156 164.895C260.246 173.173 260.831 180.633 266.313 187.278C267.411 188.64 267.867 189.259 268.235 190.999C267.802 192.734 267.161 193.571 265.91 194.844C264.56 195.142 264.56 195.142 262.998 195.125C262.412 195.125 261.826 195.125 261.222 195.125C260.277 195.106 260.277 195.106 259.313 195.086C258.666 195.083 258.02 195.079 257.353 195.075C255.637 195.066 253.921 195.042 252.205 195.014C250.453 194.989 248.7 194.977 246.948 194.965C243.512 194.938 240.076 194.896 236.64 194.844C236.663 195.251 236.686 195.657 236.71 196.076C236.728 196.611 236.746 197.146 236.764 197.696C236.787 198.226 236.81 198.755 236.834 199.301C236.597 201.129 236.088 201.666 234.656 202.781C233.664 203.045 233.664 203.045 232.671 203.029C232.18 203.037 232.18 203.037 231.679 203.045C230.216 202.656 229.644 201.97 228.703 200.797C228.509 199.301 228.509 199.301 228.579 197.696C228.606 196.894 228.606 196.894 228.633 196.076C228.656 195.67 228.679 195.263 228.703 194.844C228.34 194.849 227.978 194.855 227.605 194.86C224.189 194.91 220.773 194.948 217.357 194.972C215.6 194.985 213.844 195.003 212.088 195.031C210.069 195.063 208.049 195.075 206.03 195.086C205.4 195.099 204.77 195.112 204.121 195.125C203.242 195.125 203.242 195.125 202.345 195.125C201.83 195.131 201.314 195.136 200.783 195.142C199.433 194.844 199.433 194.844 198.274 193.678C197.257 192.058 197.147 191.269 197.449 189.387C198.247 188.042 198.247 188.042 199.309 186.72C204.979 179.281 205.112 171.617 205.106 162.6C205.118 154.73 205.967 148.27 210.843 141.762C211.114 141.4 211.386 141.038 211.665 140.665C220.701 129.541 237.305 128.501 248.808 136.146ZM217.913 146.63C214.834 150.292 213.768 154.191 213.698 158.887C213.681 159.638 213.665 160.389 213.648 161.139C213.625 162.309 213.603 163.479 213.583 164.649C213.45 172.196 213.301 180.007 209.851 186.906C224.913 186.906 239.974 186.906 255.492 186.906C254.673 184.614 253.855 182.322 253.011 179.961C251.662 174.564 251.843 169.067 251.83 163.534C251.802 156.071 251.042 150.352 245.645 144.785C241.332 140.738 236.818 139.586 231.022 139.64C225.596 140.049 221.55 142.753 217.913 146.63Z" fill="white"/>
<path d="M155.901 192.642C160.248 196.367 162.838 201.225 163.373 206.907C163.609 213.604 161.107 218.751 157.823 224.454C157.494 225.034 157.166 225.614 156.838 226.194C156.162 227.388 155.484 228.581 154.805 229.773C153.818 231.505 152.848 233.247 151.882 234.99C151.425 235.813 151.425 235.813 150.959 236.653C150.387 237.684 149.815 238.715 149.245 239.747C145.163 247.062 141.421 253.48 133.05 256.15C126.921 257.332 121.038 256.137 115.82 252.817C111.694 249.695 108.642 245.616 107.656 240.484C107.57 239.225 107.519 237.992 107.501 236.733C107.486 236.409 107.472 236.085 107.457 235.751C107.392 230.536 110.118 225.942 112.586 221.509C112.866 220.998 113.146 220.488 113.435 219.963C115.948 215.4 118.501 210.86 121.085 206.337C121.963 204.799 122.823 203.255 123.651 201.69C127.085 195.255 131.138 191.18 138.164 189.003C144.383 187.47 150.778 188.865 155.901 192.642ZM133.99 201.587C132.394 203.783 131.08 206.1 129.794 208.486C129.459 209.098 129.459 209.098 129.118 209.723C128.576 210.715 128.036 211.708 127.5 212.703C128.714 214.06 130.032 214.854 131.619 215.734C132.142 216.025 132.665 216.316 133.203 216.616C133.756 216.921 134.309 217.226 134.879 217.54C135.718 218.006 135.718 218.006 136.574 218.481C140.313 220.554 144.063 222.605 147.839 224.609C148.906 222.657 149.97 220.703 151.033 218.749C151.336 218.194 151.64 217.638 151.953 217.066C152.242 216.534 152.531 216.001 152.829 215.453C153.097 214.962 153.365 214.471 153.64 213.965C155.024 211.273 155.197 208.645 154.556 205.698C153.48 202.449 151.497 199.87 148.553 198.099C143.23 195.754 137.503 197.07 133.99 201.587ZM123.035 220.641C122.059 222.312 121.089 223.988 120.12 225.664C119.707 226.371 119.707 226.371 119.285 227.094C116.907 231.219 115.161 234.835 116.378 239.639C117.769 243.324 120.533 245.931 124.027 247.678C127.917 248.326 131.065 248.14 134.445 245.941C138.489 242.619 141.228 237.26 143.375 232.547C143.375 232.219 143.375 231.892 143.375 231.555C143.091 231.4 142.807 231.246 142.514 231.087C141.168 230.354 139.822 229.621 138.476 228.888C137.741 228.488 137.741 228.488 136.991 228.08C133.38 226.11 129.781 224.12 126.197 222.103C124.698 221.096 124.698 221.096 123.035 220.641Z" fill="white"/>
<path d="M117.257 63.6182C118.275 63.6155 119.293 63.612 120.312 63.6077C123.065 63.5987 125.818 63.6021 128.571 63.6084C131.459 63.6135 134.347 63.6088 137.235 63.6057C142.085 63.6021 146.934 63.6068 151.783 63.6163C157.38 63.6271 162.978 63.6236 168.575 63.6127C173.39 63.6036 178.206 63.6024 183.021 63.6076C185.893 63.6107 188.765 63.6111 191.636 63.6045C194.337 63.5988 197.037 63.6028 199.738 63.6142C200.726 63.6169 201.714 63.6161 202.702 63.6117C209.966 63.5824 215.753 64.0728 221.262 69.332C225.955 74.2476 227.051 79.5567 226.951 86.1544C226.936 87.2039 226.94 88.2522 226.947 89.3017C226.924 94.3433 226.924 94.3433 226.066 95.5572C224.667 96.5014 223.42 96.5599 221.758 96.6172C220.579 96.0534 219.702 95.5533 218.782 94.6328C218.715 93.8749 218.681 93.1143 218.659 92.3539C218.643 91.8832 218.627 91.4125 218.61 90.9276C218.58 89.9406 218.552 88.9536 218.525 87.9665C218.359 83.3078 218.084 79.0291 214.605 75.5797C211.129 72.5057 207.411 72.2327 202.931 72.2422C202.543 72.2411 202.155 72.24 201.755 72.2388C200.458 72.2357 199.161 72.2361 197.865 72.2365C196.933 72.235 196.001 72.2333 195.07 72.2315C192.542 72.2271 190.014 72.2259 187.487 72.2256C185.907 72.2253 184.327 72.2242 182.746 72.2229C177.231 72.2183 171.716 72.2163 166.201 72.2167C161.064 72.217 155.928 72.2117 150.791 72.2039C146.377 72.1974 141.964 72.1947 137.55 72.1951C134.915 72.1952 132.281 72.1938 129.646 72.1885C127.168 72.1837 124.689 72.1837 122.211 72.1873C121.303 72.1878 120.395 72.1866 119.488 72.1836C118.244 72.1798 117.001 72.1821 115.758 72.1859C115.403 72.1834 115.047 72.1808 114.681 72.1782C110.445 72.2067 106.578 72.8714 103.486 75.9886C99.9456 79.9925 100.147 84.5165 100.128 89.5827C100.116 90.7396 100.105 91.8965 100.092 93.0534C100.075 94.8716 100.06 96.6896 100.053 98.5078C100.046 100.267 100.026 102.025 100.004 103.783C100.005 104.328 100.006 104.873 100.007 105.434C99.9986 105.941 99.9905 106.447 99.982 106.97C99.9791 107.414 99.9762 107.859 99.9732 108.318C99.6391 109.892 98.9631 110.494 97.7347 111.5C96.7425 111.764 96.7425 111.764 95.7503 111.748C95.4229 111.753 95.0955 111.758 94.7581 111.764C93.304 111.377 92.7267 110.672 91.7816 109.516C91.5296 108.165 91.5296 108.165 91.5248 106.599C91.5186 106.011 91.5123 105.423 91.5059 104.817C91.5099 104.182 91.5139 103.548 91.518 102.894C91.5167 102.231 91.5148 101.569 91.5123 100.906C91.5094 99.5162 91.5136 98.1265 91.5229 96.7365C91.5341 94.9695 91.5277 93.2031 91.5158 91.4362C91.5085 90.066 91.5109 88.696 91.516 87.3258C91.518 86.3623 91.512 85.3987 91.5059 84.4351C91.5686 78.4254 93.0452 73.7247 97.2386 69.332C103.168 63.672 109.51 63.5838 117.257 63.6182Z" fill="white"/>
<path d="M137.29 83.4619C137.674 83.4585 138.058 83.455 138.454 83.4514C139.723 83.4427 140.99 83.4484 142.259 83.4551C143.141 83.4538 144.023 83.4519 144.905 83.4494C146.754 83.4465 148.602 83.4507 150.45 83.46C152.819 83.4713 155.188 83.4648 157.557 83.4529C159.378 83.4457 161.199 83.448 163.021 83.4532C163.894 83.4545 164.768 83.4529 165.641 83.4482C166.862 83.4432 168.083 83.4509 169.304 83.4619C169.664 83.4579 170.025 83.4539 170.397 83.4498C172.105 83.4784 172.99 83.6015 174.356 84.6649C175.19 85.7913 175.395 86.3035 175.373 87.6874C175.381 88.1786 175.381 88.1786 175.388 88.6796C174.993 90.1684 174.354 90.7116 173.141 91.6562C171.794 91.8521 170.649 91.9279 169.304 91.913C168.727 91.9182 168.727 91.9182 168.139 91.9235C166.871 91.9322 165.603 91.9265 164.335 91.9197C163.453 91.9211 162.57 91.923 161.688 91.9255C159.84 91.9284 157.992 91.9242 156.143 91.9149C153.774 91.9036 151.406 91.9101 149.037 91.922C147.215 91.9292 145.394 91.9269 143.572 91.9217C142.699 91.9204 141.826 91.922 140.952 91.9267C139.731 91.9317 138.511 91.924 137.29 91.913C136.929 91.917 136.568 91.921 136.196 91.9251C134.488 91.8965 133.604 91.7734 132.237 90.71C131.403 89.5836 131.199 89.0714 131.221 87.6874C131.213 87.1963 131.213 87.1963 131.205 86.6953C132.032 83.5838 134.507 83.431 137.29 83.4619Z" fill="white"/>
<path d="M189.016 83.7188C190.256 84.4629 190.256 84.4629 191 85.7031C191.392 87.6979 191.308 89.158 190.256 90.9121C188.502 91.9646 187.042 92.0487 185.047 91.6563C183.807 90.9121 183.807 90.9121 183.063 89.6719C182.67 87.6771 182.754 86.217 183.807 84.4629C185.561 83.4104 187.021 83.3264 189.016 83.7188Z" fill="white"/>
</svg>
