<svg width="168" height="226" viewBox="0 0 168 226" fill="none" xmlns="http://www.w3.org/2000/svg">
<path d="M71.2108 40.5353C77.3243 44.3664 82.5249 49.4369 87.1636 54.9301C90.2603 57.5107 92.4848 58.2266 96.3085 59.4009C106.684 62.6014 114.023 69.1167 120.356 77.894C122.151 81.4163 123.537 84.9546 124.692 88.7325C124.897 89.3975 125.102 90.0625 125.314 90.7477C127.847 103.484 125.416 115.249 118.612 126.231C112.327 134.866 104.897 140.597 94.344 142.925C88.2919 143.412 82.2584 143.41 76.1897 143.395C74.4288 143.4 72.6679 143.405 70.907 143.412C67.2302 143.421 63.5537 143.419 59.877 143.408C55.1868 143.396 50.4975 143.418 45.8074 143.449C42.1754 143.469 38.5435 143.469 34.9114 143.463C33.183 143.462 31.4547 143.469 29.7264 143.482C16.8046 143.569 7.47967 142.153 -2.2789 133.094C-5.48657 129.751 -8.1868 126.157 -10.7888 122.332C-11.4147 121.46 -12.0406 120.588 -12.6855 119.69C-18.2595 108.263 -17.3056 95.1005 -13.3079 83.3598C-8.70597 72.785 0.44504 64.1525 10.8161 59.2612C13.1609 58.3437 15.4991 57.7365 17.9331 57.0978C23.3299 55.4223 25.8462 52.0632 29.3431 47.7877C39.481 36.365 57.6782 34.2201 71.2108 40.5353ZM38.4753 64.0793C36.2997 66.6935 33.9196 69.0221 31.4811 71.391C31.1235 71.7486 30.7658 72.1063 30.3973 72.4748C28.231 72.7134 26.0629 72.9363 23.8942 73.1522C14.7612 74.4956 9.69875 78.438 3.91086 85.4132C-0.394936 93.8525 -0.865207 101.906 1.98026 110.926C3.5592 114.195 5.49562 116.572 7.90753 119.283C8.71787 120.215 9.52822 121.147 10.3631 122.107C15.2134 126.416 20.326 126.939 26.6438 126.965C28.0293 126.975 29.4147 126.985 30.8422 126.996C32.3408 126.996 33.8395 126.995 35.3381 126.993C36.8901 126.997 38.4421 127.002 39.9942 127.007C43.2402 127.015 46.4861 127.015 49.7321 127.009C53.8769 127.003 58.0212 127.021 62.1659 127.046C65.3693 127.062 68.5725 127.063 71.7759 127.06C73.3034 127.06 74.8308 127.066 76.3582 127.077C87.0473 127.144 94.9933 126.866 103.015 119.08C103.957 116.772 103.957 116.772 104.099 114.745C104.814 114.745 105.529 114.745 106.266 114.745C108.542 110.095 108.796 105.807 108.773 100.722C108.79 99.9743 108.808 99.2261 108.826 98.4553C108.833 91.1512 106.184 85.9056 101.381 80.4766C96.3872 75.8493 90.9377 74.5052 84.3185 73.6264C78.4189 72.7741 78.4189 72.7741 75.3768 70.0362C74.8403 69.0526 74.3038 68.069 73.751 67.0556C68.575 59.0824 68.575 59.0824 60.7449 54.0495C50.3317 52.5717 44.9026 56.2143 38.4753 64.0793Z" fill="white" fill-opacity="0.3"/>
<path d="M134.446 32.3727C143.278 40.5461 149.305 50.1012 155.039 60.5526C155.587 61.539 156.135 62.5254 156.699 63.5417C169.058 86.9782 169.962 118.799 162.308 143.962C159.577 151.858 156.134 160.218 149.62 165.685C145.717 166.336 143.899 166.179 140.543 164.06C138.042 160.212 137.915 157.057 138.782 152.679C139.98 149.661 141.358 146.778 142.783 143.86C151.063 125.741 151.488 99.4314 144.764 80.8239C135.281 56.2638 119.146 36.2746 94.7378 25.1584C90.6781 23.4545 86.5984 21.8454 82.4218 20.4504C81.1109 20.0068 81.1109 20.0068 79.7735 19.5542C71.7366 17.0803 64.2375 16.7425 55.8676 16.8602C54.6255 16.8567 53.3835 16.8532 52.1038 16.8496C27.0033 17.0067 6.92356 27.0384 -11.4365 43.588C-14.4482 45.6594 -15.8804 45.9055 -19.4595 45.3788C-22.9061 43.0501 -23.6767 41.602 -24.54 37.521C-23.1304 29.832 -17.3715 25.4349 -11.263 20.9924C36.5867 -10.7388 91.6817 -6.14233 134.446 32.3727Z" fill="white" fill-opacity="0.3"/>
<path d="M-1.03414 188.446C1.62889 189.915 1.62889 189.915 4.18185 191.901C25.2871 207.418 48.2899 209.235 73.751 206.871C81.9485 205.4 89.0333 202.236 96.1858 198.014C100.353 195.706 102.659 195.325 107.35 196.033C110.674 198.249 111.504 199.608 112.431 203.484C111.545 207.512 109.966 209.264 106.715 211.744C101.098 215.244 95.1328 217.667 88.9249 219.878C88.1816 220.145 87.4383 220.413 86.6725 220.689C60.0296 229.896 32.3961 226.675 7.35188 214.556C-0.282638 210.661 -8.55519 205.803 -12.9564 198.201C-12.9564 194.65 -12.1302 193.135 -10.0436 190.275C-6.76038 187.879 -5.04018 188.059 -1.03414 188.446Z" fill="white" fill-opacity="0.3"/>
<path d="M37.781 155.592C41.4502 157.103 42.837 158.493 45.5034 161.35C48.4725 164.506 49.6635 165.607 53.9032 166.972C60.5992 166.593 63.8781 162.793 68.3319 158.098C69.0472 157.383 69.7625 156.668 70.4995 155.931C73.7458 156.138 76.1911 156.555 79.0348 158.166C81.0469 161.631 80.9026 165.104 80.2541 168.937C76.6132 176.079 70.7918 181.053 63.1963 183.556C54.8885 185.436 47.9235 184.61 40.4779 180.465C35.8605 177.181 31.8607 172.947 29.3135 167.853C28.7251 163.44 28.9679 161.828 31.6167 158.166C34.7327 155.931 34.7327 155.931 37.781 155.592Z" fill="white" fill-opacity="0.3"/>
<path d="M55.4613 74.7102C58.5773 75.7263 58.5773 75.7263 60.745 78.9779C60.9567 81.9034 60.9567 81.9034 60.8805 85.1422C60.861 86.2194 60.8414 87.2966 60.8212 88.4065C60.7961 89.2294 60.7709 90.0523 60.745 90.9002C61.5554 90.8499 62.3657 90.7996 63.2006 90.7477C71.8994 90.4289 71.8994 90.4289 75.6479 92.7291C77.0027 95.2355 77.0027 95.2355 76.9349 98.0129C75.8264 100.895 75.1145 102.055 72.6673 103.906C69.7418 104.224 69.7418 104.224 66.503 104.109C64.8872 104.065 64.8872 104.065 63.2387 104.021C62.4158 103.983 61.5929 103.945 60.745 103.906C60.7953 104.717 60.8456 105.527 60.8975 106.362C61.2169 115.077 61.2169 115.077 58.916 118.741C55.9011 120.453 54.3956 120.862 50.9904 120.164C48.5624 117.69 47.7856 116.274 47.4214 112.797C47.4591 111.741 47.4968 110.685 47.5357 109.596C47.565 108.529 47.5944 107.462 47.6246 106.362C47.6623 105.552 47.7 104.741 47.7389 103.906C46.5234 103.963 46.5234 103.963 45.2833 104.021C44.2159 104.05 43.1485 104.079 42.0487 104.109C40.9925 104.147 39.9363 104.185 38.848 104.224C35.3611 103.859 33.9377 103.123 31.4813 100.655C30.992 97.3001 30.7708 95.1955 32.7175 92.3354C35.6384 90.2552 37.9013 90.5828 41.4391 90.6969C42.6169 90.7263 43.7947 90.7556 45.0081 90.7858C46.3599 90.8424 46.3599 90.8424 47.7389 90.9002C47.6886 90.0898 47.6383 89.2795 47.5865 88.4446C47.2687 79.7736 47.2687 79.7736 49.5002 75.9973C52.0743 74.6425 52.0743 74.6425 55.4613 74.7102Z" fill="white" fill-opacity="0.3"/>
</svg>
