<svg width="113" height="219" viewBox="0 0 113 219" fill="none" xmlns="http://www.w3.org/2000/svg">
<path d="M191.446 32.3727C200.278 40.5461 206.305 50.1012 212.039 60.5526C212.587 61.539 213.135 62.5254 213.699 63.5417C226.058 86.9782 226.962 118.799 219.308 143.962C216.577 151.858 213.134 160.218 206.62 165.685C202.717 166.336 200.899 166.179 197.543 164.06C195.042 160.212 194.915 157.057 195.782 152.679C196.98 149.661 198.358 146.778 199.783 143.86C208.063 125.741 208.488 99.4314 201.764 80.8239C192.281 56.2638 176.146 36.2746 151.738 25.1584C147.678 23.4545 143.598 21.8454 139.422 20.4504C138.111 20.0068 138.111 20.0068 136.774 19.5542C128.737 17.0803 121.238 16.7425 112.868 16.8602C111.626 16.8567 110.383 16.8532 109.104 16.8496C84.0033 17.0067 63.9236 27.0384 45.5635 43.588C42.5518 45.6594 41.1196 45.9055 37.5405 45.3788C34.0939 43.0501 33.3233 41.602 32.46 37.521C33.8696 29.832 39.6285 25.4349 45.737 20.9924C93.5867 -10.7388 148.682 -6.14233 191.446 32.3727Z" fill="white" fill-opacity="0.3"/>
<path d="M55.9659 188.446C58.6289 189.915 58.6289 189.915 61.1819 191.901C82.2871 207.418 105.29 209.235 130.751 206.871C138.949 205.4 146.033 202.236 153.186 198.014C157.353 195.706 159.659 195.325 164.35 196.033C167.674 198.249 168.504 199.608 169.431 203.484C168.545 207.512 166.966 209.264 163.715 211.744C158.098 215.244 152.133 217.667 145.925 219.878C145.182 220.145 144.438 220.413 143.672 220.689C117.03 229.896 89.3961 226.675 64.3519 214.556C56.7174 210.661 48.4448 205.803 44.0436 198.201C44.0436 194.65 44.8698 193.135 46.9564 190.275C50.2396 187.879 51.9598 188.059 55.9659 188.446Z" fill="white" fill-opacity="0.3"/>
<path d="M19.1152 63.8043C21.6216 64.8882 21.6216 64.8882 23.4506 67.0559C24.4763 73.9795 22.425 79.6602 20.1694 86.1925C13.5735 108.868 17.5452 136.003 28.7386 156.388C30.0753 158.775 31.4336 161.151 32.8199 163.509C34.4462 167.118 34.7474 169.36 34.289 173.273C32.0536 176.456 32.0536 176.456 28.8698 178.692C25.2118 179.166 25.2118 179.166 21.2829 177.608C15.6025 172.069 12.418 164.473 9.1574 157.354C8.8096 156.603 8.4618 155.852 8.10346 155.078C2.03908 141.21 -0.0532384 128.126 0.0651334 113.132C0.0801876 110.482 0.0430364 107.837 0.00189155 105.187C-0.0676966 91.18 1.7528 77.4989 10.4445 65.972C13.9752 63.6182 15.023 63.3053 19.1152 63.8043Z" fill="white" fill-opacity="0.3"/>
</svg>
