<?xml version="1.0" standalone="no"?>
<!DOCTYPE svg PUBLIC "-//W3C//DTD SVG 20010904//EN"
 "http://www.w3.org/TR/2001/REC-SVG-20010904/DTD/svg10.dtd">
<svg version="1.0" xmlns="http://www.w3.org/2000/svg"
 width="512.000000pt" height="512.000000pt" viewBox="0 0 512.000000 512.000000"
 preserveAspectRatio="xMidYMid meet">

<g transform="translate(0.000000,512.000000) scale(0.100000,-0.100000)"
fill="#000000" stroke="none">
<path d="M2600 5096 c-337 -78 -600 -309 -707 -621 -97 -285 -57 -592 110
-840 54 -80 158 -187 236 -243 l64 -46 -89 -23 c-272 -71 -511 -266 -634 -518
-93 -189 -109 -299 -110 -721 l0 -271 -225 -136 -225 -136 -15 28 c-22 43 -64
73 -93 66 -25 -6 -563 -345 -599 -378 -14 -12 -23 -32 -23 -49 0 -21 99 -184
351 -581 194 -304 363 -567 376 -585 43 -58 57 -52 374 149 156 99 292 188
302 196 34 31 21 76 -60 199 -13 20 -8 24 95 87 l109 66 484 -161 c475 -159
486 -162 585 -166 119 -5 199 12 289 62 123 68 1141 728 1179 764 62 59 91
131 91 227 0 60 -6 91 -22 126 -50 110 -165 189 -275 189 l-58 0 0 43 c0 42 1
43 301 342 165 165 318 326 339 359 98 144 107 343 25 506 -54 106 -172 203
-293 240 -128 40 -295 20 -402 -48 l-46 -29 -34 24 c-96 65 -271 92 -393 59
-61 -17 -64 -17 -112 4 -28 12 -88 32 -134 44 l-84 22 64 46 c128 91 248 238
314 381 61 135 79 224 79 392 0 154 -8 207 -55 333 -60 164 -190 334 -335 438
-76 54 -227 126 -314 149 -84 23 -350 30 -430 11z m440 -165 c175 -59 320
-169 419 -316 87 -130 141 -303 141 -450 0 -84 -28 -222 -61 -301 -130 -311
-416 -504 -749 -504 -374 0 -691 248 -786 615 -24 96 -24 284 0 380 65 253
252 467 485 558 122 47 182 57 326 53 115 -3 141 -7 225 -35z m298 -1744 c28
-10 52 -20 52 -23 0 -3 -18 -26 -39 -52 -75 -91 -111 -193 -111 -318 0 -102
25 -189 79 -270 22 -34 167 -187 340 -359 l301 -300 0 -70 0 -71 -312 -199
c-171 -110 -316 -201 -323 -203 -6 -1 -18 12 -27 30 -23 49 -67 98 -117 129
-37 24 -1092 381 -1256 425 -65 18 -200 18 -259 0 l-47 -14 3 316 c5 357 7
371 82 527 113 236 340 412 597 464 24 5 256 8 514 7 417 -2 476 -4 523 -19z
m536 -65 c27 -13 69 -38 92 -57 54 -45 84 -45 138 0 75 61 129 80 231 80 82 0
97 -3 157 -33 77 -38 130 -92 167 -171 22 -47 26 -70 26 -146 0 -151 -5 -158
-353 -507 l-297 -298 -293 292 c-349 350 -357 361 -357 518 0 78 4 103 23 141
45 92 120 158 220 196 55 20 185 12 246 -15z m-1392 -1546 c328 -108 611 -207
630 -219 48 -32 80 -100 75 -159 -4 -53 -42 -117 -82 -144 -59 -38 -92 -32
-408 72 l-297 98 -27 -20 c-34 -26 -42 -72 -16 -101 12 -15 112 -52 313 -118
283 -94 297 -97 365 -93 133 9 234 87 277 216 14 40 26 49 383 278 203 130
382 241 398 246 47 17 122 4 163 -27 40 -31 74 -94 74 -140 0 -42 -32 -106
-67 -136 -50 -42 -1112 -720 -1172 -747 -49 -23 -69 -27 -156 -27 l-100 0
-501 168 c-276 92 -506 167 -512 167 -5 0 -70 -36 -143 -80 -73 -45 -136 -77
-140 -73 -13 13 -440 685 -437 687 2 2 48 30 103 63 55 33 175 105 266 161
203 123 229 133 334 129 73 -3 131 -20 677 -201z m-1264 -604 c171 -269 314
-495 317 -503 4 -10 -58 -54 -207 -149 -116 -74 -216 -136 -222 -138 -13 -3
-652 996 -643 1004 16 16 423 273 433 274 6 0 151 -220 322 -488z"/>
<path d="M3981 2904 c-17 -22 -21 -41 -21 -110 l0 -84 -89 0 c-85 0 -91 -1
-111 -27 -25 -32 -20 -69 12 -95 16 -14 39 -18 103 -18 l83 0 4 -91 c3 -81 6
-93 27 -110 30 -24 62 -24 92 0 21 17 24 29 27 110 l4 91 83 0 c98 0 128 16
128 68 0 58 -24 72 -124 72 l-87 0 -4 89 c-2 70 -7 93 -22 110 -28 31 -79 28
-105 -5z"/>
</g>
</svg>
