<svg width="36" height="36" viewBox="0 0 36 36" fill="none" xmlns="http://www.w3.org/2000/svg">
<path d="M18 21C18.2967 21 18.5867 20.912 18.8334 20.7472C19.08 20.5824 19.2723 20.3481 19.3858 20.074C19.4994 19.7999 19.5291 19.4983 19.4712 19.2074C19.4133 18.9164 19.2704 18.6491 19.0607 18.4393C18.8509 18.2296 18.5836 18.0867 18.2926 18.0288C18.0017 17.9709 17.7001 18.0006 17.426 18.1142C17.1519 18.2277 16.9176 18.42 16.7528 18.6666C16.588 18.9133 16.5 19.2033 16.5 19.5C16.5 19.8978 16.658 20.2794 16.9393 20.5607C17.2206 20.842 17.6022 21 18 21ZM25.5 21C25.7967 21 26.0867 20.912 26.3334 20.7472C26.58 20.5824 26.7723 20.3481 26.8858 20.074C26.9994 19.7999 27.0291 19.4983 26.9712 19.2074C26.9133 18.9164 26.7704 18.6491 26.5607 18.4393C26.3509 18.2296 26.0836 18.0867 25.7926 18.0288C25.5017 17.9709 25.2001 18.0006 24.926 18.1142C24.6519 18.2277 24.4176 18.42 24.2528 18.6666C24.088 18.9133 24 19.2033 24 19.5C24 19.8978 24.158 20.2794 24.4393 20.5607C24.7206 20.842 25.1022 21 25.5 21ZM18 27C18.2967 27 18.5867 26.912 18.8334 26.7472C19.08 26.5824 19.2723 26.3481 19.3858 26.074C19.4994 25.7999 19.5291 25.4983 19.4712 25.2074C19.4133 24.9164 19.2704 24.6491 19.0607 24.4393C18.8509 24.2296 18.5836 24.0867 18.2926 24.0288C18.0017 23.9709 17.7001 24.0006 17.426 24.1142C17.1519 24.2277 16.9176 24.42 16.7528 24.6666C16.588 24.9133 16.5 25.2033 16.5 25.5C16.5 25.8978 16.658 26.2794 16.9393 26.5607C17.2206 26.842 17.6022 27 18 27ZM25.5 27C25.7967 27 26.0867 26.912 26.3334 26.7472C26.58 26.5824 26.7723 26.3481 26.8858 26.074C26.9994 25.7999 27.0291 25.4983 26.9712 25.2074C26.9133 24.9164 26.7704 24.6491 26.5607 24.4393C26.3509 24.2296 26.0836 24.0867 25.7926 24.0288C25.5017 23.9709 25.2001 24.0006 24.926 24.1142C24.6519 24.2277 24.4176 24.42 24.2528 24.6666C24.088 24.9133 24 25.2033 24 25.5C24 25.8978 24.158 26.2794 24.4393 26.5607C24.7206 26.842 25.1022 27 25.5 27ZM10.5 21C10.7967 21 11.0867 20.912 11.3334 20.7472C11.58 20.5824 11.7723 20.3481 11.8858 20.074C11.9994 19.7999 12.0291 19.4983 11.9712 19.2074C11.9133 18.9164 11.7704 18.6491 11.5607 18.4393C11.3509 18.2296 11.0836 18.0867 10.7926 18.0288C10.5017 17.9709 10.2001 18.0006 9.92597 18.1142C9.65189 18.2277 9.41762 18.42 9.2528 18.6666C9.08797 18.9133 9 19.2033 9 19.5C9 19.8978 9.15804 20.2794 9.43934 20.5607C9.72064 20.842 10.1022 21 10.5 21ZM28.5 6H27V4.5C27 4.10218 26.842 3.72064 26.5607 3.43934C26.2794 3.15804 25.8978 3 25.5 3C25.1022 3 24.7206 3.15804 24.4393 3.43934C24.158 3.72064 24 4.10218 24 4.5V6H12V4.5C12 4.10218 11.842 3.72064 11.5607 3.43934C11.2794 3.15804 10.8978 3 10.5 3C10.1022 3 9.72064 3.15804 9.43934 3.43934C9.15804 3.72064 9 4.10218 9 4.5V6H7.5C6.30653 6 5.16193 6.47411 4.31802 7.31802C3.47411 8.16193 3 9.30653 3 10.5V28.5C3 29.6935 3.47411 30.8381 4.31802 31.682C5.16193 32.5259 6.30653 33 7.5 33H28.5C29.6935 33 30.8381 32.5259 31.682 31.682C32.5259 30.8381 33 29.6935 33 28.5V10.5C33 9.30653 32.5259 8.16193 31.682 7.31802C30.8381 6.47411 29.6935 6 28.5 6ZM30 28.5C30 28.8978 29.842 29.2794 29.5607 29.5607C29.2794 29.842 28.8978 30 28.5 30H7.5C7.10218 30 6.72064 29.842 6.43934 29.5607C6.15804 29.2794 6 28.8978 6 28.5V15H30V28.5ZM30 12H6V10.5C6 10.1022 6.15804 9.72064 6.43934 9.43934C6.72064 9.15804 7.10218 9 7.5 9H28.5C28.8978 9 29.2794 9.15804 29.5607 9.43934C29.842 9.72064 30 10.1022 30 10.5V12ZM10.5 27C10.7967 27 11.0867 26.912 11.3334 26.7472C11.58 26.5824 11.7723 26.3481 11.8858 26.074C11.9994 25.7999 12.0291 25.4983 11.9712 25.2074C11.9133 24.9164 11.7704 24.6491 11.5607 24.4393C11.3509 24.2296 11.0836 24.0867 10.7926 24.0288C10.5017 23.9709 10.2001 24.0006 9.92597 24.1142C9.65189 24.2277 9.41762 24.42 9.2528 24.6666C9.08797 24.9133 9 25.2033 9 25.5C9 25.8978 9.15804 26.2794 9.43934 26.5607C9.72064 26.842 10.1022 27 10.5 27Z" fill="#555555"/>
</svg>
